<svg xmlns="http://www.w3.org/2000/svg" viewBox="0 0 995.48 463.51"><defs><style>.cls-1{fill:#fff}.cls-2{fill:#3f3d56}.cls-3{fill:#e6e6e6}.cls-4{fill:#8b8fbc}.cls-5{fill:#373737}.cls-6{fill:#ffb8b8}.cls-7{fill:#575a89}.cls-8,.cls-9{opacity:.2;isolation:isolate}.cls-9{opacity:.1}.cls-10{fill:#333}.cls-15{fill:#f2f2f2}.cls-16{fill:#3c354c}.cls-17{fill:none;stroke:#3f3d56;stroke-miterlimit:10;stroke-width:4px}</style></defs><g id="レイヤー_2" data-name="レイヤー 2"><g id="レイヤー_1-2" data-name="レイヤー 1"><circle class="cls-1" cx="818.52" cy="257.11" r="172.25" transform="rotate(-79.02 818.525 257.11)"/><path class="cls-2" d="M806.72 463.51c-2 0-4 0-6-.09v-1.44c2.84.09 5.73.12 8.58.08v1.43zm11.3-.33l-.08-1.43c2.84-.17 5.71-.41 8.55-.7l.15 1.42c-2.86.3-5.75.54-8.62.71zm-25.9-.22a189.6 189.6 0 01-8.6-.86l.17-1.43c2.83.35 5.7.64 8.54.85zm43.09-1.58L835 460c2.82-.43 5.67-.93 8.45-1.48l.28 1.41c-2.81.55-5.67 1.06-8.51 1.49zm-60.21-.53c-2.83-.48-5.68-1-8.49-1.64l.31-1.4c2.78.6 5.61 1.15 8.42 1.63zm77.15-2.85l-.34-1.4c2.77-.68 5.55-1.44 8.28-2.24l.41 1.37c-2.75.82-5.55 1.58-8.35 2.27zm-94.07-.83c-2.77-.73-5.56-1.55-8.3-2.41l.44-1.37c2.71.86 5.48 1.67 8.23 2.4zm110.64-4.09l-.47-1.35c2.69-.94 5.39-1.95 8-3l.53 1.33c-2.67 1.06-5.39 2.08-8.1 3zM741.58 452c-2.69-1-5.4-2.06-8.05-3.18l.55-1.32c2.64 1.11 5.32 2.17 8 3.15zm143.17-5.29l-.6-1.31c2.58-1.17 5.18-2.42 7.71-3.72l.66 1.28c-2.56 1.31-5.17 2.57-7.77 3.75zm-159.12-1.43c-2.59-1.23-5.19-2.55-7.73-3.9l.67-1.27c2.52 1.35 5.1 2.65 7.67 3.87zm174.48-6.42l-.72-1.25c2.48-1.41 5-2.89 7.35-4.41l.76 1.21c-2.41 1.5-4.9 3-7.39 4.42zm-189.75-1.74c-2.46-1.46-4.93-3-7.33-4.59l.79-1.2c2.38 1.57 4.83 3.11 7.28 4.56zm204.33-7.49l-.82-1.17c2.33-1.63 4.66-3.34 6.91-5.07l.88 1.14c-2.28 1.71-4.66 3.47-6.97 5.07zm-218.77-2c-2.32-1.68-4.63-3.44-6.88-5.24l.89-1.12c2.23 1.78 4.53 3.53 6.83 5.2zm232.46-8.5l-.92-1.1c2.17-1.83 4.33-3.74 6.42-5.68l1 1.06c-2.13 1.9-4.31 3.82-6.5 5.67zm-246-2.29c-2.16-1.89-4.31-3.85-6.38-5.84l1-1c2.05 2 4.18 3.92 6.32 5.79zm258.66-9.44l-1-1c2-2 4-4.13 5.88-6.24l1.07 1c-1.92 2.13-3.92 4.24-5.93 6.29zm-271.13-2.52c-2-2.08-3.94-4.24-5.81-6.4l1.08-.94c1.86 2.15 3.8 4.28 5.77 6.35zm282.7-10.32l-1.11-.92c1.81-2.2 3.59-4.47 5.29-6.75l1.15.86a203.6 203.6 0 01-5.3 6.76zm-294-2.73c-1.77-2.24-3.52-4.56-5.2-6.89l1.17-.84c1.66 2.31 3.4 4.61 5.16 6.84zM963 380.66l-1.18-.81c1.6-2.35 3.16-4.78 4.65-7.21l1.23.75c-1.52 2.45-3.1 4.89-4.7 7.27zm-314.46-2.89a190.7 190.7 0 01-4.55-7.34l1.24-.73c1.44 2.45 3 4.9 4.51 7.28zm323.52-11.85l-1.26-.7c1.38-2.49 2.72-5.05 4-7.61l1.29.64c-1.3 2.57-2.66 5.15-4.04 7.67zm-332.28-3c-1.34-2.53-2.64-5.13-3.86-7.72l1.3-.61c1.21 2.57 2.5 5.15 3.83 7.66zm339.94-12.5l-1.31-.58c1.14-2.61 2.24-5.28 3.26-7.95l1.34.52c-1 2.68-2.14 5.38-3.29 8zm-347.3-3.1c-1.1-2.64-2.15-5.34-3.13-8l1.35-.49c1 2.67 2 5.35 3.11 8zm353.51-13.07l-1.36-.45c.89-2.7 1.74-5.46 2.51-8.2l1.38.39c-.78 2.76-1.63 5.54-2.53 8.26zm-359.4-3.15c-.86-2.73-1.66-5.53-2.39-8.3l1.39-.37c.72 2.76 1.52 5.53 2.37 8.25zm364.07-13.51l-1.4-.32c.64-2.77 1.23-5.59 1.75-8.4l1.41.26c-.52 2.83-1.12 5.67-1.76 8.46zm-368.47-3.22c-.6-2.8-1.14-5.66-1.61-8.49l1.42-.24c.46 2.81 1 5.65 1.6 8.43zm371.6-13.77l-1.43-.19c.39-2.82.71-5.68 1-8.53l1.43.13c-.26 2.87-.59 5.76-1 8.59zm-374.43-3.28c-.33-2.84-.61-5.73-.82-8.6l1.43-.1c.21 2.84.48 5.71.82 8.53zm376-13.93l-1.44-.06c.13-2.85.2-5.73.2-8.58h1.43c0 2.87-.07 5.78-.19 8.64zm-377.3-3.3c0-1.76-.07-3.55-.07-5.34v-3.3h1.43v3.28c0 1.77 0 3.55.08 5.3zm376-7.34c0-2.84-.12-5.73-.28-8.57l1.43-.08c.16 2.86.26 5.77.29 8.64zm-374.23-9.85l-1.43-.09c.18-2.86.43-5.76.73-8.61l1.43.16c-.3 2.82-.5 5.7-.73 8.54zm373.31-7.27c-.29-2.83-.64-5.69-1.06-8.51l1.42-.21c.42 2.84.78 5.72 1.07 8.57zm-371.46-9.77l-1.42-.22c.44-2.84.95-5.71 1.52-8.51l1.41.28a175.1 175.1 0 00-1.51 8.45zm369-7.19c-.55-2.8-1.16-5.62-1.84-8.38l1.4-.34c.68 2.78 1.3 5.62 1.85 8.44zM625 229.05l-1.39-.35c.69-2.78 1.47-5.58 2.29-8.33l1.38.41c-.8 2.73-1.57 5.51-2.28 8.27zm361.49-7c-.79-2.74-1.67-5.49-2.59-8.18l1.35-.46c.94 2.71 1.82 5.48 2.62 8.23zM630 212.6l-1.35-.47c.95-2.72 2-5.44 3.06-8.11l1.33.54a162.45 162.45 0 00-3 8zm351-6.81c-1.05-2.64-2.17-5.29-3.33-7.88l1.31-.59c1.17 2.61 2.3 5.28 3.36 7.94zm-344.6-9.12l-1.3-.6c1.2-2.61 2.47-5.23 3.79-7.78l1.28.66c-1.31 2.53-2.58 5.13-3.77 7.72zm337.52-6.48c-1.29-2.54-2.65-5.08-4-7.55l1.25-.71c1.41 2.5 2.78 5.06 4.08 7.61zm-329.64-8.78l-1.24-.72c1.43-2.48 2.94-5 4.49-7.39l1.2.77c-1.53 2.4-3 4.87-4.45 7.34zm321.2-6.12c-1.51-2.42-3.1-4.83-4.72-7.15l1.18-.82c1.63 2.35 3.23 4.77 4.76 7.2zm-312-8.35l-1.17-.82c1.65-2.35 3.38-4.69 5.14-7l1.13.88c-1.7 2.29-3.42 4.61-5.06 6.94zm302.2-5.73c-1.73-2.27-3.53-4.52-5.36-6.7l1.1-.92c1.84 2.19 3.66 4.46 5.4 6.75zM664 153.38l-1.1-.93c1.86-2.18 3.8-4.35 5.76-6.45l1 1c-1.86 2.07-3.78 4.22-5.66 6.38zm280.67-5.31c-1.93-2.1-3.93-4.18-6-6.18l1-1c2 2 4 4.11 6 6.23zm-269-7.23l-1-1c2.06-2 4.18-4 6.32-5.9l1 1.07c-2.11 1.87-4.21 3.84-6.25 5.83zM932.55 136c-2.12-1.92-4.3-3.81-6.49-5.62l.92-1.11c2.2 1.83 4.4 3.73 6.53 5.67zm-244-6.56l-.91-1.11c2.22-1.81 4.52-3.59 6.82-5.3l.86 1.16c-2.32 1.67-4.59 3.44-6.79 5.23zM919.33 125c-2.28-1.71-4.63-3.4-7-5l.8-1.19c2.37 1.62 4.73 3.32 7 5.05zm-217-5.82l-.8-1.19c2.38-1.6 4.82-3.16 7.27-4.65l.75 1.22c-2.47 1.52-4.9 3.07-7.26 4.66zm202.87-3.87c-2.43-1.5-4.92-3-7.4-4.35l.69-1.25c2.51 1.39 5 2.87 7.46 4.38zm-188.23-5l-.69-1.26c2.51-1.37 5.09-2.71 7.66-4l.63 1.29c-2.55 1.25-5.11 2.58-7.6 3.94zM890.16 107c-2.56-1.28-5.17-2.51-7.78-3.66L883 102c2.63 1.16 5.27 2.4 7.84 3.68zm-157.86-4.2l-.57-1.32c2.63-1.14 5.31-2.23 8-3.24l.51 1.34a182.98 182.98 0 00-7.94 3.22zm142.14-2.75c-2.65-1-5.38-2-8.08-2.92l.45-1.37c2.73.92 5.47 1.91 8.15 2.95zm-126.13-3.33l-.45-1.36c2.73-.9 5.52-1.74 8.28-2.51l.38 1.39c-2.74.76-5.52 1.59-8.21 2.48zm109.86-2.13c-2.74-.78-5.53-1.51-8.3-2.16l.33-1.4c2.79.66 5.6 1.39 8.36 2.18zm-93.34-2.46l-.31-1.39c2.79-.64 5.64-1.23 8.46-1.73l.26 1.41c-2.8.5-5.63 1.08-8.41 1.71zm76.65-1.48c-2.8-.52-5.65-1-8.47-1.39l.2-1.42c2.85.4 5.71.87 8.53 1.4zm-59.77-1.56l-.19-1.42c2.84-.38 5.73-.7 8.59-1l.12 1.43c-2.83.3-5.7.61-8.52.99zm42.79-.82c-2.83-.27-5.71-.48-8.56-.61l.07-1.44c2.87.14 5.77.35 8.62.62zm-25.71-.67l-.06-1.43c2.64-.11 5.33-.17 8-.17h.65v1.44h-.65c-2.65-.01-5.32.05-7.94.16z"/><circle class="cls-1" cx="176.56" cy="203.11" r="172.25" transform="rotate(-45 176.551 203.11)"/><path class="cls-2" d="M188.76 377.51c-2 0-4 0-6-.09v-1.43c2.84.08 5.73.11 8.58.07v1.43c-.81.02-1.69.02-2.58.02zm11.3-.33l-.09-1.43c2.84-.17 5.72-.41 8.55-.7l.15 1.42c-2.85.3-5.75.54-8.61.71zm-25.91-.18a189.6 189.6 0 01-8.6-.86l.18-1.42c2.82.34 5.69.63 8.53.85zm43.09-1.58L217 374c2.82-.43 5.66-.93 8.44-1.48l.28 1.41c-2.8.56-5.67 1.06-8.51 1.49zm-60.24-.57c-2.83-.48-5.68-1-8.49-1.64l.31-1.4c2.78.61 5.61 1.15 8.42 1.63zm77.19-2.85l-.35-1.39c2.77-.69 5.56-1.45 8.28-2.25l.41 1.37c-2.75.82-5.55 1.58-8.34 2.27zm-94.08-.82c-2.77-.74-5.56-1.55-8.29-2.42l.43-1.36c2.71.85 5.48 1.66 8.23 2.39zm110.64-4.1l-.47-1.35c2.69-.93 5.39-1.95 8-3l.53 1.33c-2.66 1.07-5.39 2.08-8.1 3zM123.62 366c-2.7-1-5.41-2.06-8.06-3.18l.56-1.32c2.63 1.11 5.32 2.17 8 3.15zm143.16-5.29l-.59-1.3c2.58-1.18 5.17-2.43 7.71-3.72l.65 1.27c-2.56 1.31-5.17 2.57-7.77 3.75zm-159.12-1.43c-2.59-1.23-5.19-2.55-7.73-3.9l.68-1.27c2.52 1.35 5.1 2.65 7.66 3.88zm174.48-6.42l-.71-1.24c2.47-1.42 4.94-2.9 7.34-4.42l.77 1.22c-2.42 1.49-4.91 2.99-7.4 4.41zM92.39 351.1c-2.46-1.47-4.93-3-7.33-4.6l.79-1.19c2.38 1.57 4.83 3.1 7.28 4.55zm204.33-7.5l-.82-1.17c2.33-1.63 4.66-3.34 6.91-5.07l.88 1.14c-2.27 1.75-4.62 3.5-6.97 5.1zM78 341.58c-2.32-1.68-4.63-3.44-6.88-5.24l.9-1.12c2.23 1.78 4.52 3.53 6.82 5.2zm232.47-8.5l-.93-1.1c2.17-1.83 4.33-3.74 6.43-5.67l1 1.05c-2.19 1.95-4.37 3.87-6.55 5.72zm-246-2.29c-2.16-1.88-4.3-3.85-6.37-5.84l1-1c2.06 2 4.18 3.92 6.32 5.8zm258.66-9.44l-1-1c2-2 4-4.13 5.88-6.24l1.07 1c-1.92 2.13-3.91 4.24-5.93 6.29zM52 318.83c-2-2.08-3.93-4.23-5.81-6.4l1.08-.94c1.87 2.15 3.81 4.28 5.77 6.35zm282.7-10.32l-1.11-.91c1.81-2.2 3.59-4.48 5.3-6.76l1.14.86c-1.74 2.3-3.54 4.59-5.36 6.81zm-294-2.73c-1.78-2.24-3.53-4.56-5.21-6.89l1.17-.84c1.66 2.31 3.4 4.61 5.16 6.84zM345 294.66l-1.18-.81c1.6-2.35 3.17-4.78 4.66-7.21l1.22.75c-1.48 2.45-3.06 4.9-4.7 7.27zm-314.44-2.89c-1.56-2.4-3.09-4.87-4.55-7.34l1.24-.72c1.44 2.45 3 4.89 4.51 7.27zm323.52-11.85l-1.26-.69c1.38-2.5 2.72-5.06 4-7.62l1.29.64c-1.29 2.58-2.64 5.16-4.03 7.67zm-332.28-3c-1.34-2.53-2.63-5.13-3.86-7.71l1.3-.62c1.22 2.57 2.5 5.15 3.83 7.66zm339.94-12.5l-1.31-.57c1.14-2.62 2.24-5.29 3.26-7.95l1.34.51c-1 2.68-2.13 5.38-3.29 8zM14.45 261.3c-1.11-2.64-2.16-5.34-3.14-8l1.35-.49c1 2.67 2 5.35 3.11 8zM368 248.23l-1.36-.45c.89-2.7 1.74-5.46 2.51-8.2l1.38.39c-.77 2.76-1.63 5.54-2.53 8.26zM8.55 245.09c-.86-2.74-1.66-5.53-2.39-8.31l1.39-.37c.72 2.76 1.52 5.53 2.37 8.25zm364.08-13.49l-1.4-.33c.64-2.77 1.23-5.59 1.75-8.39l1.41.25c-.52 2.83-1.11 5.68-1.76 8.47zM4.16 228.37c-.59-2.8-1.14-5.66-1.61-8.49l1.45-.24c.47 2.81 1 5.65 1.6 8.43zm371.6-13.77l-1.43-.19c.39-2.81.72-5.68 1-8.52l1.43.13c-.26 2.86-.58 5.75-1 8.58zM1.34 211.33c-.34-2.85-.62-5.74-.83-8.61l1.43-.1c.21 2.84.48 5.72.82 8.54zm376-13.94l-1.44-.06c.13-2.84.2-5.73.2-8.57h1.43c0 2.86-.06 5.77-.19 8.63zM.07 194.09c0-1.76-.07-3.55-.07-5.33v-3.31h1.43v3.29c0 1.76 0 3.55.08 5.29zm376-7.34c0-2.84-.13-5.73-.29-8.57l1.44-.08c.16 2.87.25 5.77.28 8.64zM1.8 176.91l-1.43-.09c.18-2.87.43-5.77.74-8.61l1.42.15c-.3 2.82-.53 5.7-.73 8.55zm373.31-7.28c-.28-2.83-.64-5.69-1.06-8.51l1.42-.21c.42 2.84.78 5.72 1.07 8.58zM3.65 159.86l-1.42-.22c.44-2.84 1-5.7 1.52-8.51l1.41.29c-.57 2.78-1.07 5.58-1.51 8.44zm369-7.19c-.54-2.8-1.16-5.62-1.83-8.38l1.39-.34c.68 2.78 1.3 5.62 1.85 8.44zm-365.6-9.62l-1.39-.35c.7-2.78 1.47-5.58 2.29-8.33l1.38.41c-.82 2.73-1.59 5.51-2.28 8.27zm361.5-7c-.8-2.74-1.68-5.48-2.6-8.17l1.35-.47c.94 2.71 1.82 5.48 2.63 8.23zM12 126.61l-1.35-.48c.95-2.71 2-5.44 3.06-8.1l1.33.53a162.45 162.45 0 00-3 8zm351-6.82c-1-2.64-2.17-5.29-3.33-7.88l1.31-.59c1.17 2.61 2.3 5.28 3.36 7.94zm-344.57-9.12l-1.3-.59c1.2-2.62 2.47-5.23 3.79-7.79l1.28.66a189.62 189.62 0 00-3.77 7.72zM356 104.19c-1.29-2.53-2.65-5.07-4.05-7.55l1.25-.7c1.41 2.49 2.78 5 4.08 7.6zM26.31 95.41l-1.24-.71c1.43-2.49 2.94-5 4.49-7.4l1.21.77c-1.54 2.41-3 4.88-4.46 7.34zm321.21-6.12c-1.52-2.42-3.11-4.82-4.73-7.15l1.18-.82c1.63 2.35 3.23 4.77 4.76 7.2zm-312-8.35l-1.17-.82c1.65-2.35 3.38-4.69 5.14-7l1.14.87c-1.72 2.3-3.44 4.63-5.08 6.95zm302.2-5.73a193.75 193.75 0 00-5.35-6.7l1.1-.92c1.83 2.2 3.65 4.46 5.39 6.75zM46.07 67.39L45 66.46c1.85-2.19 3.79-4.36 5.75-6.46l1.05 1a150.17 150.17 0 00-5.73 6.39zm280.67-5.32c-1.93-2.1-3.93-4.18-5.94-6.18l1-1c2 2 4.05 4.11 6 6.23zm-269-7.22l-1-1c2-2 4.17-4 6.31-5.9L64 49c-2.08 1.88-4.19 3.85-6.23 5.85zM314.58 50c-2.12-1.92-4.3-3.81-6.49-5.62l.92-1.1c2.2 1.82 4.4 3.73 6.53 5.66zm-244-6.55l-.91-1.12c2.22-1.8 4.52-3.59 6.82-5.3l.86 1.16c-2.35 1.67-4.59 3.44-6.79 5.24zM301.36 39c-2.28-1.71-4.63-3.4-7-5l.81-1.19c2.36 1.62 4.73 3.32 7 5zm-217-5.82L83.52 32c2.38-1.6 4.83-3.16 7.28-4.65l.74 1.22c-2.43 1.51-4.86 3.07-7.21 4.65zm202.86-3.87c-2.42-1.5-4.91-3-7.4-4.35l.7-1.25c2.5 1.4 5 2.87 7.46 4.38zM99 24.32l-.69-1.26c2.51-1.37 5.09-2.71 7.66-4l.63 1.29c-2.6 1.28-5.15 2.65-7.6 3.97zM272.19 21c-2.55-1.28-5.17-2.5-7.77-3.66L265 16c2.62 1.16 5.26 2.4 7.83 3.68zm-157.86-4.2l-.57-1.31a178.5 178.5 0 018-3.25l.51 1.34c-2.66 1.01-5.33 2.09-7.94 3.22zm142.15-2.75c-2.66-1-5.38-2-8.09-2.92l.46-1.36c2.72.91 5.47 1.9 8.14 2.94zm-126.14-3.33l-.44-1.36c2.72-.9 5.51-1.74 8.27-2.5l.38 1.38c-2.74.76-5.5 1.6-8.21 2.48zM240.2 8.59c-2.74-.78-5.53-1.51-8.3-2.16l.33-1.4c2.79.66 5.6 1.39 8.36 2.18zm-93.33-2.45l-.32-1.4c2.79-.64 5.64-1.22 8.45-1.74l.26 1.41c-2.79.52-5.62 1.09-8.39 1.73zm76.64-1.49c-2.8-.52-5.64-1-8.46-1.38l.2-1.43c2.84.4 5.71.87 8.52 1.4zm-59.77-1.56l-.19-1.42c2.84-.38 5.73-.7 8.59-.95l.12 1.43c-2.83.25-5.7.57-8.52.94zm42.79-.82c-2.83-.27-5.71-.47-8.53-.61V.22c2.88.14 5.77.35 8.62.62zm-25.71-.67l-.06-1.43c2.64-.11 5.33-.17 8-.17h.65v1.44h-.64c-2.66 0-5.33.05-7.95.16z"/><path class="cls-3" d="M99.6 86.28h132.29v3.7H99.6z"/><path class="cls-4" d="M64.75 148.25L66 146.3a27.68 27.68 0 00-1.29-3l-.81.65.64-1c-.61-1.21-1.1-2-1.1-2a28 28 0 00-3.36 8.19l1.61 2.5-1.79-1.45a12.25 12.25 0 00-.09 1.48c0 5 1.62 9 3.64 9s3.64-4 3.64-9a15.4 15.4 0 00-.84-4.66z"/><path class="cls-4" d="M73.67 152.57l2.26-.48a28.58 28.58 0 001.23-3.09l-1-.12 1.16-.25c.42-1.28.61-2.16.61-2.16a27.65 27.65 0 00-8.17 3.41l-.62 2.9-.25-2.28a11.44 11.44 0 00-1.11 1c-3.53 3.52-5.24 7.53-3.82 9s5.44-.29 9-3.82a15.56 15.56 0 002.71-3.88z"/><path class="cls-5" d="M74.49 171.88c-5.25.34-11 0-17.07 0v-13.95a61.34 61.34 0 0017.07 0z"/><path class="cls-3" d="M220.62 176.26h70.95v92.01h-70.95zm-148.18 4.8h3.7v87.21h-3.7z"/><path class="cls-3" d="M38.81 169.97h252.76v7.39H38.81zm31.78 7.4h7.39v7.39h-7.39z"/><path class="cls-5" d="M261.68 181.61l-.42 1.67h-10.34l-.63-1.67h-26.35v17h64.3v-17h-26.56zm0 21.44l-.42 1.66h-10.34l-.63-1.66h-26.35v17h64.3v-17h-26.56zm0 21.43l-.42 1.66h-10.34l-.63-1.66h-26.35v17h64.3v-17h-26.56zm0 21.43l-.42 1.67h-10.34l-.63-1.67h-26.35v17h64.3v-17h-26.56z"/><path class="cls-3" d="M175.9 168.87h-21.8l.74-9.61h20.32l.74 9.61z"/><path class="cls-3" d="M152.99 167.76h24.39v2.22h-24.39z"/><path class="cls-5" d="M206.76 97.36h-83.33a2.23 2.23 0 00-2.22 2.22v50.81H209V99.58a2.23 2.23 0 00-2.22-2.22z"/><path class="cls-3" d="M121.21 150.39v8.32a2.22 2.22 0 002.22 2.21h83.33a2.22 2.22 0 002.22-2.21v-8.32z"/><path class="cls-1" d="M125.65 101.98h79.08v44.34h-79.08z"/><path class="cls-5" d="M165.19 153.35a2.22 2.22 0 11-2.22 2.21 2.21 2.21 0 012.22-2.21zm-13.9-38.85h21.32v1.22h-21.32z"/><path class="cls-4" d="M151.29 118.96h32.93v1.22h-32.93zm0 4.21h26.83v1.22h-26.83z"/><path class="cls-5" d="M151.29 127.36h15.67v1.22h-15.67zm0 4.19h23.64v1.22h-23.64zm-9.72-17.49h2.61v2.61h-2.61z"/><path class="cls-4" d="M141.57 118.27h2.61v2.61h-2.61zm0 4.21h2.61v2.61h-2.61z"/><path class="cls-5" d="M141.57 126.68h2.61v2.61h-2.61zm0 4.21h2.61v2.61h-2.61z"/><path class="cls-4" d="M201.06 112.18h-11.19a39.31 39.31 0 010-13.34h11.19a24.1 24.1 0 000 13.34z"/><path class="cls-6" d="M118.45 143.08S115.37 155 113.61 156s14.1 2.47 14.1 2.47-.44-11.38.44-12.37-9.7-3.02-9.7-3.02z"/><path class="cls-5" d="M146.82 206.79s28.14-2 31.89 5.44-2.34 45.94-2.34 45.94h-11.88l-.16-30.6s-50.66-11.39-50.66-15.35 33.15-5.43 33.15-5.43z"/><path class="cls-5" d="M176.15 257l6.82 2.73s8.2-.68 4.78 5.46a13.51 13.51 0 01-9.56 6.83s-13 4.78-13.65 0 3.46-14.34 3.46-14.34zm-44.96-50.21s28.13-2 31.89 5.44-2.08 46.66-2.08 46.66h-11.85l-.46-31.32S112.74 221 112.74 217c0-1.86-2.45-11.31 1.86-13.3 4.88-2.23 16.59 3.09 16.59 3.09z"/><path class="cls-5" d="M159.08 257l6.82 2.73s8.2-.68 4.78 5.46a13.47 13.47 0 01-9.55 6.83s-13 4.78-13.66 0 3.42-14.34 3.42-14.34zM119.1 149l-5.1-1.2a13.1 13.1 0 01-13.11-13.08 12.69 12.69 0 01.25-2.61A17.14 17.14 0 01118.25 115a17.13 17.13 0 0117.15 17.11A13.6 13.6 0 01119.1 149z"/><path class="cls-6" d="M124.66 125.67a12.58 12.58 0 11-12.58 12.58 12.58 12.58 0 0112.58-12.58z"/><path class="cls-5" d="M100.24 111.76a8.13 8.13 0 11-8.13 8.13 8.13 8.13 0 018.13-8.13z"/><path class="cls-5" d="M107.74 115.52a8.13 8.13 0 00-8.13-8.11 7.82 7.82 0 00-1.6.16 8.12 8.12 0 116.99 14.68 7.93 7.93 0 01-1.87.63 8.15 8.15 0 004.61-7.36zm6.97 4.61l11-2 8.43 5.28a12.78 12.78 0 015.86 12.46l-8.44-2.14-1.91-4.73-2.25 3.69-11.77 15.14-6.6-4.2-5.89-9.23z"/><path class="cls-7" d="M112.31 153.73l14.87 1.62a11 11 0 019.53 8.63l5.78 20.11s2 27.21-2 28.7-9.4-5.94-16.82-4.95-17.08 3.22-17.08 3.22-1.53-41.46-1.73-45.45c-.38-7.96 7.45-11.88 7.45-11.88z"/><path class="cls-8" d="M128.05 170.25s3.1 12.77 4.95 19.22 9.84 8.82 9.84 8.82l.18 19.05-11.47-22.42z"/><path class="cls-5" d="M91.1 276.18l-1.75-.6 16.92-50.26 2.45.84-17.62 50.02zm64.67 0l1.74-.6-16.92-50.26-2.44.84 17.62 50.02zm-35.76 10.38h1.85l.58-58.75h-2.59l.16 58.75z"/><path class="cls-4" d="M86.82 195.79l5.07 20.48a16.25 16.25 0 0011.84 11.88 86.45 86.45 0 0043-.28l7.57-2a10.68 10.68 0 008-9.47 9.4 9.4 0 00-.85-4.67l-.09-.19a12.36 12.36 0 00-10.74-6.94l-8-.26-29.2-12.93s-10-5.1-18.29-5.67a8.09 8.09 0 00-8.31 10.05z"/><path class="cls-3" d="M235.95 131.36h28.82v39.17h-28.82z"/><path class="cls-1" d="M239.28 135.88h22.17v30.13h-22.17z"/><path class="cls-5" d="M248 143.76h10.74v1.22H248zm-6.02-.67h2.61v2.61h-2.61zm6.02 5.85h10.74v1.22H248zm-6.02-.68h2.61v2.61h-2.61zm6.02 5.85h10.74v1.22H248zm-6.02-.68h2.61v2.61h-2.61zm8.38-20.96a1.1 1.1 0 011.11 1.11 1.1 1.1 0 01-1.11 1.1 1.1 1.1 0 01-1.1-1.1 1.1 1.1 0 011.1-1.11z"/><path class="cls-4" d="M178.12 165.62A4.34 4.34 0 11174 170a4.24 4.24 0 014.13-4.33zm0 7a2.67 2.67 0 10-2.54-2.67 2.61 2.61 0 002.54 2.67z"/><path class="cls-4" d="M194 162.28h-15.88v15.4a3.19 3.19 0 003.11 3.27h9.66a3.2 3.2 0 003.11-3.27v-15.4z"/><path class="cls-9" d="M181 162.28v15.42a3.17 3.17 0 003.09 3.25h-1.58a3.18 3.18 0 01-3.1-3.25v-15.42z"/><path class="cls-4" d="M186.25 151.86c-.18.25-1.86 2.36-2 2.65a1.63 1.63 0 000 1c.11.2.77 1.76.94 2.09a2.1 2.1 0 01-.55 2.48c-.16.21-.05.42.09.3a21.65 21.65 0 002-2.82 1.06 1.06 0 000-1.14 16.68 16.68 0 01-.88-2.19c-.25-1-.2-1.19.49-2.2.19-.22.12-.48-.09-.17zm3.14 2.03c-.13.19-1.29 1.76-1.36 2a1.33 1.33 0 000 .72c.08.15.53 1.31.65 1.56a1.67 1.67 0 01-.37 1.85c-.12.16 0 .32 0 .22a15.75 15.75 0 001.42-2.1.88.88 0 000-.86 13.68 13.68 0 01-.6-1.63c-.18-.72-.14-.89.34-1.64.11-.16.06-.35-.08-.12zm-6.77 0c-.12.19-1.29 1.76-1.35 2a1.33 1.33 0 000 .72c.07.15.53 1.31.65 1.56a1.66 1.66 0 01-.38 1.85c-.12.16 0 .32.06.22a15.7 15.7 0 001.41-2.1.85.85 0 000-.86 12.14 12.14 0 01-.6-1.63 1.57 1.57 0 01.33-1.64c.08-.16.03-.35-.12-.12z"/><path class="cls-6" d="M156.79 178l7.82-8.07s10.94-5.82 12.16 2.73c1.45 10.16-11.43 6-11.43 6l-9.8 4.54z"/><path class="cls-6" d="M168.21 168.87s9.48-4.86 8.62-1.49-7.36 5.23-7.36 5.23z"/><path class="cls-7" d="M123.84 158l4.95-2.48s10.39 1.49 12.37 8.41c1 3.38 6.4 17.45 6.4 17.45l11.79-7.62 7.08 6.53s-10 11.25-16.33 16.33c-5.9 4.72-15.24-1.45-15.24-1.45z"/><path class="cls-3" d="M684.61 364c-33.1 4.49-64.68 6.13-93.9 3.37a226.46 226.46 0 01-30.81-5.29c-18.58-4.4-41.38-4.4-66.44-2.06a191.12 191.12 0 00-44.73 9.49c-19.42 6.72-40.69 6.14-63.25.51a115.51 115.51 0 01-26.55-10.57c-16.49-8.86-36-5.65-57.28 4.55V158.3c19.86-8.64 39.2-10 57.93-2.75a122.15 122.15 0 0021.1 6.29A166.12 166.12 0 00459 158.3c34.44-11.66 70.46-8 106.94 0 40.64 8.59 80.25 9.09 118.63 0z"/><path class="cls-6" d="M623 310.17s-30.23-5.56-26.4 6.25 29.07 4.16 29.07 4.16z"/><path class="cls-1" d="M684.61 364c-33.1 4.49-64.68 6.13-93.9 3.37a226.46 226.46 0 01-30.81-5.29c-18.58-4.4-41.38-4.4-66.44-2.06a191.12 191.12 0 00-44.73 9.49c-19.42 6.72-40.69 6.14-63.25.51a115.51 115.51 0 01-26.55-10.57c-16.49-8.86-36-5.65-57.28 4.55V158.3c19.86-8.64 39.2-10 57.93-2.75a122.15 122.15 0 0021.1 6.29A166.12 166.12 0 00459 158.3c34.44-11.66 70.46-8 106.94 0 40.64 8.59 80.25 9.09 118.63 0z"/><path class="cls-10" d="M353.92 298a14.5 14.5 0 00-10.09-4.12c-8.08 0-13.54 6-13.54 14.16 0 7.86 5.68 13.93 13.6 13.93a14.73 14.73 0 0010-4.29v6.74a20.26 20.26 0 01-10.2 2.79 18.62 18.62 0 01-13.15-5.13 18.23 18.23 0 01-6-14.05 19.44 19.44 0 016-14.54c3.84-3.62 8.3-4.85 13.43-4.85a17.6 17.6 0 019.92 2.68zm8.08 5h5.46v2.12a9.17 9.17 0 012.29-2 6.25 6.25 0 013.34-.78 8.09 8.09 0 014.29 1.11l-2.23 5a4.91 4.91 0 00-2.78-.83 4.24 4.24 0 00-3.4 1.28c-1.51 1.62-1.51 3.84-1.51 5.41v12.15H362V303zm40.38 18.16a12.35 12.35 0 01-3.95 4.29 13 13 0 01-6.91 1.78 10.4 10.4 0 01-7.92-3 12.59 12.59 0 01-3.46-9 13.78 13.78 0 013.74-9.65 10.68 10.68 0 017.86-3.17 10.09 10.09 0 017.52 3.06c3 3.12 3.29 7.47 3.29 9.92v.67h-16.83a7.75 7.75 0 002 4.74 5.61 5.61 0 004.18 1.51 5.8 5.8 0 003.74-1.17 8.51 8.51 0 002.17-2.57zm-5.4-9.54a5.68 5.68 0 00-1.67-3.17 5.71 5.71 0 00-7.53.16 6.19 6.19 0 00-1.67 3zm29.59-8.62H432v23.47h-5.46v-2.46a9 9 0 01-7 3.18c-7.24 0-11.36-6-11.36-12.48 0-7.64 5.23-12.32 11.42-12.32a8.55 8.55 0 017 3.34V303zm-12.83 11.82c0 4.07 2.57 7.47 6.53 7.47 3.46 0 6.63-2.51 6.63-7.42 0-5.12-3.17-7.58-6.63-7.58-4 0-6.53 3.35-6.53 7.53m33.17-6.76v18.45h-5.46v-18.45h-2.29v-5.02h2.29v-8.58h5.46v8.58h4.18v5.02h-4.18zm33.79 6.74a12.55 12.55 0 01-25.09 0c0-7.25 5.47-12.37 12.54-12.37s12.55 5.12 12.55 12.37m-5.58.06c0-5.35-3.51-7.53-7-7.53s-7 2.18-7 7.53c0 4.51 2.67 7.47 7 7.47s7-3 7-7.47m13.2-11.86h5.47v2.12a9.13 9.13 0 012.28-2 6.26 6.26 0 013.35-.78 8.11 8.11 0 014.29 1.11l-2.23 5a4.94 4.94 0 00-2.79-.83 4.24 4.24 0 00-3.4 1.28c-1.5 1.62-1.5 3.84-1.5 5.41v12.15h-5.47V303zm25.13-15.57l4.91 1.9-6.91 13.77-3.68-1.51 5.68-14.16zm12.32 21.8a4 4 0 00-3.35-2 2.28 2.28 0 00-1.67.62 1.73 1.73 0 00-.5 1.22 1.52 1.52 0 00.78 1.34c.33.22.67.33 1.84.94l2.78 1.4a11.26 11.26 0 013.3 2.17 5.8 5.8 0 011.72 4.35 7.79 7.79 0 01-2.06 5.35 8.38 8.38 0 01-6.58 2.62 8.08 8.08 0 01-5.07-1.5 9.17 9.17 0 01-3-4.3l4.46-2.11a6.26 6.26 0 001.28 2.23 3.37 3.37 0 002.4.89 3.31 3.31 0 002.23-.78 2.8 2.8 0 00.78-1.84 2.56 2.56 0 00-.73-1.79 7.56 7.56 0 00-2.34-1.45l-2-.94a11.54 11.54 0 01-3.23-2 5.1 5.1 0 01-1.67-4 7.35 7.35 0 012-5 7.54 7.54 0 015.74-2.23 7.37 7.37 0 014.35 1.22 8 8 0 012.67 2.9zM592.36 298a14.51 14.51 0 00-10.09-4.12c-8.08 0-13.54 6-13.54 14.16 0 7.86 5.68 13.93 13.6 13.93a14.75 14.75 0 0010-4.29v6.74a20.26 20.26 0 01-10.2 2.79A18.6 18.6 0 01569 322.1a18.23 18.23 0 01-6-14.05 19.41 19.41 0 016-14.54c3.84-3.62 8.3-4.85 13.43-4.85a17.6 17.6 0 019.92 2.68V298zm23.57 5h5.46v23.47h-5.46v-2.46a9 9 0 01-7 3.18c-7.24 0-11.37-6-11.37-12.48 0-7.64 5.24-12.32 11.43-12.32a8.55 8.55 0 017 3.34V303zm-12.82 11.82c0 4.07 2.56 7.47 6.52 7.47 3.46 0 6.63-2.51 6.63-7.42 0-5.12-3.18-7.58-6.63-7.58-4 0-6.52 3.35-6.52 7.53m33.37-6.76v18.45H631v-18.45h-2.34v-5H631v-8.16c0-3.62 1-5.9 2.29-7.36a7.37 7.37 0 015.57-2.28 8.83 8.83 0 013.52.67v5.41a4.73 4.73 0 00-2.62-.84 3.17 3.17 0 00-2.4.89 3.89 3.89 0 00-.89 2.79V303h5.91v5zm31.52 13.1a12.47 12.47 0 01-4 4.29 12.94 12.94 0 01-6.91 1.78 10.42 10.42 0 01-7.92-3 12.58 12.58 0 01-3.45-9 13.77 13.77 0 013.73-9.65 10.7 10.7 0 017.86-3.17 10.09 10.09 0 017.52 3.06c3 3.12 3.29 7.47 3.29 9.92v.67h-16.84a7.76 7.76 0 002 4.74 5.59 5.59 0 004.18 1.51 5.77 5.77 0 003.73-1.17 8.55 8.55 0 002.18-2.57zm-5.41-9.54a5.62 5.62 0 00-1.67-3.17 5.25 5.25 0 00-3.68-1.34 5.31 5.31 0 00-3.85 1.5 6.19 6.19 0 00-1.67 3z"/><path class="cls-4" d="M450.19 250.83a17.57 17.57 0 0012.22-2.13v-5.9a12.91 12.91 0 01-8.77 3.75 12 12 0 01-5.75-1.4 10.88 10.88 0 001.45 4.27zm3.4-28.83a12.67 12.67 0 018.82 3.61v-5.85a15.39 15.39 0 00-8.67-2.34c-4.49 0-8.39 1.07-11.76 4.24a17 17 0 00-5.21 12.72 16.08 16.08 0 002.83 9.55v-.27a20.45 20.45 0 011-6.51l1.14-3.41c.26-6.85 4.99-11.74 11.85-11.74zm48.59-53.54c-.66.94-6.85 8.66-7.18 9.73a5.79 5.79 0 00.1 3.52c.39.75 2.82 6.46 3.46 7.69 2.06 4.06-.28 6.86-2 9.07-.61.77-.18 1.55.3 1.1a76.51 76.51 0 007.53-10.34 3.93 3.93 0 00-.18-4.19 62.51 62.51 0 01-3.21-8c-1-3.54-.75-4.35 1.79-8.07.43-.68.21-1.62-.61-.51zm11.5 7.45c-.46.7-4.73 6.47-5 7.27a4.76 4.76 0 00.07 2.64c.27.56 1.95 4.82 2.39 5.74 1.43 3-.19 5.13-1.39 6.78-.43.57-.13 1.16.2.82a56.71 56.71 0 005.2-7.73 3.14 3.14 0 00-.12-3.13 47.1 47.1 0 01-2.22-6c-.65-2.65-.51-3.25 1.24-6 .35-.52.17-1.22-.37-.39zm-24.83 0c-.45.7-4.71 6.47-5 7.27a4.67 4.67 0 00.07 2.64c.27.56 1.95 4.82 2.38 5.74 1.44 3-.18 5.13-1.38 6.78-.43.57-.13 1.16.2.82a57.64 57.64 0 005.2-7.73 3.14 3.14 0 00-.12-3.13 47.1 47.1 0 01-2.22-6c-.65-2.65-.51-3.25 1.23-6 .37-.52.18-1.22-.36-.39zm-12.21 78.7c-1.36-3.12-1.93-12-.45-21l.08-.54-7.74 5.48v.11c-.39 6.12-.73 11.41.83 16.78a18.81 18.81 0 009.6 11.64 53.53 53.53 0 003.83-5.89 14.09 14.09 0 01-6.15-6.58z"/><path class="cls-10" d="M466.85 234.87a12.67 12.67 0 00-8.82-3.61c-7.07 0-11.85 5.22-11.85 12.38 0 6.88 5 12.19 11.89 12.19a12.91 12.91 0 008.78-3.75V258a17.76 17.76 0 01-8.92 2.44 16.31 16.31 0 01-11.51-4.49 16 16 0 01-5.21-12.29 17 17 0 015.21-12.72c3.36-3.17 7.27-4.24 11.75-4.24a15.42 15.42 0 018.68 2.34zm59.15-19.4l-.06-.16h-.18c-.17 0-17.29 2.59-25.52 2.59-5.73 0-13.8-.24-19.7-1.37-2.92-.56-4.66-1.37-4.66-2.16 0-1.11 1.84-1.9 5.18-2.23 1.77-.18 10-.83 16.12-.94h1.3c7.6 0 19.8 1 19.92 1h.1l5.39-5-.48-.06a228.86 228.86 0 00-24.07-1.64h-2.33c-5.8.14-14.1.77-17.37 1.22-4.39.6-9.5 2.92-9.48 7.49 0 3.41 3.12 5.73 9.48 7.08a101.43 101.43 0 0020.07 1.89 158.35 158.35 0 0020.82-1.59c.19.61.39 1.33.6 2.11l5.8-5.6a19.2 19.2 0 00-.93-2.63zm-3.42 37.29c-.81 3.44-4.36 11.18-19.57 12a3.72 3.72 0 01-1.44 1.67c-1.65 1-3.68 1.39-6.86 1.89a23 23 0 00-5.73 2.1 64.84 64.84 0 0011.42.93h.6c18.8-.13 25.23-10.6 27.38-16.83 2.22-6.39 1.92-13.72 1.5-18.63L524 241a49.47 49.47 0 01-1.42 11.76z"/><path class="cls-5" d="M497.66 248.59l6.67 7.32 2.79-2.41-6.81-7.47-2.65 2.56zm10.87 3.68l46.84-40.59a2.13 2.13 0 00-.07-3l-6.07-6.68a2.14 2.14 0 00-3-.35l-44.59 43.06zm-6.53 9.21a14.43 14.43 0 01.88-4.23l-2.22-2.44-2.23-2.45-2.22-2.44s-1 .64-4.3.47c-1.43-.07-2.86-.15-3.74 1s-1.5 2.54-2.05 5.68c-1 5.7-9.17 15.1-9.17 15.1l.6.7 7.18-6.52a1.19 1.19 0 01.35-1.42 1.24 1.24 0 011.67 1.84 1.19 1.19 0 01-1.44.2l-7.17 6.53.69.74s10.53-6.76 15.64-7.55c3.19-.49 4.91-.81 6.25-1.66s1.13-2.17 1.28-3.55z"/><path class="cls-5" d="M679.63 159.41V358c-33.1 4.49-64.68 6.13-93.91 3.37a227.88 227.88 0 01-30.8-5.29c-18.58-4.4-41.39-4.4-66.45-2.06a190.43 190.43 0 00-44.72 9.49c-19.42 6.72-40.7 6.14-63.25.51a115.4 115.4 0 01-26.56-10.57c-15.19-8.17-32.95-6.08-52.29 2.28V364c21.27-10.2 40.79-13.41 57.28-4.55A115.51 115.51 0 00385.48 370c22.56 5.63 43.83 6.21 63.25-.51a191.12 191.12 0 0144.73-9.49c25.06-2.34 47.86-2.34 66.44 2.06a226.46 226.46 0 0030.81 5.29c29.22 2.76 60.8 1.12 93.9-3.37V158.3c-1.61.4-3.32.75-4.98 1.11z"/><path transform="rotate(-30 443.285 134.558)" fill="#ff6584" d="M433.46 124.69h19.73v19.74h-19.73z"/><path class="cls-2" transform="rotate(-30 382.033 222.605)" d="M372.13 212.72h19.73v19.73h-19.73z"/><path transform="rotate(-30 613.512 198.35)" fill="#d0cde1" d="M603.67 188.49h19.73v19.73h-19.73z"/><path class="cls-3" d="M727.32 269.65l-1.52-.94-.43-.28a14.47 14.47 0 001.46-28.2l.07 6-3.27-6.48a14.47 14.47 0 00-15.13 13.78v.82a17.27 17.27 0 01-2.86-4.22c-1.39-3.1-1.41-6.6-1.3-10.86.21-8.44.58-16.94 1.05-25.42a14.45 14.45 0 0012.85-13.69v-1.64c0-.42-.07-.83-.14-1.24a1.2 1.2 0 000-.2c-.06-.35-.13-.69-.21-1 0-.13-.07-.26-.1-.38-.1-.37-.22-.73-.34-1.09l-.14-.36c-.11-.26-.22-.52-.34-.78s-.12-.27-.19-.4a.54.54 0 00-.05-.11 14.46 14.46 0 00-17-7.34l.1 7.77-3.24-6.42a14.41 14.41 0 00-6.9 15.6c0 .1 0 .2.08.3s.09.38.14.57.15.48.23.73l.18.53c.1.25.22.5.33.75s.12.3.19.44a11.72 11.72 0 00.6 1.1c.07.12.16.24.24.36s.31.48.48.71l.33.42.48.59c.12.14.24.27.37.4s.36.37.55.55.24.24.38.35.43.37.66.54.22.19.34.27c.34.24.69.49 1.06.73l.21.11c.3.18.62.36.93.51l.42.19c.26.12.53.23.8.33l.48.17c.27.09.54.18.81.25l.48.12.91.19h.05q-.29 5.35-.53 10.73a14.47 14.47 0 00-19.33-6.68c-.26.12-.51.26-.75.39l2.56 7-5.27-5a14.42 14.42 0 00-4.68 10 14 14 0 00.37 4 14.46 14.46 0 0026.6 4v1.09c-.1 3.75-.22 8.43 1.66 12.6a25.52 25.52 0 005.32 7.19c1.31 1.34 2.67 2.64 4.06 3.89a14.48 14.48 0 005.23 4.35q3.44 2.65 7.12 5l1.53 1c1.38.85 2.79 1.73 4.18 2.64l-.73-.06a14.47 14.47 0 00-14.25 9.42l9 7.36-9.94-2.31a14.47 14.47 0 0020.76 13l-.67.83q-.66.84-1.32 1.65c-5.88 7.46-7.52 14.53-4.61 19.92l3.55-1.91c-2.84-5.25 1.43-12 4.22-15.51l1.3-1.62c3.76-4.67 8-10 7.91-16.46-.25-10.02-9.71-15.91-17.39-20.64zm195.49 10.85l1.9-1.18c.18-.11.35-.24.54-.35a18 18 0 01-15-17 17.77 17.77 0 011.56-8.22 18.06 18.06 0 0111.6-10l-.09 7.44 4.08-8.09h.05a18.06 18.06 0 0118.88 17.19v1a21.59 21.59 0 003.57-5.27c1.73-3.87 1.76-8.22 1.63-13.54-.27-10.53-.73-21.14-1.32-31.71a18 18 0 01-16-17.09v-1.63a2.82 2.82 0 010-.41c0-.52.08-1 .16-1.55v-.25c.08-.43.17-.86.27-1.28l.12-.48c.13-.46.27-.92.43-1.37 0-.14.12-.29.17-.44q.2-.49.42-1c.08-.17.15-.34.24-.51l.06-.12a18 18 0 0121.2-9.16l-.12 9.67 4-8a18 18 0 018.61 19.46c0 .13-.07.24-.1.38l-.18.71c-.09.3-.18.6-.28.89s-.15.45-.25.67-.26.63-.4.93-.15.37-.24.55c-.23.47-.48.93-.74 1.37l-.3.45c-.19.3-.39.6-.6.89s-.27.35-.41.52-.39.5-.61.74l-.45.5c-.22.24-.45.46-.69.68s-.31.3-.48.44-.54.46-.83.68c-.14.11-.27.23-.42.33q-.64.48-1.32.9l-.27.14a13 13 0 01-1.16.63l-.52.25-1 .41c-.19.07-.39.15-.59.21s-.67.22-1 .31l-.61.16c-.37.09-.74.16-1.12.23h-.08q.38 6.71.67 13.39a18 18 0 0124.21-8.19l.94.49-3.19 8.73 6.56-6.3a18 18 0 015.88 12.46 17.69 17.69 0 01-.46 5 18.06 18.06 0 01-33.2 4.92v1.36c.12 4.69.28 10.52-2.06 15.73a31.52 31.52 0 01-6.65 9q-2.46 2.52-5.08 4.86a18 18 0 01-6.53 5.42c-2.86 2.2-5.82 4.28-8.88 6.19l-1.91 1.19c-1.72 1.06-3.48 2.16-5.21 3.29.31 0 .61-.06.92-.07a18.05 18.05 0 0117.76 11.75l-11.28 9.19 12.41-2.88a18.07 18.07 0 01-25.89 16.26c.29.35.56.7.84 1.05-5.12-1.33-.7-3.87-.16-3.19 7.34 9.29-20.57-31.55-24.21-24.83l-4.37-2.4c3.53-6.55 14.73 26.66 11.24 22.25-.53-.67 4.89 5.64 4.35 5-4.69-5.83-.73-6.08-.6-14.18.21-12.32 12.06-19.67 21.59-25.57z"/><path d="M825.32 315.64c68.63 0 124.27 3 124.27 6.65s-55.64 6.65-124.27 6.65-124.26-3-124.26-6.65 55.64-6.65 124.26-6.65z" fill="#f5f5f5"/><path class="cls-8" d="M825.08 314.91c61.42 0 111.21 2.39 111.21 5.32s-49.79 5.32-111.21 5.32-111.2-2.38-111.2-5.32 49.79-5.32 111.2-5.32z"/><path class="cls-5" d="M931 191.06v127.78a1.74 1.74 0 01-1.74 1.75H721.42a1.74 1.74 0 01-1.74-1.74V191.06a1.73 1.73 0 011.73-1.74h207.81a1.74 1.74 0 011.75 1.74z"/><path class="cls-3" d="M931 190.48v3.92H719.68v-3.92a1.16 1.16 0 011.16-1.16h209a1.16 1.16 0 011.16 1.16z"/><path class="cls-5" d="M723.54 190.53a1.21 1.21 0 11-1.2 1.21 1.21 1.21 0 011.2-1.21zm3.39 0a1.21 1.21 0 11-1.21 1.21 1.21 1.21 0 011.21-1.21zm3.38 0a1.21 1.21 0 11-1.21 1.21 1.21 1.21 0 011.21-1.21z"/><path d="M793.17 207.09h64.31v3.38h-64.31zm-53.43 34.33h49.56v58.02h-49.56zm60.69 0h49.56v58.02h-49.56zm60.68 0h49.56v58.02h-49.56z" style="isolation:isolate" opacity=".2" fill="#e6e6e6"/><path class="cls-6" d="M762.31 270.91c-.15.87-1 1.42-1.83 1.76a5 5 0 00-2.25 1.34 3.06 3.06 0 00.24 3.36 11.65 11.65 0 002.95 2.82 5.58 5.58 0 001.6.93 4.77 4.77 0 001.36.14 24.88 24.88 0 004.39-.39c1.86-.34 3.85-1 4.83-2.63a7.8 7.8 0 00.68-4.52 5.56 5.56 0 01-2.4-1 4.3 4.3 0 01-2.12-2.17c-.3-1 .18-2.33-.53-3.15a2.74 2.74 0 00-2-.63h-3c-.68 0-2.2-.29-2.76.17-1.05.76 1.02 2.86.84 3.97z"/><path class="cls-9" d="M762.31 270.91c-.15.87-1 1.42-1.83 1.76a5 5 0 00-2.25 1.34 3.06 3.06 0 00.24 3.36 11.65 11.65 0 002.95 2.82 5.58 5.58 0 001.6.93 4.77 4.77 0 001.36.14 24.88 24.88 0 004.39-.39c1.86-.34 3.85-1 4.83-2.63a7.8 7.8 0 00.68-4.52 5.56 5.56 0 01-2.4-1 4.3 4.3 0 01-2.12-2.17c-.3-1 .18-2.33-.53-3.15a2.74 2.74 0 00-2-.63h-3c-.68 0-2.2-.29-2.76.17-1.05.76 1.02 2.86.84 3.97z"/><circle class="cls-6" cx="765.64" cy="262.55" r="8.05"/><path class="cls-15" d="M780.5 280.53a2.89 2.89 0 01-.4 1.21 1.86 1.86 0 01-.21.28 6.28 6.28 0 01-1.49 1c-1.45.88-3.07 2-3.34 3.71a14 14 0 01-.37 1.55c-.34 1.15-.78 2.28-1 3.43a7.77 7.77 0 00-.21 2 4.6 4.6 0 000 .64 10.49 10.49 0 002 4.48l.33.45.07.1h-23.09c0-.15.08-.3.11-.45s0 0 0-.06c.23-.93.43-1.85.57-2.78a17.58 17.58 0 00.21-2.51 2.25 2.25 0 01.77-1.93l.12-.45a13.85 13.85 0 000-6.68c0-.13-.08-.27-.11-.4l-.06-.18c-.2-.65-.37-1.3-.51-2a6.4 6.4 0 00-.59-2.31 6 6 0 00-1.81-1.54 4.48 4.48 0 01-.85-.78 1.9 1.9 0 01-.46-1.11 2.19 2.19 0 010-.36 2.78 2.78 0 01.73-1.32 8.07 8.07 0 015.93-2.33h1a3 3 0 011.14.26 1.62 1.62 0 01.57.47 2.66 2.66 0 01.48.91 4.67 4.67 0 01.2.82 6.59 6.59 0 00.62 2.53c.82 1.34 2.7 1.59 4.25 1.3a9.55 9.55 0 006.58-4.84 9.25 9.25 0 01.49-.87 1.75 1.75 0 01.33-.39 13.43 13.43 0 015.89 2.66 6.22 6.22 0 011.4 1.45 5.76 5.76 0 01.71 4.04z"/><path class="cls-6" d="M781.23 295.13a7 7 0 01-.89 1.9 4.53 4.53 0 01-1 1.31 4.6 4.6 0 01-3.14.6h-.63l-3.12-.19a18.64 18.64 0 01-2.47-.26l-.64-.16a18.49 18.49 0 00-3.65-.88h-1.19a4.48 4.48 0 01-.73-.05c-.39-.05-.78-.18-1.19-.2a5 5 0 00-2.83 1.14l-.24.15a11.28 11.28 0 01-2 1h-4.19a1.12 1.12 0 01-.2-.18 2.48 2.48 0 01-.19-.26v-.06a2.19 2.19 0 010-1.87 3.68 3.68 0 01.61-.92 11.51 11.51 0 01.88-.83 12.68 12.68 0 015.59-2.9l.44-.07a19.36 19.36 0 013.14-.1h1l4.12.08h.11a11.67 11.67 0 004.9-.61c.19-.09.37-.19.55-.29a1 1 0 00.39-.33 1.26 1.26 0 00.11-.63v-9.46a2.09 2.09 0 01.59-1.76c.6-.76 2.07-3.43 3.11-3.47a.81.81 0 01.52.15c.88.58.89 2.82.91 3.58s.06 1.66.11 2.49a84.57 84.57 0 001.21 10.16 7.12 7.12 0 01.01 2.92z"/><path class="cls-9" d="M781.23 295.13a7 7 0 01-.89 1.9 4.53 4.53 0 01-1 1.31 4.6 4.6 0 01-3.14.6h-.63l-3.12-.19a18.64 18.64 0 01-2.47-.26l-.64-.16a18.49 18.49 0 00-3.65-.88h-1.19a4.48 4.48 0 01-.73-.05c-.39-.05-.78-.18-1.19-.2a5 5 0 00-2.83 1.14l-.24.15a11.28 11.28 0 01-2 1h-4.19a1.12 1.12 0 01-.2-.18 2.48 2.48 0 01-.19-.26v-.06a2.19 2.19 0 010-1.87 3.68 3.68 0 01.61-.92 11.51 11.51 0 01.88-.83 12.68 12.68 0 015.59-2.9l.44-.07a19.36 19.36 0 013.14-.1h1l4.12.08h.11a11.67 11.67 0 004.9-.61c.19-.09.37-.19.55-.29a1 1 0 00.39-.33 1.26 1.26 0 00.11-.63v-9.46a2.09 2.09 0 01.59-1.76c.6-.76 2.07-3.43 3.11-3.47a.81.81 0 01.52.15c.88.58.89 2.82.91 3.58s.06 1.66.11 2.49a84.57 84.57 0 001.21 10.16 7.12 7.12 0 01.01 2.92z"/><path class="cls-16" d="M760.33 249.79a2.51 2.51 0 00-1.84.88 4.21 4.21 0 00-.38 1.58 3.53 3.53 0 01-1.35 2.17c-.58.42-1.28.66-1.87 1.06a2 2 0 00-1 1.76c.07.62.56 1.1.8 1.69.43 1.07-.08 2.26-.55 3.32s-.92 2.29-.38 3.31 2 1.48 2.47 2.62c.52 1.37-.82 2.83-.65 4.3a2.86 2.86 0 002.53 2.23 2 2 0 001.65-.35 2.16 2.16 0 00.6-1.59c.07-2.23-1.2-4.28-1.57-6.49a3.46 3.46 0 01.2-2.16c.21-.42.55-.76.73-1.19.38-.89 0-2 .35-2.87a8.42 8.42 0 01.78-1.1 1.3 1.3 0 00.22-1.26 4.41 4.41 0 011.64 1.86c.52-.11.5-1.22 1-1.06.14 0 .23.19.32.31a1.42 1.42 0 001.52.4 3 3 0 001.34-1l.87 1.08a1 1 0 01.95-.61 2.32 2.32 0 011.13.39c1.64 1 2.88 3 2.25 4.81a20.62 20.62 0 01-1.2 2.15 2 2 0 00.13 2.29 4.26 4.26 0 01.38.35c.43.51.16 1.28.29 1.92.23 1.18 1.62 1.65 2.79 1.92a2.5 2.5 0 002.38-.27c.63-.66.34-1.74 0-2.57s-.82-1.79-.41-2.6 1.61-1.1 2-1.95c.55-1.07-.42-2.26-.81-3.41-.53-1.57.06-3.33-.37-4.94a7.14 7.14 0 00-1.22-2.23 14.38 14.38 0 00-4.72-4.3 9.12 9.12 0 00-5.6-.86c-1.81.26-3.61.14-5.4.41z"/><path class="cls-15" d="M774.79 284.21a.56.56 0 01-.27-.38q-.81-2.26-1.51-4.56a1.76 1.76 0 01-.12-.85 1.64 1.64 0 01.65-.88 9.84 9.84 0 012.65-1.56c.7-.27 1.72-.75 2.42-.31.86.55-.06 1.93-.38 2.66a27 27 0 01-1.45 2.9c-.16.29-1.78 3.07-1.99 2.98z"/><path class="cls-6" d="M776.18 298.94a2.35 2.35 0 01-.23.32l-.09.09-.11.09h-4.2a10.63 10.63 0 01-2-1l-.25-.15a5 5 0 00-2.83-1.14c-.4 0-.79.15-1.19.21a5.79 5.79 0 01-.72 0h-1.2a18.57 18.57 0 00-3.64.88l-.65.16a18.49 18.49 0 01-2.46.26l-3.67.22h-.08a4.64 4.64 0 01-3.15-.6 4.46 4.46 0 01-1-1.31 6.47 6.47 0 01-.89-1.9 7.06 7.06 0 01.14-3 85.31 85.31 0 001.31-12.65c0-.76 0-3 .92-3.58a.68.68 0 01.33-.13h.18c1 0 2.51 2.71 3.11 3.47a2.07 2.07 0 01.59 1.75v9.49a1.12 1.12 0 00.12.62.61.61 0 00.12.16 2.4 2.4 0 00.26.18c1.61 1 3.58.93 5.45.9h.11l4.13-.09h1a20.56 20.56 0 013.14.11l.44.07a11.42 11.42 0 014.42 2c.41.29.8.59 1.18.91a4.93 4.93 0 011.49 1.75 2.24 2.24 0 01-.08 1.91z"/><path class="cls-15" d="M754.5 284.21a.6.6 0 00.28-.38c.53-1.51 1-3 1.5-4.56a1.76 1.76 0 00.12-.85 1.64 1.64 0 00-.65-.88 9.68 9.68 0 00-2.65-1.54c-.69-.27-1.72-.75-2.41-.31-.86.55 0 1.93.37 2.66a27 27 0 001.45 2.9c.16.27 1.77 3.05 1.99 2.96z"/><path class="cls-16" d="M885.16 255.66c1.61-.39 2.85 2.27 4.47 2 .89-.17 1.57-1.22 2.47-1.14s1.46 1.48 2 2.51a4.62 4.62 0 004.52 2.62 3.18 3.18 0 00.17-2.77A9.74 9.74 0 01898 256c0-1.29.7-2.72.06-3.78-.5-.81-1.51-.87-2.25-1.37a9.64 9.64 0 01-1.48-1.57 4.83 4.83 0 00-3-1.58 9 9 0 00-2.86.3l-4.41 1a1.25 1.25 0 00-.69.31 2.36 2.36 0 00-.35.91c-.42 1.37-1.74 2-2.81 2.77s-2.09 2.27-1.49 3.55c.33.73 1.12 1.17 1.2 2a2.75 2.75 0 01-.88 1.86c-1.82 2.29 2.26 3.47 3.24 1.93 1.12-1.72.58-6.11 2.88-6.67z"/><path class="cls-6" d="M884.16 269.63a12.69 12.69 0 00-.84 1.31 3.82 3.82 0 00-.13 2.27 9.69 9.69 0 00.82 2.08 11.87 11.87 0 001.43 2.42 3.3 3.3 0 002.1 1.32 4.16 4.16 0 002.43-.84 2.61 2.61 0 00.88-.72 4 4 0 00.43-1l.66-2a7.17 7.17 0 00.38-1.55 7.05 7.05 0 00-.38-2.45l-1.21-4.22a1.56 1.56 0 00-.29-.64 1 1 0 00-.45-.24 10.48 10.48 0 00-2.34-.49c-.58-.05-1.92-.31-2.43.11s-.27 1.38-.33 2a6 6 0 01-.73 2.64z"/><path class="cls-9" d="M884.16 269.63a12.69 12.69 0 00-.84 1.31 3.82 3.82 0 00-.13 2.27 9.69 9.69 0 00.82 2.08 11.87 11.87 0 001.43 2.42 3.3 3.3 0 002.1 1.32 4.16 4.16 0 002.43-.84 2.61 2.61 0 00.88-.72 4 4 0 00.43-1l.66-2a7.17 7.17 0 00.38-1.55 7.05 7.05 0 00-.38-2.45l-1.21-4.22a1.56 1.56 0 00-.29-.64 1 1 0 00-.45-.24 10.48 10.48 0 00-2.34-.49c-.58-.05-1.92-.31-2.43.11s-.27 1.38-.33 2a6 6 0 01-.73 2.64z"/><circle class="cls-6" cx="888.43" cy="261.44" r="7.48" transform="rotate(-.77 893.415 262.726)"/><path class="cls-16" d="M903.07 278.66a13.34 13.34 0 01-1.42 5.32c-.74 1.69-1.67 3.36-2.38 5.1-.06.14-.12.29-.17.43q-1.85 4.77-3.27 9.69l-.07.24H875c1-3.62 1.76-7.25-.51-9.75l-.21-.24c-1.48-1.8-2.15-4.24-3.92-5.76a3 3 0 01-.92-.93c-.14-.3 0-.78 0-1.11s.66-1.23.69-1.51c.18-1.58 0-2.74 1-4a17 17 0 012.62-2.06 4.35 4.35 0 012.52-1.15c1.73-.4 3.64-.45 5-1.53a5.73 5.73 0 011-.73h.09a1 1 0 011 .11 1.35 1.35 0 01.35.73c.26.93.52 1.87.77 2.81a2.85 2.85 0 00.59 1.27c.68.71 2 .62 2.52 1.45.32.5 1.16-.08 1.52-.55a20.58 20.58 0 002.29-3.61 5.64 5.64 0 01.85-1.41 1.88 1.88 0 01.93-.57 1.35 1.35 0 01.53 0 2.52 2.52 0 011.26.93 28 28 0 007.44 5.91 1.25 1.25 0 01.54.45.89.89 0 01.09.39.71.71 0 01.03.08zM886 255.28c1.25-.27 2.21 1.53 3.47 1.31.69-.11 1.23-.8 1.92-.77s1.14 1 1.55 1.69a3.74 3.74 0 003.5 1.77 1.88 1.88 0 00.13-1.87 5.83 5.83 0 01-.56-1.87c0-.87.54-1.83 0-2.54-.38-.54-1.17-.59-1.75-.93a7.07 7.07 0 01-1.14-1 4 4 0 00-2.34-1.06 7.92 7.92 0 00-2.22.2l-3.43.64a1 1 0 00-.54.21 1.4 1.4 0 00-.27.61c-.33.92-1.35 1.35-2.18 1.87s-1.62 1.52-1.17 2.38c.27.49.88.79.94 1.35s-.35.89-.69 1.25c-1.41 1.53 1.76 2.33 2.53 1.29s.43-4.15 2.25-4.53z"/><path class="cls-16" d="M906.21 299.44h-5.65c.09-2.31-.85-4.67-1-7a16.82 16.82 0 00-.14-2.66c-.05-.23-.11-.45-.18-.67-.15-.44-.32-.88-.46-1.33a15.56 15.56 0 01-.41-4.67l.09-5.18c0-.45-.14-1.11.27-1.3.92-.43 1.88.42 2.72 1 .51.33 1.09.6 1.59 1a3.14 3.14 0 01.75.75 4.33 4.33 0 01.5 1.31q1 3.92 1.79 7.91a25.62 25.62 0 01.48 3.5c.18 2.38-.34 4.9-.35 7.34zm-35.12-2.69a4.32 4.32 0 00-.46 1.85 2.7 2.7 0 00.19.84h-5.12a18.54 18.54 0 01-.58-2.66c-.24-1.75.5-3 .73-4.78a26.73 26.73 0 011-4.69 35.34 35.34 0 011.65-4.56c.19-.37.36-.78.56-1.14.43-.8 2.07-5.87 3.17-5.34 2.76 1.33 2.86 10.47 2.09 13.18a14 14 0 01-.81 2q-1.3 2.63-2.42 5.3z"/><path class="cls-2" d="M828.3 250.84a2.82 2.82 0 011.48 1.26 10.71 10.71 0 01.42 1.69c.36 1.18 1.46 1.94 2.13 3a8.09 8.09 0 011 4.81 16.87 16.87 0 00.14 5c.19.79.53 1.54.66 2.34.17 1 0 2 .28 2.93a7.58 7.58 0 001.24 2.37l2.15 3.15a25.77 25.77 0 01-2.84-.86 5.09 5.09 0 001.53 2.33l-1.55-1.89a4.71 4.71 0 00-1.16-1.11 6.36 6.36 0 00-1.89-.5 4.41 4.41 0 01-3.08-2c-.8-1.48-.27-3.34-.74-5a18.31 18.31 0 00-1.7-3.25c-1.27-2.47-1.19-5.39-1.59-8.15a26.1 26.1 0 01-.44-3.51c0-.87.09-2.53 1-3s2.23.08 2.96.39z"/><path class="cls-6" d="M827.05 270.67c.11 1.27.38 2.76 1.52 3.29a7.87 7.87 0 002.12.3 4.42 4.42 0 013 2.44 10.72 10.72 0 011 3.91c.18 1.68.24 3.51-.68 4.92a5.72 5.72 0 01-3.36 2.21 9.4 9.4 0 01-7.83-1.45 17.64 17.64 0 01-2.88-2.85c-1.92-2.23-3.84-4.68-4.24-7.59a1 1 0 01.24-.93 1 1 0 01.62-.13h1.84a1.71 1.71 0 001.31-.35 1.59 1.59 0 00.28-1.21c0-1.77-.09-3.55-.14-5.33a.79.79 0 01.12-.54.69.69 0 01.43-.18 28.28 28.28 0 003.06-.28c.94-.26 2.42-1.34 3.12-.23.59.97.42 2.93.47 4z"/><path class="cls-9" d="M827.05 270.67c.11 1.27.38 2.76 1.52 3.29a7.87 7.87 0 002.12.3 4.42 4.42 0 013 2.44 10.72 10.72 0 011 3.91c.18 1.68.24 3.51-.68 4.92a5.72 5.72 0 01-3.36 2.21 9.4 9.4 0 01-7.83-1.45 17.64 17.64 0 01-2.88-2.85c-1.92-2.23-3.84-4.68-4.24-7.59a1 1 0 01.24-.93 1 1 0 01.62-.13h1.84a1.71 1.71 0 001.31-.35 1.59 1.59 0 00.28-1.21c0-1.77-.09-3.55-.14-5.33a.79.79 0 01.12-.54.69.69 0 01.43-.18 28.28 28.28 0 003.06-.28c.94-.26 2.42-1.34 3.12-.23.59.97.42 2.93.47 4z"/><path class="cls-6" d="M824 254.17a8 8 0 11-8.05 8.05 8.05 8.05 0 018.05-8.05z"/><path class="cls-4" d="M838.05 293.38a6.17 6.17 0 01-.2.85 18.58 18.58 0 01-.77 1.91c-.11.26-.22.51-.31.78s-.13.42-.18.63-.12.5-.16.76-.11.75-.15 1.13H818a11.75 11.75 0 00-.1-2.78 18.24 18.24 0 00-1.14-3.68 69.14 69.14 0 01-3.19-9.17 18.23 18.23 0 01-.44-6.2v-.37c0-.31.1-.62.17-.93a5.11 5.11 0 011.17-2.36 2.83 2.83 0 013.28-.76 3.32 3.32 0 011.36 1.61c.2.43.37.88.55 1.31a13.34 13.34 0 002.78 4.14 7.5 7.5 0 00.71.67c.24.21.45.39.69.58a5.25 5.25 0 002.72 1.38h3.4a3.19 3.19 0 003-1.3 3.92 3.92 0 00.25-2.28c-.06-.6-.11-1.21-.17-1.81v-.1l-.12-1.31-.06-.63-.05-.47.61-.06a4.55 4.55 0 012.64.4 3.47 3.47 0 011.5 2 7.58 7.58 0 01.38 1.81c.27 2.75-.16 5.52 0 8.27.06 1.95.46 4.02.11 5.98z"/><path class="cls-6" d="M842.24 299.44h-5.55c0-.63-.08-1.26-.1-1.89v-4.82a7.83 7.83 0 003.56 1 6.77 6.77 0 011.21 1.92 9.88 9.88 0 01.42 1.19 17.2 17.2 0 01.46 2.6z"/><path class="cls-4" d="M841.75 295.66a25.51 25.51 0 00-6.21.83 13.35 13.35 0 010-4l.9-9.24c.06-.68-.07-7 1.26-5.86.48.41 1.1 4.09 1.25 4.68.23.89.41 1.79.58 2.69.33 1.86.55 3.73.87 5.59.1.5.87 5.32 1.35 5.31z"/><path class="cls-2" d="M827 252a1.39 1.39 0 00-.17-.72 1.21 1.21 0 00-.86-.46c-1.16-.17-2.44.28-3.49-.24-.55-.28-1-.83-1.52-1.14-1.31-.74-3 0-4.12 1a12 12 0 00-3.86 5.88c-.52 1.78-.72 3.86-2.2 5a8 8 0 00-1.84 1.34 3.56 3.56 0 00-.49 1.66 11 11 0 00.08 4.05c.28 1 .79 1.87 1.11 2.83a7.53 7.53 0 01-2 7.81 2.47 2.47 0 001.8.31 1.49 1.49 0 01-.26.79c1.89-.06 3.52-1.89 5.37-1.49 1.4.31 2.19 1.76 3.24 2.74a4.86 4.86 0 005.15 1 3.72 3.72 0 002-4.61c-.83-1.94-3.35-2.71-4.23-4.64-.68-1.49-.17-3.23-.32-4.86a23.37 23.37 0 00-1.11-4.07 5 5 0 01.28-4.08c.81-1.25 2.37-1.74 3.79-2.22 3.17-1.05 3.79-2.67 3.65-5.88z"/><path class="cls-6" d="M823.37 279.63a5.42 5.42 0 000-3c-.66-1.75-2.81-2.29-4.3-3.42a5.8 5.8 0 01-1.91-2.54c-.27-.71-.3-1.7.36-2a1.7 1.7 0 01.83-.15 10.39 10.39 0 016.22 2.8 8.42 8.42 0 012.52 3.11 9.78 9.78 0 01.59 2.79l.37 3.15a51.8 51.8 0 01.41 5.43 23.08 23.08 0 01-.19 3.11 4.71 4.71 0 01-.66 2.09c-.81 1.12-2.35 1.38-3.73 1.42a7.3 7.3 0 01-1.55-.1c-2.29-.5-4-3.71-2.3-5.69.73-.84 1.85-.86 2.27-2a36 36 0 001.07-5z"/><path class="cls-4" d="M821.51 280.18l1.81 2.95a1.36 1.36 0 01.22.51c.05.38-.24.72-.47 1-1.55 2.13-1.16 5.06-.69 7.65a13.89 13.89 0 01-9.54-11.23c-.23-1.55-.59-4.09.78-5.1 3.3-2.39 6.38 1.69 7.89 4.22z"/><path class="cls-2" d="M830.69 274.26a7.92 7.92 0 01-2.12-.3c-1.14-.53-1.41-2-1.52-3.29v-.37a10.51 10.51 0 011.33-1.17 6.7 6.7 0 011.37-.6l1.27-.45a6.4 6.4 0 01.28 1c.14.85 0 1.73.24 2.56a6.72 6.72 0 001.08 2.07l1.88 2.74c-.34-.07-.68-.17-1-.26a4.28 4.28 0 00-2.81-1.93z"/><path class="cls-17" d="M709.91 322.45c.72-1.33-.1-3-1-4.15s-2.08-2.42-2.06-3.94c0-2.18 2.35-3.46 4.19-4.62a20.32 20.32 0 003.77-3 5.49 5.49 0 001.15-1.55 6.37 6.37 0 00.35-2.75c-.08-3.1-.24-6.2-.46-9.3"/><path class="cls-4" d="M719.32 293a3.41 3.41 0 00-1.7-2.78l-.76 1.5v-1.82a3.25 3.25 0 00-1.12-.13 3.38 3.38 0 103.55 3.23zm-6.06 22.91a3.38 3.38 0 11-1.45-4.56 3.42 3.42 0 011.62 1.83l-2.12 1.73 2.33-.54a3.31 3.31 0 01-.38 1.54zm-1.67-6.58a3.39 3.39 0 01-1.08-6.66v1.4l.77-1.52a3.39 3.39 0 013.56 3.2 3.28 3.28 0 01-.15 1.16 3.39 3.39 0 01-3.1 2.42zm8.24-5.47a3.39 3.39 0 11-.25-6.77 3.45 3.45 0 011.75.41l-.6 1.65L722 298a3.45 3.45 0 011.1 2.34 3.7 3.7 0 01-.09.94 3.39 3.39 0 01-3.18 2.58z"/><path class="cls-9" d="M718.86 293.85c-.79.09-1.55.33-2.33.38a2.54 2.54 0 01-2.15-.75c-.26-.33-.4-.75-.63-1.11a2.33 2.33 0 00-.85-.8 3.39 3.39 0 106.11 2.92 3.12 3.12 0 00.23-.67zm.97 10.01a3.38 3.38 0 01-3.23-4.86 2.45 2.45 0 01.68.68 10.36 10.36 0 00.67 1.12 2.77 2.77 0 002.25.79c.82 0 1.61-.27 2.42-.34h.35a3.41 3.41 0 01-3.14 2.61zm-8.24 5.47a3.39 3.39 0 01-3.55-3.21 3.27 3.27 0 01.3-1.57 2.78 2.78 0 01.72.69 12.26 12.26 0 00.73 1.14 3.12 3.12 0 002.4.84c.86 0 1.65-.22 2.48-.29a3.4 3.4 0 01-3.08 2.4z"/><path class="cls-9" d="M713.26 315.91a9.43 9.43 0 10-5.44-2.1c.33.39.54.84.91 1.21a4.25 4.25 0 002.81 1 14.06 14.06 0 001.72-.11z"/><path class="cls-4" d="M704.79 320.92s2.68-.09 3.49-.66 4.11-1.26 4.31-.34 4 4.59 1 4.61-7-.47-7.83-1-.97-2.61-.97-2.61z"/><path d="M713.65 324.21c-3 0-7-.49-7.83-1-.61-.37-.86-1.71-.94-2.33h-.09s.17 2.16 1 2.66 4.81 1 7.83 1c.87 0 1.17-.31 1.16-.77-.15.23-.48.43-1.13.44z" style="isolation:isolate" opacity=".2" fill="#8b8fbc"/><path class="cls-17" d="M933.72 319.16c1.27-2.37-.18-5.28-1.85-7.39s-3.7-4.31-3.66-7c.07-3.87 4.17-6.16 7.45-8.21a36.19 36.19 0 006.7-5.38 9.69 9.69 0 002-2.75 11.25 11.25 0 00.62-4.9q-.21-8.28-.82-16.55"/><path class="cls-4" d="M950.45 266.68a6 6 0 00-3-4.95l-1.35 2.68v-3.24a6 6 0 104.08 7.51 6.17 6.17 0 00.24-2zm-10.76 40.85a6 6 0 11.29-4.86l-3.77 3.07 4.14-1a5.88 5.88 0 01-.66 2.79zm-2.97-11.72A6 6 0 01934.8 284v2.49l1.37-2.7a6 6 0 111.18 12h-.61zm14.64-9.75a6 6 0 112.64-11.29l-1 2.92 2.2-2.11a6.05 6.05 0 012 4.17 5.78 5.78 0 01-.16 1.66 6 6 0 01-5.68 4.65z"/><path class="cls-9" d="M949.64 268.29c-1.39.15-2.75.58-4.15.67a4.5 4.5 0 01-3.82-1.34 15.7 15.7 0 01-1.11-2 4.34 4.34 0 00-1.52-1.43 6 6 0 1010.73 5.57 6.16 6.16 0 00.55-1.56c-.23.05-.46.06-.68.09zm1.72 17.77a6 6 0 01-5.74-8.61 4.36 4.36 0 011.21 1.21 17.72 17.72 0 001.21 2 5 5 0 004 1.4c1.45-.07 2.86-.49 4.31-.62h.61a6 6 0 01-5.6 4.62zm-14.64 9.75a6.06 6.06 0 01-5.81-8.5 5 5 0 011.28 1.23 19.52 19.52 0 001.31 2 5.55 5.55 0 004.27 1.5c1.5 0 2.93-.4 4.42-.51a6 6 0 01-5.47 4.28zm2.97 11.72a6 6 0 01-11-4.92 5.75 5.75 0 011.33 1.18 23.46 23.46 0 001.61 2.14 7.61 7.61 0 005 1.76 26.2 26.2 0 003.06-.16z"/><path class="cls-4" d="M924.61 316.43s4.77-.15 6.2-1.17 7.33-2.25 7.69-.61 7.16 8.16 1.78 8.2-12.5-.84-13.93-1.71-1.74-4.71-1.74-4.71z"/><path class="cls-8" d="M940.37 322.28c-5.38.05-12.49-.83-13.93-1.71-1.09-.66-1.52-3.05-1.67-4.15h-.16s.3 3.84 1.74 4.72 8.55 1.75 13.93 1.71c1.55 0 2.09-.57 2.06-1.39-.22.54-.81.82-1.97.82z"/><path d="M826.91 54.82a14.29 14.29 0 11-14.29 14.29 14.29 14.29 0 0114.29-14.29zM128.38 351.34a19.1 19.1 0 11-19.1 19.1 19.1 19.1 0 0119.1-19.1zm97.14 45.92a19.1 19.1 0 11-19.1 19.1 19.1 19.1 0 0119.1-19.1zM755.43 9.25a10.3 10.3 0 11-10.29 10.29 10.3 10.3 0 0110.29-10.29zm118.22 3.63a23.95 23.95 0 11-23.95 23.95 23.95 23.95 0 0123.95-23.95zm62.6 57.79a25 25 0 11-25 25 24.94 24.94 0 0125-25zM72.5 386.29a32 32 0 11-32 32 32 32 0 0132-32z" style="isolation:isolate" opacity=".1" fill="#373737"/></g></g></svg>