<svg xmlns="http://www.w3.org/2000/svg" viewBox="0 0 756 400"><defs><style>.cls-2{fill:#f5f5f5}.cls-8{isolation:isolate}.cls-4{fill:#e6e6e6}.cls-5{fill:#ffb8b8}.cls-6{fill:#575a89}.cls-7{fill:#373737}.cls-8{opacity:.2}.cls-9{fill:#333}</style></defs><g id="レイヤー_2" data-name="レイヤー 2"><path fill="#fff" d="M0 0h756v400H0z" id="レイヤー_2-2" data-name="レイヤー 2"/><g id="レイヤー_1-2" data-name="レイヤー 1"><path class="cls-2" d="M721.64 372.38c0 5.27-30.31 10.09-80.43 13.79q-13.68 1-29.24 1.9-13.43.76-28.14 1.45-14.26.64-29.61 1.2c-32.33 1.18-68.05 2-106 2.45q-13.81.15-28 .23-14.77.09-29.88.09C207.33 393.49 59 384 59 372.38s148.34-21.11 331.33-21.11c78.77 0 151.12 1.75 208 4.67l6.22.33c71.64 3.88 117.09 9.65 117.09 16.11z"/><path d="M721.64 372.38c0 5.27-30.31 10.09-80.43 13.79q-13.68 1-29.24 1.9-13.43.76-28.14 1.45-14.26.64-29.61 1.2c-32.33 1.18-68.05 2-106 2.45q-13.81.15-28 .23-14.77.09-29.88.09C207.33 393.49 59 384 59 372.38s148.34-21.11 331.33-21.11c78.77 0 151.12 1.75 208 4.67l6.22.33c71.64 3.88 117.09 9.65 117.09 16.11z" style="isolation:isolate" opacity=".15" fill="#f5f5f5"/><path class="cls-4" d="M696.18 368.66c0 4.41-28.26 8.44-75 11.53-8.49.56-17.6 1.09-27.25 1.59q-12.53.64-26.24 1.21-13.29.56-27.6 1c-30.14 1-63.45 1.69-98.84 2q-12.87.12-26.1.2-13.79.08-27.87.07c-170.59 0-308.88-7.9-308.88-17.65S216.7 351 387.29 351c37.73 0 73.87.39 107.28 1.1h.09c31.6.67 60.77 1.63 86.54 2.81l5.79.27c11.8.57 22.84 1.19 33 1.86h.34c47.27 3.14 75.85 7.19 75.85 11.62z"/><path class="cls-5" d="M506.87 177.08s-30.31-5.57-26.47 6.27 29.15 4.18 29.15 4.18z"/><path class="cls-6" d="M594.76 105.56a3 3 0 014 .17 2.47 2.47 0 01.69 1.3l1 5.46s4.69 21.84.68 35.71-6.86 32.15-17.7 34.1c-9.27 1.66-44.53-1-54.51-1.77a2.69 2.69 0 01-2.59-2.63l.19-8a2.69 2.69 0 012.54-2.51l40.37-3.91a2.72 2.72 0 002.51-2.2c1-6.23 4.07-25.56 7.15-35.71 2.55-8.18 10.74-15.93 15.67-20.01z"/><path class="cls-5" d="M568.53 338.48v16.72l10.36 2.09 6.9-3.14-.76-13.23-16.5-2.44zm61.2 0v16.72l10.35 2.09 6.91-3.14-.77-13.23-16.49-2.44z"/><path class="cls-7" d="M589.25 202.7s-13.82 25.42-13.43 45.3a247.13 247.13 0 01-1.92 35.86l-6.9 59.5 22.25 1.05 10.36-64.07 19.95-49.44 7.67 58.84 1.92 59.19h19.18s8.83-56.05 3.84-68.59c0 0 11.51-70.33 2.3-73.81s-65.22-3.83-65.22-3.83z"/><path class="cls-7" d="M575.44 350.67s-3.84-12.88-9.21-6.26-20.72 17.75-20.72 17.75-23 11.14-1.92 13.93 23.41-3.48 23.41-3.48 3.45-1.74 6.52-.7 16.49.7 17.26-3.48-4.22-27.16-5.75-23-9.59 5.24-9.59 5.24zm72.56-.34s0-3.84-7.29-4.18-8.44 4.18-8.44 4.18-1.92 1.73-2.3 7 0 18.8 0 18.8-3.45 10.44 12.28 8.35 10-12.88 10-12.88z"/><path class="cls-5" d="M618.44 72.1l-1.58 19.5-2.86 7.31 7.55 11.84 18.59-19.15s-3.46-10.44-1.26-16.36z"/><path class="cls-6" d="M669.43 106.26l-.17 1.71-6.73 65.14s-.27 3-.76 7.06c-.83 6.83-2.3 16.55-4.23 19.4a8 8 0 00-.77 8.35c-17.64 9.4-69.82-4.18-69.82-4.18l11.89-43.17s-10.74-44.91-9.59-49.09 25.32-19.15 25.32-19.15l.71 1.74c10.3 12.53 20.77 1.74 23.85-.69l5.82-.75z"/><path class="cls-2" d="M568.68 231.06c-33.2 4.5-64.86 6.15-94.17 3.38a229 229 0 01-30.88-5.3c-18.63-4.41-41.51-4.41-66.63-2.06a191 191 0 00-44.85 9.51c-19.47 6.74-40.81 6.15-63.42.51a115.56 115.56 0 01-26.63-10.6c-16.54-8.89-36.1-5.67-57.43 4.56V24.81C204.58 16.13 224 14.73 242.76 22a121.6 121.6 0 0021.15 6.31 166.66 166.66 0 0078.58-3.54c34.53-11.71 70.65-8.07 107.22 0 40.76 8.6 80.48 9.11 119 0z"/><path class="cls-7" d="M122.59 222.79L138.17 276l-47.33 78.33 39.2 8.29 53.11-89.83-45.45-78.23-20.2 3.83 5.09 24.4z"/><path class="cls-7" d="M108.73 208.16s5.77 7.66 18.47 14.05 39.25 48.52 39.25 48.52l-28.86 85.15 39.83 8.12 21.94-100-45-74.92zM94.3 352.35s-5.77 4.69-3.46 8.09 3.46 12.35 3.46 12.35h5.2v-10.22l16.74 11.49s38.67 2.56 38.09 0-23.09-8.51-23.09-8.51l-11-12.35z"/><path class="cls-7" d="M145.1 354.47s-5.77 4.69-3.46 8.09 3.46 12.35 3.46 12.35h5.19v-10.22L167 376.18s38.68 2.56 38.1 0-23.1-8.51-23.1-8.51l-11-12.35z"/><path class="cls-5" d="M128.88 40.66a25.17 25.17 0 11-25.17 25.16 25.16 25.16 0 0125.17-25.16z"/><path class="cls-5" d="M112.33 78.38s-1.33 16.18-10.19 22.14-8.8 11.07-8.8 11.07l35.66 14.9-8.34-16.18s-2.31-.85 1.39-5.11S129 90.73 129 90.73z"/><path class="cls-6" d="M158.66 190.92a140 140 0 01-41 17.54l-10.48 2.68s-22.15-19.82-11-35.45a28.17 28.17 0 019.61-8.4l-.23-.75-5.56-18.07-.5-1.62-16.74-3h-.15c-1.26.25-9.75 1.4-3.32-13.22A233.79 233.79 0 0088.42 106c1-3.24 5.35-5.27 9.74-4.54l.34.06c5.35 1.08 12 3.14 16 7 7.51 7.24 9-.32 9-.32s21 17.35 19.84 25a22.41 22.41 0 00.25 6.17c.14.91.31 1.86.5 2.83a158.94 158.94 0 005.21 18.43c.08.21.14.4.2.55l.19.54z"/><path class="cls-8" d="M128.94 169.42l-4.62 11.49s-17.71-3.33-28.08-5.22a28.17 28.17 0 019.61-8.4l-.23-.75-5.62-18.07-.5-1.62-16.74-3h-.15l-1-5.56s28.87 1.28 30.6 6.39-1.73 10.21-3.47 11.06 0 0 3.47 1.28-1.16 0-3.47 2.56.58.42 1.16 1.7 0-.43-.58 1.7 2.31.43 2.89.43 16.73 6.01 16.73 6.01z"/><path class="cls-5" d="M123.74 161.83l37.52 12.22s20.2-25.87 31.17-18S172.81 182 172.81 182l-11 2.87-39.81-5.79z"/><path class="cls-6" d="M81.6 117.14l2.31 18.62s-1.73 0 0 4.34 0 13 0 13-3.46.62-.58 2.48 5.78 6.83 4.62 8.69-3.46 4.35 1.73 5.59 34.64 9.31 34.64 9.31l4.61-16.76s-16.16-8.69-16.73-8.69-3.47 2.48-2.89-.62 1.15-.62.58-2.48-3.47 1.24-1.16-2.48 6.93-1.87 3.47-3.73-5.2-.62-3.47-1.86 5.2-8.69 3.47-16.14-30.6-9.27-30.6-9.27zm44.59-13.22l1.74-2c1.69-2 .88-4.62-1.82-5.87l-13.25-6.14c-2.7-1.26-6.26-.66-8 1.33l-1.74 2a6.47 6.47 0 00-4.91 2l-4.28 5c-1.7 2-.89 4.62 1.81 5.87l17.86 8.28c2.7 1.26 6.27.66 8-1.33l4.28-5a3.32 3.32 0 00.31-4.14z"/><path class="cls-7" d="M128 65.39c1.41-2 .79-4.91 1.8-7.19 1.58-3.58 6.25-4.31 10.15-4.55a29.81 29.81 0 017.78.21 7.47 7.47 0 015.3 4c.55 1.17.49-2.46.23-7.12a22.48 22.48 0 00-16.75-20.53h-.17c-4.72-1.21-9.59-2.14-14.44-1.69s-9.73 2.43-12.84 6.17c-1.42 1.72-2.44 3.75-4 5.32-2.78 2.76-6.81 3.69-10.53 4.91a31.38 31.38 0 00-11.57 6.31 17 17 0 00-5.79 11.56c-.21 5.15 2.95 10.56 8.21 11.7a6 6 0 012.51 1.16c4.95 4-.91 8-1 12.4-.06 3.68 4 6.18 7.65 6.44a14.79 14.79 0 0015-11.36c.63-3 .28-6.11 0-9.17-.33-3.5 7.39-11.53 2.28-5.63a8.59 8.59 0 00-2 4c-.94 4.79 3.4 6.52 6.09 9.25a11.45 11.45 0 012.49 11.84 13.2 13.2 0 002.79-16.6c-.85-1.38-2-2.6-2.78-4-1.26-2.2-1.51-6.94 2.17-6.72 2.65.1 5.33 2.35 7.42-.71z"/><path class="cls-5" d="M625.25 38.45A24.22 24.22 0 11601 62.67a24.22 24.22 0 0124.25-24.22z"/><path class="cls-8" d="M667.23 110l-26 60.11s-1.16 2.81-2.84 6.51c-14.56-1.33-52.89-10.9-52.89-10.9l1.93-12.53 45 2.83s3-27.52 12.22-36.31A80.63 80.63 0 00651 113c3.74-4.48 10.53-5.73 16.24-3z"/><path class="cls-5" d="M592 152.81s-27.25-14.4-27.14-2 26.57 12.74 26.57 12.74z"/><path class="cls-6" d="M658 102.77l10.85 5.23s1.79 22.46-4 35.62-10.85 30.87-21.8 31.08-56-11-56-11l1.93-12.53 45 2.82s3-27.52 12.22-36.3 11.8-14.92 11.8-14.92z"/><path class="cls-7" d="M604.6 38.07L600 36.2s9.73-10.71 23.27-9.78l-3.8-4.19s9.31-3.73 17.77 6.05c4.45 5.15 9.6 11.19 12.81 18h5l-2.08 4.59 7.28 4.58-7.48-.82a25.15 25.15 0 01.2 7.6 9.83 9.83 0 01-3.6 6.43s-5.77-11.95-5.77-13.82v4.66s-4.66-4.19-4.66-7l-2.54 3.27h-16.99l2.54-4.2-9.73 1.43 3.78-5.15L601 69s-8.67-23.94 3.6-30.93z"/><path class="cls-9" d="M237.08 164.91a14.5 14.5 0 00-10.08-4.14c-8.11 0-13.59 6-13.59 14.2 0 7.88 5.7 14 13.64 14a14.76 14.76 0 0010.06-4.31v6.77a20.39 20.39 0 01-10.23 2.79 18.67 18.67 0 01-13.19-5.14 18.28 18.28 0 01-6-14.09 19.49 19.49 0 016-14.58c3.86-3.63 8.33-4.86 13.47-4.86a17.7 17.7 0 0110 2.68zm8.06 5.03h5.48v2.12a9.43 9.43 0 012.29-2 6.35 6.35 0 013.35-.78 8.1 8.1 0 014.31 1.12l-2.24 5a5 5 0 00-2.79-.84 4.26 4.26 0 00-3.41 1.29c-1.51 1.62-1.51 3.86-1.51 5.42v12.19h-5.48v-23.52zm40.54 18.16a12.34 12.34 0 01-4 4.3 13 13 0 01-6.93 1.79 10.43 10.43 0 01-7.94-3 12.59 12.59 0 01-3.47-9 13.77 13.77 0 013.75-9.66 10.72 10.72 0 017.88-3.19 10.09 10.09 0 017.54 3.08c3 3.12 3.3 7.48 3.3 9.94v.64H269a7.82 7.82 0 002 4.76 5.63 5.63 0 004.2 1.5 5.76 5.76 0 003.74-1.17 8.55 8.55 0 002.18-2.57zm-5.43-9.56a5.71 5.71 0 00-1.67-3.18 5.26 5.26 0 00-3.69-1.34 5.32 5.32 0 00-3.86 1.5 6.14 6.14 0 00-1.67 3zm29.67-8.6h5.48v23.52h-5.48V191a9 9 0 01-7 3.18c-7.26 0-11.4-6-11.4-12.52 0-7.65 5.25-12.35 11.46-12.35a8.58 8.58 0 017 3.35v-2.73zm-12.85 11.84c0 4.08 2.57 7.49 6.54 7.49 3.46 0 6.65-2.51 6.65-7.43 0-5.14-3.19-7.6-6.65-7.6-4 0-6.54 3.35-6.54 7.54m33.25-6.81v18.5h-5.48v-18.5h-2.29v-5.03h2.29v-8.61h5.48v8.61h4.19v5.03h-4.19zm33.88 6.76a12.58 12.58 0 01-25.15 0c0-7.27 5.48-12.41 12.57-12.41s12.58 5.14 12.58 12.41m-5.59.05c0-5.36-3.52-7.54-7-7.54s-7 2.18-7 7.54c0 4.53 2.68 7.49 7 7.49s7-3 7-7.49m13.24-11.84h5.48v2.12a9.43 9.43 0 012.29-2 6.35 6.35 0 013.35-.78 8.1 8.1 0 014.31 1.12l-2.24 5a5 5 0 00-2.79-.84 4.26 4.26 0 00-3.41 1.29c-1.51 1.62-1.51 3.86-1.51 5.42v12.19h-5.48v-23.52zm25.2-15.65l4.91 1.9-6.92 13.8-3.69-1.51 5.7-14.19zm12.35 21.85a4 4 0 00-3.36-2 2.37 2.37 0 00-1.68.61 1.78 1.78 0 00-.5 1.23 1.49 1.49 0 00.78 1.34c.34.23.67.34 1.85.95l2.79 1.4a11.35 11.35 0 013.3 2.18 5.8 5.8 0 011.73 4.36 7.84 7.84 0 01-2.06 5.37 8.42 8.42 0 01-6.6 2.62 8.09 8.09 0 01-5.09-1.51 9.13 9.13 0 01-3-4.3l4.48-2.12a6.11 6.11 0 001.28 2.23 3.34 3.34 0 002.4.9 3.27 3.27 0 002.24-.79 2.74 2.74 0 00.78-1.84A2.55 2.55 0 00408 185a7.36 7.36 0 00-2.35-1.45l-2-1a12 12 0 01-3.24-2 5.15 5.15 0 01-1.67-4 7.33 7.33 0 011.95-5 7.59 7.59 0 015.76-2.24 7.39 7.39 0 014.36 1.23 8.1 8.1 0 012.68 2.91zm66.77-11.23a14.54 14.54 0 00-10.12-4.14c-8.1 0-13.58 6-13.58 14.2 0 7.88 5.7 14 13.64 14a14.78 14.78 0 0010.06-4.31v6.77a20.41 20.41 0 01-10.23 2.79 18.67 18.67 0 01-13.19-5.14 18.28 18.28 0 01-6-14.09 19.49 19.49 0 016-14.58c3.86-3.63 8.33-4.86 13.47-4.86a17.7 17.7 0 019.95 2.68v6.71zm23.63 5.03h5.48v23.52h-5.48V191a9 9 0 01-7 3.18c-7.27 0-11.4-6-11.4-12.52 0-7.65 5.25-12.35 11.45-12.35a8.58 8.58 0 017 3.35v-2.73zM487 181.78c0 4.08 2.57 7.49 6.54 7.49 3.46 0 6.65-2.51 6.65-7.43 0-5.14-3.19-7.6-6.65-7.6-4 0-6.54 3.35-6.54 7.54m33.41-6.78v18.49h-5.48V175h-2.35v-5h2.35v-8.16c0-3.64 1-5.93 2.29-7.38a7.39 7.39 0 015.59-2.29 8.63 8.63 0 013.52.67v5.42a4.74 4.74 0 00-2.63-.84 3.16 3.16 0 00-2.4.9 3.87 3.87 0 00-.89 2.79V170h5.92v5zM552 188.1a12.25 12.25 0 01-4 4.3 12.93 12.93 0 01-6.93 1.79 10.4 10.4 0 01-7.93-3 12.59 12.59 0 01-3.47-9 13.77 13.77 0 013.75-9.66 10.69 10.69 0 017.88-3.19 10.11 10.11 0 017.54 3.08c3 3.12 3.3 7.48 3.3 9.94v.64h-16.89a7.82 7.82 0 002 4.76 5.61 5.61 0 004.19 1.5 5.77 5.77 0 003.75-1.17 8.55 8.55 0 002.18-2.57zm-5.42-9.56a5.66 5.66 0 00-1.68-3.18 5.24 5.24 0 00-3.68-1.34 5.3 5.3 0 00-3.86 1.5 6.23 6.23 0 00-1.68 3z"/><path d="M333.61 117.59a17.83 17.83 0 0012.26-2.14v-5.92a13 13 0 01-8.8 3.76 12.06 12.06 0 01-5.76-1.4 10.77 10.77 0 001.45 4.28zM337 88.65a12.75 12.75 0 018.85 3.62v-5.86a15.5 15.5 0 00-8.7-2.35c-4.5 0-8.41 1.07-11.79 4.25a17.06 17.06 0 00-5.23 12.76 16.18 16.18 0 002.84 9.58v-.27a20.54 20.54 0 011-6.53l1.14-3.42c.32-6.85 5.03-11.78 11.89-11.78zM385.74 35c-.66.94-6.86 8.68-7.2 9.75a5.85 5.85 0 00.1 3.54c.39.75 2.83 6.47 3.47 7.71 2.07 4.07-.27 6.88-2 9.09-.62.77-.19 1.55.3 1.1a77.18 77.18 0 007.55-10.37 4 4 0 00-.18-4.2 62.26 62.26 0 01-3.22-8c-1-3.55-.75-4.36 1.79-8.09.43-.71.17-1.66-.61-.53zm11.53 7.46c-.45.7-4.74 6.49-5 7.29a4.76 4.76 0 00.07 2.64c.27.56 2 4.84 2.39 5.76 1.44 3-.18 5.14-1.39 6.8-.42.57-.13 1.16.21.82a57.92 57.92 0 005.24-7.77 3.14 3.14 0 00-.13-3.14 49.43 49.43 0 01-2.22-6c-.65-2.66-.51-3.26 1.24-6 .32-.53.13-1.23-.41-.4zm-24.89 0c-.45.7-4.73 6.49-5 7.29a4.76 4.76 0 00.07 2.64c.27.56 2 4.84 2.39 5.76 1.44 3-.18 5.14-1.39 6.8-.42.57-.13 1.16.21.82A57.92 57.92 0 00373.9 58a3.16 3.16 0 00-.12-3.14 46.3 46.3 0 01-2.22-6c-.66-2.66-.52-3.26 1.23-6 .32-.53.13-1.23-.41-.4zm-12.25 78.91c-1.36-3.13-1.93-12.07-.45-21.06l.09-.54-7.77 5.49v.11c-.39 6.14-.73 11.44.84 16.83a18.86 18.86 0 009.62 11.67 54.39 54.39 0 003.84-5.91 14.13 14.13 0 01-6.17-6.59z" fill="#8b8fbc"/><path class="cls-9" d="M350.32 101.58a12.7 12.7 0 00-8.85-3.58c-7.09 0-11.88 5.23-11.88 12.42 0 6.89 5 12.22 11.93 12.22a13 13 0 008.8-3.76v5.91a17.78 17.78 0 01-8.95 2.45 16.34 16.34 0 01-11.54-4.5 16 16 0 01-5.23-12.32 17.06 17.06 0 015.23-12.76c3.37-3.18 7.29-4.26 11.79-4.26a15.5 15.5 0 018.7 2.35zm59.28-19.46l-.07-.16h-.17c-.17 0-17.34 2.59-25.59 2.59-5.75 0-13.84-.24-19.76-1.37-2.92-.57-4.67-1.37-4.67-2.16 0-1.12 1.85-1.92 5.19-2.24 1.78-.18 10-.84 16.17-1h1.3c7.61 0 19.85 1 20 1h.1l5.4-5-.48-.07a233 233 0 00-24.13-1.64h-2.34c-5.82.14-14.15.77-17.42 1.22-4.4.6-9.52 2.93-9.5 7.51 0 3.42 3.12 5.75 9.5 7.1a101.94 101.94 0 0020.12 1.89 159.32 159.32 0 0020.88-1.59c.19.61.4 1.33.6 2.12l5.82-5.62a19.88 19.88 0 00-.95-2.58zm-3.4 37.4c-.82 3.44-4.37 11.21-19.62 12a3.81 3.81 0 01-1.45 1.67c-1.66 1-3.69 1.4-6.88 1.89a23.54 23.54 0 00-5.74 2.11 64.11 64.11 0 0011.45.94h.64c18.85-.14 25.29-10.63 27.46-16.87 2.23-6.42 1.92-13.76 1.5-18.69l-6 5.17a49.28 49.28 0 01-1.36 11.78z"/><path class="cls-7" d="M381.21 115.33l6.69 7.35 2.79-2.42-6.82-7.49-2.66 2.56zm10.9 3.67l47-40.7a2.14 2.14 0 00-.07-3l-6.09-6.7a2.13 2.13 0 00-3-.35l-44.72 43.18zm-6.56 9.27a14.49 14.49 0 01.88-4.25l-2.22-2.44-2.21-2.47-2.22-2.44s-1 .64-4.32.48c-1.43-.07-2.86-.16-3.75 1s-1.49 2.55-2.05 5.7c-1 5.72-9.19 15.14-9.19 15.14l.6.71 7.19-6.55a1.21 1.21 0 01.35-1.42 1.25 1.25 0 111.68 1.84 1.19 1.19 0 01-1.44.21l-7.19 6.54.69.75s10.56-6.78 15.68-7.57c3.2-.5 4.93-.82 6.27-1.67s1.11-2.18 1.25-3.56z"/><path class="cls-4" d="M563.68 25.91v199.15c-33.2 4.5-64.86 6.15-94.17 3.38a229 229 0 01-30.88-5.3c-18.63-4.41-41.51-4.41-66.63-2.06a191 191 0 00-44.85 9.51c-19.47 6.74-40.81 6.15-63.42.51a115.56 115.56 0 01-26.63-10.6c-15.23-8.19-33-6.1-52.43 2.28v8.28c21.33-10.23 40.89-13.45 57.43-4.56a115.56 115.56 0 0026.63 10.6c22.61 5.64 43.95 6.23 63.42-.51a191 191 0 0144.85-9.51c25.12-2.35 48-2.35 66.63 2.06a229 229 0 0030.88 5.3c29.31 2.77 61 1.12 94.17-3.38V24.81c-1.68.39-3.34.74-5 1.1z"/><path transform="rotate(-30 320.696 24.57)" fill="#ff6584" d="M310.82 14.67h19.79v19.79h-19.79z"/><path transform="rotate(-30 260.213 114.824)" fill="#3f3d56" d="M250.33 104.94h19.79v19.79h-19.79z"/><path transform="rotate(-30 497.432 95.047)" fill="#d0cde1" d="M487.51 85.15h19.79v19.79h-19.79z"/></g></g></svg>