<svg xmlns="http://www.w3.org/2000/svg" viewBox="0 0 743.75 372.32"><defs><clipPath id="clip-path" transform="translate(-12.25 -1.43)"><path fill="none" d="M0 0h756v400H0z"/></clipPath><style>.cls-14{fill:none}.cls-3{fill:#f5f5f5}.cls-4{opacity:.2}.cls-4,.cls-9{isolation:isolate}.cls-5{fill:#373737}.cls-8{fill:#ffb8b8}.cls-9{opacity:.1}.cls-10{fill:#f2f2f2}.cls-11{fill:#3c354c}.cls-12{fill:#3f3d56}.cls-13{fill:#8b8fbc}.cls-14{stroke:#3f3d56;stroke-miterlimit:10;stroke-width:4px}</style></defs><g id="レイヤー_2" data-name="レイヤー 2"><g id="レイヤー_1-2" data-name="レイヤー 1"><g id="レイヤー_2-2" data-name="レイヤー 2"><g clip-path="url(#clip-path)" id="レイヤー_2-2-2" data-name="レイヤー 2-2"><path class="cls-3" d="M142.77 230.5l-3.67-2.29c-.35-.21-.7-.45-1-.67a35 35 0 003.54-68.12l.18 14.4-7.92-15.67h-.1a35 35 0 00-36.55 33.3v2a41.78 41.78 0 01-6.91-10.2c-3.34-7.47-3.41-15.94-3.15-26.25.52-20.39 1.41-40.94 2.55-61.42a35 35 0 0031-33.1v-3.16a5.08 5.08 0 000-.78c-.07-1-.16-2-.32-3a2.67 2.67 0 00-.08-.48c-.14-.84-.32-1.67-.52-2.49-.07-.31-.15-.61-.23-.92-.25-.89-.52-1.75-.83-2.64-.11-.28-.22-.58-.34-.85-.25-.64-.51-1.27-.8-1.89l-.46-1a.58.58 0 00-.12-.25A35 35 0 0076 27.3l.23 18.75-7.88-15.49a34.79 34.79 0 00-16.67 37.68h-.08c.06.26.13.5.19.74.11.46.23.92.36 1.37s.35 1.17.54 1.75.29.86.45 1.29c.24.62.51 1.22.78 1.82.16.35.3.72.47 1.06.44.9.92 1.78 1.44 2.65.19.3.39.58.59.88.37.58.75 1.17 1.17 1.71.25.34.52.68.78 1 .38.49.78 1 1.17 1.43s.58.65.88 1 .87.89 1.33 1.32c.3.28.58.58.91.85.52.46 1.05.89 1.6 1.32.27.22.54.44.82.65.83.58 1.68 1.17 2.57 1.75.16.1.34.18.5.28.75.43 1.49.85 2.26 1.22l1 .46c.63.28 1.26.56 1.92.81l1.17.4c.64.21 1.29.42 2 .58.39.11.78.22 1.17.31.71.17 1.44.31 2.18.44H80q-.72 13-1.29 25.93A34.92 34.92 0 0032 105.15c-.62.29-1.22.61-1.81.94L36.33 123l-12.72-12.18A34.86 34.86 0 0012.29 135a34.27 34.27 0 00.89 9.63 35 35 0 0064.29 9.52c0 .88-.06 1.75-.08 2.64-.23 9.07-.53 20.37 4 30.46 3.07 6.83 8 12.39 12.85 17.37 3.17 3.23 6.46 6.37 9.83 9.4a35.14 35.14 0 0012.63 10.52q8.31 6.39 17.21 12l3.7 2.3c3.33 2.06 6.74 4.18 10.08 6.38-.58-.05-1.17-.12-1.75-.15a35 35 0 00-34.43 22.78l21.85 17.78-24-5.57a35 35 0 0050.18 31.45l-1.63 2-3.18 4c-14.22 18-18.17 35.1-11.13 48.13l8.56-4.62c-6.85-12.69 3.45-28.93 10.2-37.48 1-1.33 2.08-2.64 3.14-3.91 9.08-11.29 19.37-24.08 19.12-39.77-.44-23.69-23.37-37.92-41.85-49.36zM756 177.38a43.61 43.61 0 01-59.41-16c0 1.09.07 2.19.1 3.29.29 11.32.66 25.42-5 38-3.83 8.54-10 15.46-16.08 21.67q-5.93 6.06-12.26 11.73a43.8 43.8 0 01-15.77 13.11q-10.38 8-21.47 15l-4.58 2.82c-4.15 2.57-8.4 5.22-12.58 8 .74-.07 1.46-.15 2.21-.19a43.66 43.66 0 0142.93 28.41l-27.26 22.18 30-6.94a43.66 43.66 0 01-62.56 39.29l2 2.52c-12.38-3.21-1.69-9.35-.38-7.71 17.73 22.46-49.72-76.24-58.5-60l-10.68-5.76c8.55-15.83 35.61 64.41 27.18 53.76-1.28-1.62 11.81 13.64 10.5 12-11.33-14.08-1.75-14.69-1.44-34.27.51-29.56 29.16-47.29 52.18-61.58l4.58-2.85c.44-.27.87-.58 1.3-.84a43.62 43.62 0 01-36.21-41 43.1 43.1 0 013.76-19.86 43.75 43.75 0 0128-24.18l-.22 18 9.87-19.55h.12A43.64 43.64 0 01672 207.94v2.53a51.65 51.65 0 008.62-12.73c4.18-9.34 4.26-19.86 3.93-32.71-.66-25.44-1.75-51.07-3.18-76.62a43.6 43.6 0 01-38.74-41.28c-.06-1.34 0-2.65 0-4a8.34 8.34 0 010-1c.08-1.27.2-2.52.39-3.76a3.5 3.5 0 01.11-.58c.18-1 .4-2.09.65-3.11l.28-1.17c.31-1.11.65-2.21 1-3.29.13-.36.28-.7.42-1.06.32-.8.65-1.58 1-2.33.19-.41.37-.82.59-1.22 0-.1.09-.21.14-.31a43.59 43.59 0 0151.3-22l-.29 23.37L708 7.29a43.38 43.38 0 0120.8 47h.05c-.07.31-.17.59-.24.92-.14.59-.28 1.17-.44 1.71-.21.73-.44 1.45-.68 2.16-.18.54-.36 1.07-.58 1.61-.3.77-.63 1.52-1 2.27-.2.43-.38.88-.59 1.32-.55 1.13-1.17 2.23-1.8 3.3-.22.38-.48.73-.72 1.1-.47.73-.94 1.44-1.45 2.13-.31.44-.65.85-1 1.27-.47.58-1 1.2-1.47 1.78l-1.11 1.21c-.53.58-1.08 1.11-1.64 1.64-.38.36-.76.72-1.17 1.07-.65.58-1.32 1.11-2 1.64l-1 .81c-1 .76-2.1 1.48-3.2 2.16-.21.12-.43.22-.64.35-.92.54-1.86 1-2.82 1.52-.41.21-.84.38-1.26.59-.79.35-1.58.69-2.39 1l-1.44.52c-.81.27-1.62.51-2.44.74-.49.14-1 .27-1.47.39-.89.21-1.8.39-2.72.55h-.18q.92 16.17 1.61 32.36a43.59 43.59 0 0158.27-20.12c.77.38 1.53.77 2.27 1.19l-7.7 21.12 8.15-7.82z" transform="translate(-12.25 -1.43)"/><path class="cls-3" d="M379.58 341.62c165.83 0 300.26 7.19 300.26 16.07s-134.43 16.06-300.26 16.06-300.25-7.19-300.25-16.06 134.43-16.07 300.25-16.07z" transform="translate(-12.25 -1.43)"/><ellipse class="cls-4" cx="366.75" cy="351.29" rx="268.71" ry="12.85"/><path class="cls-5" d="M634.85 40.61v308.75a4.2 4.2 0 01-4.21 4.21H128.51a4.2 4.2 0 01-4.21-4.19V40.61a4.21 4.21 0 014.2-4.21h502.12a4.2 4.2 0 014.23 4.19z" transform="translate(-12.25 -1.43)"/><path d="M634.85 39.21v9.46H124.3v-9.46a2.81 2.81 0 012.81-2.81H632a2.81 2.81 0 012.81 2.81z" transform="translate(-12.25 -1.43)" fill="#e6e6e6"/><path class="cls-5" d="M133.65 39.32a2.92 2.92 0 11-2.92 2.92 2.92 2.92 0 012.92-2.92zm8.18 0a2.92 2.92 0 11-2.92 2.92 2.92 2.92 0 012.92-2.92zm8.17 0a2.92 2.92 0 11-2.92 2.92 2.94 2.94 0 012.92-2.92z" transform="translate(-12.25 -1.43)"/><path d="M289.64 77.91h155.38v8.18H289.64zm-129.1 82.95h119.75v140.2H160.54zm146.63 0h119.75v140.2H307.17zm146.62 0h119.75v140.2H453.79z" style="isolation:isolate" fill="#e6e6e6" opacity=".2"/><path class="cls-8" d="M227.31 233.54c-.35 2.11-2.44 3.44-4.41 4.26s-4.17 1.51-5.43 3.23c-1.7 2.34-1 5.68.58 8.11 1.78 2.78 4.48 4.83 7.12 6.82a12.94 12.94 0 003.83 2.24 11 11 0 003.28.35 60 60 0 0010.62-.95c4.49-.81 9.29-2.45 11.68-6.35 1.94-3.2 1.82-7.19 1.63-10.93a13.73 13.73 0 01-5.81-2.44c-2.12-1.32-4.42-2.86-5.11-5.26s.43-5.63-1.29-7.6c-1.17-1.33-3.15-1.48-4.91-1.53-2.4-.06-4.79-.1-7.18-.1-1.65 0-5.33-.69-6.68.41-2.47 1.99 2.53 7.07 2.08 9.74z" transform="translate(-12.25 -1.43)"/><path class="cls-9" d="M227.31 233.54c-.35 2.11-2.44 3.44-4.41 4.26s-4.17 1.51-5.43 3.23c-1.7 2.34-1 5.68.58 8.11 1.78 2.78 4.48 4.83 7.12 6.82a12.94 12.94 0 003.83 2.24 11 11 0 003.28.35 60 60 0 0010.62-.95c4.49-.81 9.29-2.45 11.68-6.35 1.94-3.2 1.82-7.19 1.63-10.93a13.73 13.73 0 01-5.81-2.44c-2.12-1.32-4.42-2.86-5.11-5.26s.43-5.63-1.29-7.6c-1.17-1.33-3.15-1.48-4.91-1.53-2.4-.06-4.79-.1-7.18-.1-1.65 0-5.33-.69-6.68.41-2.47 1.99 2.53 7.07 2.08 9.74z" transform="translate(-12.25 -1.43)"/><path class="cls-8" d="M235.36 193.9a19.46 19.46 0 11-19.46 19.46 19.46 19.46 0 0119.46-19.46z" transform="translate(-12.25 -1.43)"/><path class="cls-10" d="M271.27 256.79a7.41 7.41 0 01-1 2.92 4.81 4.81 0 01-.52.67 15.41 15.41 0 01-3.59 2.5c-3.5 2.13-7.43 4.91-8.09 9a30.29 30.29 0 01-.88 3.74c-.82 2.78-1.89 5.52-2.51 8.3a18.93 18.93 0 00-.52 4.92 12.06 12.06 0 00.14 1.55c.55 3.94 2.58 7.47 5 10.83l.78 1.08.17.23h-55.94c.1-.36.19-.71.28-1.06v-.17c.55-2.22 1-4.46 1.38-6.71a44 44 0 00.52-6.06c0-1.75.38-3.69 1.85-4.67.1-.36.19-.72.29-1.08a33.35 33.35 0 00-.09-16.13c-.08-.33-.17-.66-.26-1l-.13-.43c-.49-1.56-.9-3.14-1.24-4.74-.34-1.91-.42-4-1.43-5.59s-2.79-2.61-4.36-3.73a10.22 10.22 0 01-2.06-1.88 4.59 4.59 0 01-1.06-2.68 4.34 4.34 0 01.06-.88 6.81 6.81 0 011.78-3.18c3.56-3.91 9-5.55 14.31-5.62.83 0 1.65 0 2.46.07a6.69 6.69 0 012.75.62 4.15 4.15 0 011.37 1.13 6.91 6.91 0 011.17 2.21 12.37 12.37 0 01.47 2c.33 2.09.39 4.31 1.49 6.11 2 3.26 6.53 3.85 10.28 3.15A23.21 23.21 0 00250 240.46a21.89 21.89 0 011.17-2.12 5.47 5.47 0 01.79-.94 32.71 32.71 0 0114.24 6.43 16 16 0 013.38 3.5 13.79 13.79 0 011.69 9.46z" transform="translate(-12.25 -1.43)"/><path class="cls-8" d="M273 292.06a16.6 16.6 0 01-2.15 4.59 11 11 0 01-2.47 3.17c-2.08 1.63-4.94 1.6-7.6 1.44h-.21l-1.31-.07-7.54-.45a44.73 44.73 0 01-6-.64c-.53-.1-1-.23-1.57-.37-2.92-.79-5.77-2-8.79-2.12-.88-.06-1.76 0-2.65 0h-.25a12.76 12.76 0 01-1.75-.12 28.2 28.2 0 00-2.87-.49c-2.5-.13-4.71 1.37-6.84 2.74l-.59.36a26.24 26.24 0 01-4.83 2.41h-10.06a4 4 0 01-.48-.44 3.59 3.59 0 01-.45-.63 1.09 1.09 0 01-.08-.15 5.31 5.31 0 010-4.51 8.66 8.66 0 011.47-2.22 22.51 22.51 0 012.14-2c3.94-3.28 8.47-6.05 13.5-7l1.06-.17a47 47 0 017.59-.25l2.38.05 10 .2h.28c4 .08 8.2.11 11.82-1.49a11.3 11.3 0 001.34-.69 2.47 2.47 0 00.93-.8 2.75 2.75 0 00.27-1.52v-5.26l-.07-10.13V258a5.14 5.14 0 011.43-4.25c1.46-1.83 5-8.28 7.52-8.39a2.07 2.07 0 011.25.35c2.14 1.43 2.15 6.83 2.21 8.65q.08 3 .26 6a203.3 203.3 0 002.8 24.6c.43 2.32.9 4.77.31 7.1z" transform="translate(-12.25 -1.43)"/><path class="cls-9" d="M273 292.06a16.6 16.6 0 01-2.15 4.59 11 11 0 01-2.47 3.17c-2.08 1.63-4.94 1.6-7.6 1.44h-.21l-1.31-.07-7.54-.45a44.73 44.73 0 01-6-.64c-.53-.1-1-.23-1.57-.37-2.92-.79-5.77-2-8.79-2.12-.88-.06-1.76 0-2.65 0h-.25a12.76 12.76 0 01-1.75-.12 28.2 28.2 0 00-2.87-.49c-2.5-.13-4.71 1.37-6.84 2.74l-.59.36a26.24 26.24 0 01-4.83 2.41h-10.06a4 4 0 01-.48-.44 3.59 3.59 0 01-.45-.63 1.09 1.09 0 01-.08-.15 5.31 5.31 0 010-4.51 8.66 8.66 0 011.47-2.22 22.51 22.51 0 012.14-2c3.94-3.28 8.47-6.05 13.5-7l1.06-.17a47 47 0 017.59-.25l2.38.05 10 .2h.28c4 .08 8.2.11 11.82-1.49a11.3 11.3 0 001.34-.69 2.47 2.47 0 00.93-.8 2.75 2.75 0 00.27-1.52v-5.26l-.07-10.13V258a5.14 5.14 0 011.43-4.25c1.46-1.83 5-8.28 7.52-8.39a2.07 2.07 0 011.25.35c2.14 1.43 2.15 6.83 2.21 8.65q.08 3 .26 6a203.3 203.3 0 002.8 24.6c.43 2.32.9 4.77.31 7.1z" transform="translate(-12.25 -1.43)"/><path class="cls-11" d="M222.54 182.5c-1.68.26-3.54.71-4.46 2.14-.72 1.12-.66 2.53-.91 3.83a8.5 8.5 0 01-3.26 5.22c-1.39 1-3.08 1.6-4.52 2.57s-2.71 2.53-2.52 4.25c.17 1.51 1.37 2.66 1.93 4.08 1 2.58-.19 5.47-1.33 8s-2.21 5.54-.91 8 5 3.58 6 6.33c1.25 3.32-2 6.85-1.58 10.39.36 2.91 3.23 5 6.13 5.4a5 5 0 004-.86 5.21 5.21 0 001.39-3.85c.18-5.4-2.89-10.35-3.79-15.68a8.39 8.39 0 01.49-5.23c.51-1 1.32-1.82 1.77-2.87.9-2.16-.12-4.78.84-6.93a19 19 0 011.88-2.65 3.14 3.14 0 00.55-3.06 10.71 10.71 0 013.94 4.49c1.26-.26 1.22-3 2.45-2.56.35.11.54.47.77.76a3.45 3.45 0 003.67 1 7.27 7.27 0 003.24-2.33l2.1 2.6a2.39 2.39 0 012.3-1.46 5.64 5.64 0 012.72.93c4 2.39 7 7.26 5.44 11.64-.66 1.87-2 3.4-2.88 5.18s-1.11 4.17.31 5.54a10.29 10.29 0 01.91.84c1 1.23.38 3.1.7 4.65.55 2.84 3.9 4 6.73 4.64 2 .45 4.36.79 5.75-.67s.84-4.2-.08-6.2-2-4.31-1-6.28 3.89-2.65 4.93-4.7c1.32-2.61-1-5.47-1.95-8.24-1.28-3.8.14-8-.9-11.94a16.66 16.66 0 00-2.94-5.39A34.75 34.75 0 00249 183.69c-4.35-2.29-8.74-2.66-13.53-2.08-4.27.54-8.61.25-12.93.89z" transform="translate(-12.25 -1.43)"/><path class="cls-10" d="M257.48 265.68a1.42 1.42 0 01-.67-.93q-2-5.47-3.64-11a4.26 4.26 0 01-.28-2.06 4 4 0 011.57-2.13 23.75 23.75 0 016.39-3.75c1.69-.66 4.17-1.83 5.84-.76 2.08 1.32-.14 4.67-.89 6.42a65.35 65.35 0 01-3.51 7c-.4.7-4.29 7.42-4.81 7.21z" transform="translate(-12.25 -1.43)"/><path class="cls-8" d="M260.82 301.26a3.61 3.61 0 01-.55.79l-.21.2-.26.23h-10.16a26.6 26.6 0 01-4.84-2.4l-.58-.37c-2.14-1.36-4.34-2.86-6.84-2.74a19.7 19.7 0 00-2.88.5 14.55 14.55 0 01-1.75.11h-2.89c-3 .17-5.87 1.34-8.8 2.12-.52.14-1 .27-1.56.38a43.14 43.14 0 01-6 .63l-8.86.53h-.21c-2.64.15-5.51.19-7.59-1.44a11.24 11.24 0 01-2.48-3.17 16.29 16.29 0 01-2.14-4.59c-.59-2.34-.1-4.78.33-7.15a205 205 0 003.17-30.57c.05-1.83.07-7.25 2.22-8.66a1.83 1.83 0 01.81-.31 1.55 1.55 0 01.43 0c2.51.1 6.06 6.56 7.51 8.39a5.09 5.09 0 011.43 4.24v7.54q0 7.67-.1 15.34a2.75 2.75 0 00.27 1.52 1.56 1.56 0 00.31.37 3.86 3.86 0 00.62.44c3.88 2.29 8.66 2.27 13.17 2.18h.27l10-.21H235a47 47 0 017.59.25c.35 0 .71.1 1.06.17a27.41 27.41 0 0110.69 4.82c1 .69 1.92 1.42 2.84 2.19a12.1 12.1 0 013.62 4.23 5.34 5.34 0 01.02 4.44z" transform="translate(-12.25 -1.43)"/><path class="cls-10" d="M208.44 265.68a1.47 1.47 0 00.68-.93q1.94-5.47 3.64-11a4.52 4.52 0 00.27-2.06 4 4 0 00-1.57-2.13 23.34 23.34 0 00-6.39-3.75c-1.68-.66-4.16-1.83-5.84-.76-2.08 1.32.14 4.67.9 6.42a65.35 65.35 0 003.51 7c.36.7 4.27 7.42 4.8 7.21z" transform="translate(-12.25 -1.43)"/><path class="cls-11" d="M524.15 196.7c3.88-.94 6.9 5.48 10.8 4.72 2.15-.42 3.8-3 6-2.78 2.47.22 3.53 3.6 4.8 6.07 2.19 4.28 6.63 6.87 10.91 6.35 1.35-1.77 1.09-4.5.41-6.72s-1.73-4.36-1.76-6.72c0-3.13 1.68-6.58.13-9.13-1.19-2-3.63-2.12-5.42-3.32-1.4-.94-2.39-2.51-3.56-3.8a11.78 11.78 0 00-7.26-3.81 21.2 21.2 0 00-6.91.73l-10.67 2.31a3 3 0 00-1.66.76 5.73 5.73 0 00-.86 2.18c-1 3.32-4.18 4.87-6.77 6.71s-5 5.47-3.62 8.57c.81 1.76 2.71 2.84 2.91 4.81.18 1.76-1.09 3.2-2.13 4.5-4.4 5.52 5.47 8.39 7.83 4.64 2.59-4.12 1.28-14.71 6.83-16.07z" transform="translate(-12.25 -1.43)"/><path class="cls-8" d="M521.74 230.45a29.67 29.67 0 00-2 3.17 9.16 9.16 0 00-.3 5.48 23 23 0 002 5 29.61 29.61 0 003.45 5.84 7.92 7.92 0 005.07 3.19c2 .19 4-.88 5.88-2a6.67 6.67 0 002.13-1.75 9.24 9.24 0 001-2.38l1.59-4.85a15.91 15.91 0 00.92-3.73 16.79 16.79 0 00-.92-5.92l-2.92-10.2a3.7 3.7 0 00-.7-1.55 2.24 2.24 0 00-1.08-.58 24.79 24.79 0 00-5.65-1.17c-1.42-.12-4.64-.76-5.88.26s-.66 3.33-.79 4.88a14.44 14.44 0 01-1.8 6.31z" transform="translate(-12.25 -1.43)"/><path class="cls-9" d="M521.74 230.45a29.67 29.67 0 00-2 3.17 9.16 9.16 0 00-.3 5.48 23 23 0 002 5 29.61 29.61 0 003.45 5.84 7.92 7.92 0 005.07 3.19c2 .19 4-.88 5.88-2a6.67 6.67 0 002.13-1.75 9.24 9.24 0 001-2.38l1.59-4.85a15.91 15.91 0 00.92-3.73 16.79 16.79 0 00-.92-5.92l-2.92-10.2a3.7 3.7 0 00-.7-1.55 2.24 2.24 0 00-1.08-.58 24.79 24.79 0 00-5.65-1.17c-1.42-.12-4.64-.76-5.88.26s-.66 3.33-.79 4.88a14.44 14.44 0 01-1.8 6.31z" transform="translate(-12.25 -1.43)"/><path class="cls-8" d="M532.06 192.59A18.07 18.07 0 11514 210.67a18.07 18.07 0 0118-18.07z" transform="translate(-12.25 -1.43)"/><path class="cls-11" d="M567.44 252.28c0 4.46-1.68 8.76-3.45 12.85s-4 8.12-5.74 12.32l-.41 1q-4.47 11.54-7.9 23.42l-.17.58h-50.18c2.29-8.76 4.25-17.52-1.24-23.57-.17-.18-.34-.38-.5-.58-3.59-4.33-5.2-10.24-9.48-13.92-1-.84-1.6-1.1-2.21-2.24-.35-.71 0-1.88 0-2.67s1.58-3 1.67-3.67c.42-3.8 0-6.6 2.33-9.66 1-1.34 4.92-4.06 6.33-5 3.12-2.2 2.37-1.91 6.08-2.77 4.18-1 8.8-1.1 12.21-3.71a14.27 14.27 0 012.34-1.75l.23-.1a2.44 2.44 0 012.52.27 3.49 3.49 0 01.84 1.75l1.86 6.8a7 7 0 001.41 3.06c1.65 1.72 4.81 1.52 6.1 3.51.77 1.21 2.79-.2 3.68-1.32a49.62 49.62 0 005.52-8.73 13.75 13.75 0 012-3.41 4.59 4.59 0 012.26-1.36 3.12 3.12 0 011.29 0 6.13 6.13 0 013 2.26 68.4 68.4 0 0018 14.28 2.87 2.87 0 011.32 1.09 2.16 2.16 0 01.22.94 1.94 1.94 0 01.07.33zm-41.34-56.5c3-.65 5.36 3.69 8.4 3.17 1.67-.27 3-1.95 4.64-1.86 1.93.15 2.75 2.42 3.73 4.07a9 9 0 008.48 4.27c1-1.19.85-3 .31-4.51s-1.35-2.94-1.37-4.52c0-2.1 1.31-4.42.11-6.14-.93-1.3-2.83-1.42-4.22-2.23a17.61 17.61 0 01-2.77-2.55 9.65 9.65 0 00-5.64-2.56 19 19 0 00-5.37.49l-8.3 1.59a2.39 2.39 0 00-1.3.51 3.44 3.44 0 00-.65 1.46c-.79 2.23-3.26 3.27-5.27 4.51s-3.91 3.68-2.81 5.76c.65 1.18 2.1 1.91 2.26 3.26.14 1.18-.85 2.16-1.66 3-3.41 3.7 4.26 5.63 6.1 3.12 2.04-2.8 1.02-9.92 5.33-10.84z" transform="translate(-12.25 -1.43)"/><path class="cls-11" d="M575 302.48h-13.63c.22-5.59-2.06-11.28-2.33-17a43.18 43.18 0 00-.36-6.43 12.92 12.92 0 00-.44-1.62c-.34-1.08-.77-2.14-1.09-3.23-1.09-3.63-1-7.48-1-11.27q.09-6.27.19-12.52c0-1.09-.32-2.69.67-3.14 2.23-1 4.54 1 6.58 2.33 1.23.82 2.63 1.46 3.82 2.34a7.12 7.12 0 011.82 1.81 10.5 10.5 0 011.21 3.15q2.47 9.48 4.32 19.12a60.33 60.33 0 011.17 8.47c.37 6-.88 12.04-.93 17.99zM490.17 296a10.38 10.38 0 00-1.13 4.47 6.56 6.56 0 00.47 2h-12.38a45.35 45.35 0 01-1.4-6.42c-.59-4.23 1.21-7.32 1.76-11.56a62.63 62.63 0 012.34-11.33c1.43-4 2-7.24 4-11 .46-.89.87-1.88 1.36-2.75 1-1.93 5-14.19 7.67-12.9 6.65 3.2 6.9 25.29 5 31.83a.06.06 0 010 .06 31.3 31.3 0 01-2 4.83q-2.97 6.3-5.69 12.77z" transform="translate(-12.25 -1.43)"/><path class="cls-12" d="M386.77 185.05a6.88 6.88 0 013.59 3c.6 1.27.58 2.75 1 4.09.88 2.84 3.51 4.69 5.15 7.17 2.23 3.35 2.49 7.61 2.33 11.63s-.67 8.11.34 12c.47 1.9 1.28 3.71 1.61 5.65.4 2.34.07 4.79.67 7.09a18.38 18.38 0 003 5.71l5.2 7.61a59 59 0 01-6.87-2.07 12.29 12.29 0 003.72 5.62l-3.77-4.55a10.5 10.5 0 00-2.8-2.68 15.39 15.39 0 00-4.57-1.22c-3-.61-6-2.13-7.42-4.82-1.95-3.57-.67-8.06-1.79-12-.8-2.86-2.76-5.23-4.12-7.86-3.07-6-2.88-13-3.85-19.68a60.59 60.59 0 01-1.05-8.49c0-2.11.2-6.11 2.41-7.19 1.91-.85 5.45.24 7.22.99z" transform="translate(-12.25 -1.43)"/><path class="cls-8" d="M383.74 233c.28 3 .91 6.64 3.69 7.92 1.57.73 3.4.46 5.11.74 3.22.52 5.84 3 7.36 5.9a25.92 25.92 0 012.34 9.44c.43 4.06.58 8.47-1.66 11.9-1.8 2.77-4.92 4.46-8.12 5.32a22.65 22.65 0 01-18.91-3.51 42.21 42.21 0 01-6.95-6.87c-4.64-5.39-9.3-11.3-10.25-18.35a2.26 2.26 0 01.58-2.24 2.41 2.41 0 011.49-.3l4.44.08c1.13 0 2.41 0 3.17-.85a3.8 3.8 0 00.69-2.92l-.34-12.88a1.87 1.87 0 01.29-1.3 1.72 1.72 0 011-.44c2.45-.41 5 0 7.41-.66s5.84-3.25 7.53-.56c1.39 2.23.92 6.96 1.13 9.58z" transform="translate(-12.25 -1.43)"/><path class="cls-9" d="M383.74 233c.28 3 .91 6.64 3.69 7.92 1.57.73 3.4.46 5.11.74 3.22.52 5.84 3 7.36 5.9a25.92 25.92 0 012.34 9.44c.43 4.06.58 8.47-1.66 11.9-1.8 2.77-4.92 4.46-8.12 5.32a22.65 22.65 0 01-18.91-3.51 42.21 42.21 0 01-6.95-6.87c-4.64-5.39-9.3-11.3-10.25-18.35a2.26 2.26 0 01.58-2.24 2.41 2.41 0 011.49-.3l4.44.08c1.13 0 2.41 0 3.17-.85a3.8 3.8 0 00.69-2.92l-.34-12.88a1.87 1.87 0 01.29-1.3 1.72 1.72 0 011-.44c2.45-.41 5 0 7.41-.66s5.84-3.25 7.53-.56c1.39 2.23.92 6.96 1.13 9.58z" transform="translate(-12.25 -1.43)"/><path class="cls-8" d="M376.26 193.09a19.45 19.45 0 11-19.45 19.45 19.45 19.45 0 0119.45-19.45z" transform="translate(-12.25 -1.43)"/><path class="cls-13" d="M410.33 287.84a16 16 0 01-.48 2.05c-.55 1.57-1.17 3.1-1.87 4.61-.27.62-.52 1.25-.74 1.89a15 15 0 00-.44 1.53c-.13.53-.28 1.21-.39 1.82-.16.91-.27 1.83-.37 2.74h-44.28a27.49 27.49 0 00-.25-6.72 44.67 44.67 0 00-2.73-8.9c-2.83-7.23-6-14.61-7.72-22.15a44.3 44.3 0 01-1.07-15 6.79 6.79 0 01.12-.89 21.9 21.9 0 01.42-2.26 12.45 12.45 0 012.82-5.71c2-2.14 5.35-3.2 7.93-1.83a8 8 0 013.28 3.9c.49 1 .91 2.12 1.34 3.15a32.09 32.09 0 006.71 10c.54.58 1.11 1.1 1.7 1.62s1.11.94 1.69 1.39c1.87 1.44 4.13 3.27 6.58 3.33h4.33c1.29 0 2.59-.05 3.86 0 2.74.06 5.85-.72 7.17-3.12.91-1.64.76-3.65.59-5.52-.14-1.46-.27-2.92-.41-4.38v-.23c-.1-1.06-.2-2.1-.29-3.16l-.15-1.53-.1-1.13c.48-.06 1-.11 1.47-.14a10.92 10.92 0 016.37.94 8.48 8.48 0 013.64 4.77 19.37 19.37 0 01.91 4.39c.65 6.63-.4 13.31 0 20 .19 4.79 1.21 9.79.36 14.54z" transform="translate(-12.25 -1.43)"/><path class="cls-8" d="M420.44 302.48h-13.39c-.11-1.51-.2-3-.25-4.56-.05-1.05-.08-2.11-.1-3.16-.06-2.84 0-5.66.07-8.48a19.2 19.2 0 008.62 2.46 16.7 16.7 0 012.92 4.63 22.14 22.14 0 011 2.87 37.63 37.63 0 011.13 6.24z" transform="translate(-12.25 -1.43)"/><path class="cls-13" d="M419.27 293.35a62.27 62.27 0 00-15 2 31.94 31.94 0 010-9.76l2.16-22.32c.16-1.65-.14-16.83 3.06-14.14 1.17 1 2.66 9.86 3 11.28.56 2.16 1 4.33 1.39 6.52.8 4.49 1.34 9 2.12 13.5.24 1.29 2.11 12.94 3.27 12.92z" transform="translate(-12.25 -1.43)"/><path class="cls-12" d="M383.67 187.81a3.44 3.44 0 00-.4-1.75 3 3 0 00-2.09-1.1c-2.8-.43-5.88.67-8.42-.59-1.34-.67-2.35-2-3.69-2.75-3.16-1.79-7.15 0-9.94 2.32a29 29 0 00-9.33 14.2c-1.24 4.3-1.75 9.33-5.31 12.05-1.47 1.13-3.35 1.75-4.45 3.25a8.42 8.42 0 00-1.18 4c-.37 3.26-.67 6.61.18 9.78.67 2.37 1.91 4.51 2.68 6.83a18.13 18.13 0 01-4.94 18.87 5.88 5.88 0 004.35.75 3.75 3.75 0 01-.63 1.92c4.55-.14 8.51-4.58 13-3.61 3.4.74 5.3 4.25 7.83 6.63 3.27 3.07 8.35 4.36 12.45 2.54s6.59-7 4.85-11.14c-2-4.69-8.09-6.57-10.21-11.22-1.64-3.61-.42-7.81-.78-11.75-.3-3.39-1.76-6.55-2.68-9.82s-1.2-7 .67-9.87 5.74-4.2 9.17-5.35c7.68-2.47 9.2-6.39 8.87-14.19z" transform="translate(-12.25 -1.43)"/><path class="cls-8" d="M374.86 254.6c.48-2.34 1-4.89.11-7.15-1.59-4.22-6.78-5.53-10.38-8.25a14 14 0 01-4.61-6.15c-.66-1.71-.74-4.09.86-5a3.92 3.92 0 012-.35c5.59.13 10.72 3.17 15 6.77A20.47 20.47 0 01384 242a25.15 25.15 0 011.42 6.75l.87 7.59a117.66 117.66 0 011 13.13 57.45 57.45 0 01-.47 7.53 11.16 11.16 0 01-1.6 5.05c-1.94 2.71-5.66 3.32-9 3.41a15.79 15.79 0 01-3.76-.24c-5.53-1.2-9.72-9-5.54-13.74 1.75-2 4.45-2.08 5.46-4.87 1.36-3.67 1.68-8.14 2.48-12.01z" transform="translate(-12.25 -1.43)"/><path class="cls-13" d="M370.36 255.93l4.37 7.14a3.29 3.29 0 01.53 1.23 3.83 3.83 0 01-1.12 2.5c-3.76 5.14-2.81 12.21-1.67 18.48a33.55 33.55 0 01-23.05-27.15c-.55-3.73-1.44-9.87 1.87-12.3 7.98-5.83 15.33 3.99 19.07 10.1z" transform="translate(-12.25 -1.43)"/><path class="cls-12" d="M392.54 241.64c-1.71-.28-3.51 0-5.11-.74-2.78-1.28-3.41-4.88-3.69-7.92a6 6 0 00-.05-.92 24 24 0 013.23-2.81 15.94 15.94 0 013.3-1.46l3.08-1.08a16.9 16.9 0 01.67 2.51c.34 2 .06 4.18.58 6.19a16.25 16.25 0 002.61 5l4.54 6.59c-.82-.2-1.64-.42-2.45-.65a10.3 10.3 0 00-6.71-4.71z" transform="translate(-12.25 -1.43)"/><path class="cls-14" d="M100.7 358.08c1.75-3.22-.23-7.17-2.5-10s-5-5.84-5-9.51c.09-5.26 5.67-8.36 10.13-11.16a48.77 48.77 0 009.09-7.3 13.3 13.3 0 002.79-3.74 15.14 15.14 0 00.84-6.64q-.3-11.25-1.11-22.49" transform="translate(-12.25 -1.43)"/><path class="cls-13" d="M123.43 286.79a8.19 8.19 0 00-4.09-6.72l-1.83 3.64.06-4.4a8.27 8.27 0 00-2.71-.33 8.18 8.18 0 108.58 7.81zm-14.62 55.49a8.17 8.17 0 11.4-6.6l-5.13 4.17 5.64-1.31a8.13 8.13 0 01-.91 3.74zm-4.05-15.92a8.18 8.18 0 01-2.6-16.08v3.38L104 310a8.18 8.18 0 018.59 7.75v.09a8.29 8.29 0 01-.35 2.8 8.2 8.2 0 01-7.48 5.72zm19.9-13.22a8.18 8.18 0 113.63-15.34l-1.45 4 3-2.86a8.18 8.18 0 012.65 5.66 7.81 7.81 0 01-.21 2.26 8.15 8.15 0 01-7.62 6.28z" transform="translate(-12.25 -1.43)"/><path class="cls-9" d="M122.33 289c-1.9.2-3.73.79-5.63.91s-4-.33-5.19-1.81a25.06 25.06 0 01-1.51-2.67 5.75 5.75 0 00-2.07-2 8.18 8.18 0 0014.54 7.51l.21-.45a8.61 8.61 0 00.58-1.61c-.32.04-.62.06-.93.12zm2.33 24.14a8.17 8.17 0 01-7.79-11.68 6 6 0 011.64 1.65 26.65 26.65 0 001.63 2.71 6.7 6.7 0 005.44 1.9c2-.08 3.89-.65 5.84-.83a4.68 4.68 0 00.83-.05 8.19 8.19 0 01-7.59 6.3zm-19.9 13.22a8.17 8.17 0 01-7.86-11.54 6.62 6.62 0 011.75 1.67 27.33 27.33 0 001.75 2.76 7.64 7.64 0 005.8 2c2.1-.05 4-.55 6-.7a8.17 8.17 0 01-7.44 5.81zm4.05 15.92a8.21 8.21 0 01-15-6.69 8.62 8.62 0 011.8 1.61 32.79 32.79 0 002.2 2.92c1.67 1.65 4.38 2.34 6.79 2.39a34.83 34.83 0 004.21-.23z" transform="translate(-12.25 -1.43)"/><path class="cls-13" d="M88.34 354.37s6.47-.2 8.42-1.59 9.93-3 10.43-.82 9.73 11.1 2.43 11.14-17-1.14-18.93-2.34-2.35-6.39-2.35-6.39z" transform="translate(-12.25 -1.43)"/><path d="M109.75 362.32c-7.31.06-17-1.16-18.93-2.33-1.48-.91-2.07-4.14-2.27-5.64h-.21s.4 5.22 2.33 6.43 11.62 2.37 18.93 2.33c2.11 0 2.83-.76 2.79-1.87-.27.65-1.08 1.07-2.64 1.08z" transform="translate(-12.25 -1.43)" style="isolation:isolate" fill="#8b8fbc" opacity=".2"/><path class="cls-14" d="M641.48 350.12c3.09-5.72-.41-12.74-4.45-17.85s-8.95-10.42-8.84-16.94c.15-9.35 10.07-14.88 18-19.83a87.64 87.64 0 0016.17-13 23.54 23.54 0 005-6.64C669 272.2 669 268 668.85 264q-.52-20-2-40" transform="translate(-12.25 -1.43)"/><path class="cls-13" d="M681.92 223.32a14.56 14.56 0 00-7.28-11.95l-3.27 6.46.1-7.82a14.6 14.6 0 109.86 18.14 14.34 14.34 0 00.59-4.83zM655.91 322a14.61 14.61 0 11.7-11.74l-9.11 7.41 10-2.34a14.44 14.44 0 01-1.59 6.67zm-7.18-28.29a14.6 14.6 0 01-4.63-28.62l-.07 6 3.3-6.54a14.61 14.61 0 012.86 29.07c-.5.05-1 .07-1.5.07zm35.38-23.56a14.61 14.61 0 116.43-27.29l-2.54 7.06 5.31-5.09A14.51 14.51 0 01698 254.9a14.18 14.18 0 01-.37 4 14.6 14.6 0 01-13.52 11.25z" transform="translate(-12.25 -1.43)"/><path class="cls-9" d="M680 227.2c-3.36.37-6.63 1.42-10 1.63s-7.09-.59-9.23-3.23c-1.17-1.41-1.75-3.2-2.7-4.75a10.43 10.43 0 00-3.66-3.45 14.6 14.6 0 1027.26 9.68c-.62.02-1.17.07-1.67.12zm4.11 42.95a14.61 14.61 0 01-13.87-20.8 11 11 0 012.92 2.92c1 1.57 1.66 3.38 2.92 4.82 2.27 2.67 6.15 3.54 9.67 3.39s6.91-1.17 10.43-1.49c.48 0 1-.07 1.46-.08a14.61 14.61 0 01-13.53 11.24zm-35.38 23.56a14.6 14.6 0 01-14-20.53 11.87 11.87 0 013.08 3c1.13 1.61 1.84 3.44 3.17 4.92 2.46 2.74 6.6 3.71 10.32 3.62s7.09-1 10.68-1.25a14.6 14.6 0 01-13.25 10.24zm7.18 28.29a14.6 14.6 0 01-26.59-11.9 14.73 14.73 0 013.2 2.85c1.39 1.69 2.3 3.61 3.9 5.19 3 2.92 7.8 4.13 12.08 4.24a63.19 63.19 0 007.41-.38z" transform="translate(-12.25 -1.43)"/><path class="cls-13" d="M619.49 343.52s11.51-.36 15-2.83 17.71-5.42 18.58-1.46 17.29 19.71 4.3 19.81-30.2-2-33.66-4.13-4.22-11.39-4.22-11.39z" transform="translate(-12.25 -1.43)"/><path class="cls-4" d="M657.57 357.67c-13 .11-30.2-2-33.66-4.13-2.64-1.6-3.69-7.37-4-10h-.38s.72 9.29 4.19 11.4 20.66 4.23 33.66 4.12c3.75 0 5-1.36 5-3.34-.59 1.19-2.02 1.94-4.81 1.95z" transform="translate(-12.25 -1.43)"/></g></g></g></g></svg>