<svg xmlns="http://www.w3.org/2000/svg" viewBox="0 0 995.48 494"><defs><style>.cls-1{fill:#e6e6e6}.cls-2{fill:#fff}.cls-3{fill:#3f3d56}.cls-4{fill:#8b8fbc}.cls-5{fill:#373737}.cls-6{fill:#ffb8b8}.cls-7{fill:#575a89}.cls-8,.cls-9{opacity:.2;isolation:isolate}.cls-9{opacity:.1}.cls-10{fill:#333}.cls-15{fill:#f2f2f2}.cls-16{fill:#3c354c}.cls-17{fill:none;stroke:#3f3d56;stroke-miterlimit:10;stroke-width:4px}</style></defs><g id="レイヤー_2" data-name="レイヤー 2"><g id="レイヤー_1-2" data-name="レイヤー 1"><path class="cls-1" d="M18.4 0h968v494h-968z"/><circle class="cls-2" cx="818.52" cy="270.21" r="172.25" transform="rotate(-79.02 818.517 270.214)"/><path class="cls-3" d="M806.72 476.61c-2 0-4 0-6-.09v-1.43c2.84.09 5.73.11 8.58.07v1.44zm11.3-.33l-.08-1.43c2.84-.17 5.71-.4 8.55-.7l.15 1.43c-2.86.3-5.75.53-8.62.7zm-25.9-.22a189.6 189.6 0 01-8.6-.86l.17-1.42c2.83.34 5.7.63 8.54.85zm43.09-1.58l-.22-1.42c2.82-.43 5.67-.92 8.45-1.48l.28 1.41c-2.81.56-5.67 1.06-8.51 1.49zM775 474c-2.83-.47-5.68-1-8.49-1.63l.31-1.41c2.78.61 5.61 1.15 8.42 1.63zm77.18-2.84l-.34-1.39c2.77-.69 5.55-1.44 8.28-2.25l.41 1.37c-2.75.82-5.55 1.58-8.35 2.27zm-94.07-.82c-2.77-.74-5.56-1.55-8.3-2.42l.44-1.36c2.71.85 5.48 1.66 8.23 2.39zm110.64-4.09l-.47-1.36c2.69-.93 5.39-1.94 8-3l.53 1.33c-2.67 1.07-5.39 2.08-8.1 3zm-127.14-1.13c-2.69-1-5.4-2.06-8.05-3.17l.55-1.33c2.64 1.11 5.32 2.17 8 3.16zm143.17-5.29l-.6-1.3c2.58-1.18 5.18-2.43 7.71-3.72l.66 1.28c-2.56 1.3-5.17 2.56-7.77 3.74zm-159.12-1.43c-2.59-1.23-5.19-2.54-7.73-3.9l.67-1.27c2.52 1.35 5.1 2.65 7.67 3.88zm174.48-6.42l-.72-1.24c2.48-1.41 5-2.9 7.35-4.42l.76 1.22c-2.44 1.46-4.93 2.97-7.42 4.39zm-189.78-1.78c-2.46-1.47-4.93-3-7.33-4.59l.79-1.2c2.38 1.57 4.83 3.1 7.28 4.55zm204.33-7.49l-.82-1.18c2.33-1.63 4.66-3.33 6.91-5.07l.88 1.14c-2.28 1.75-4.66 3.47-6.97 5.11zm-218.77-2c-2.32-1.68-4.63-3.44-6.88-5.24l.89-1.12c2.23 1.78 4.53 3.53 6.83 5.2zm232.46-8.5l-.92-1.1c2.17-1.83 4.33-3.74 6.42-5.67l1 1c-2.13 1.97-4.31 3.9-6.5 5.74zm-246-2.28c-2.16-1.89-4.31-3.86-6.38-5.85l1-1c2.05 2 4.18 3.92 6.32 5.8zm258.66-9.45l-1-1c2-2 4-4.13 5.88-6.24l1.07 1c-1.92 2.13-3.92 4.25-5.93 6.29zm-271.13-2.52c-2-2.08-3.94-4.23-5.81-6.39l1.08-1c1.86 2.15 3.8 4.29 5.77 6.35zm282.7-10.32l-1.11-.91c1.81-2.2 3.59-4.47 5.29-6.75l1.15.85c-1.69 2.27-3.48 4.56-5.3 6.78zm-294-2.73c-1.77-2.24-3.52-4.56-5.2-6.89l1.17-.84c1.66 2.31 3.4 4.61 5.16 6.84zM963 393.76l-1.18-.8c1.6-2.36 3.16-4.79 4.65-7.21l1.23.75c-1.52 2.44-3.1 4.89-4.7 7.26zm-314.46-2.89c-1.56-2.4-3.1-4.86-4.55-7.33l1.24-.73c1.44 2.45 3 4.9 4.51 7.28zM972.05 379l-1.26-.69c1.38-2.5 2.72-5.06 4-7.62l1.29.64c-1.29 2.6-2.65 5.18-4.03 7.67zm-332.28-3c-1.34-2.53-2.64-5.12-3.86-7.71l1.3-.62c1.21 2.57 2.5 5.15 3.83 7.66zm339.94-12.5l-1.31-.57c1.14-2.62 2.24-5.29 3.26-7.95l1.34.51c-1 2.68-2.14 5.38-3.29 8zm-347.3-3.09c-1.1-2.65-2.15-5.35-3.13-8l1.35-.5c1 2.67 2 5.35 3.11 8zm353.51-13.08l-1.36-.45c.89-2.7 1.74-5.46 2.51-8.2l1.38.39c-.78 2.76-1.63 5.54-2.53 8.26zm-359.4-3.14c-.86-2.74-1.66-5.53-2.39-8.31l1.39-.36c.72 2.75 1.52 5.52 2.37 8.24zM990.6 330.7l-1.4-.33c.64-2.76 1.23-5.59 1.75-8.39l1.41.26c-.52 2.82-1.12 5.67-1.76 8.46zm-368.47-3.23c-.6-2.8-1.14-5.66-1.61-8.49l1.42-.23c.46 2.81 1 5.64 1.6 8.42zm371.6-13.77l-1.43-.19c.39-2.81.71-5.68 1-8.52l1.43.13c-.26 2.86-.59 5.75-1 8.58zm-374.43-3.27c-.33-2.85-.61-5.74-.82-8.6l1.43-.11c.21 2.85.48 5.72.82 8.54zm376-13.93l-1.44-.07c.13-2.84.2-5.73.2-8.57h1.43c0 2.87-.07 5.77-.19 8.64zM618 293.19c0-1.76-.07-3.55-.07-5.33v-3.31h1.43v3.28c0 1.77 0 3.55.08 5.29zm376-7.33c0-2.85-.12-5.73-.28-8.58l1.43-.08c.16 2.87.26 5.77.29 8.64zM619.77 276l-1.43-.09c.18-2.87.43-5.77.73-8.61l1.43.15c-.3 2.84-.5 5.71-.73 8.55zm373.31-7.28c-.29-2.83-.64-5.69-1.06-8.51l1.42-.21c.42 2.84.78 5.73 1.07 8.58zM621.62 259l-1.42-.22c.44-2.84.95-5.7 1.52-8.51l1.41.29c-.57 2.74-1.07 5.58-1.51 8.44zm369-7.19c-.55-2.8-1.16-5.62-1.84-8.38l1.4-.34c.68 2.78 1.3 5.62 1.85 8.45zM625 242.15l-1.39-.35c.69-2.78 1.47-5.58 2.29-8.33l1.38.41c-.8 2.73-1.57 5.51-2.28 8.27zm361.49-7c-.79-2.73-1.67-5.48-2.59-8.17l1.35-.47c.94 2.71 1.82 5.48 2.62 8.24zM630 225.71l-1.35-.48c.95-2.71 2-5.44 3.06-8.1l1.33.54a155.18 155.18 0 00-3 8zm351-6.82c-1.05-2.64-2.17-5.29-3.33-7.88l1.31-.59c1.17 2.61 2.3 5.28 3.36 7.94zm-344.6-9.11l-1.3-.6c1.2-2.61 2.47-5.23 3.79-7.78l1.28.65c-1.31 2.54-2.58 5.13-3.77 7.73zm337.52-6.49c-1.29-2.53-2.65-5.07-4-7.54l1.25-.71c1.41 2.49 2.78 5.05 4.08 7.6zm-329.64-8.78l-1.28-.71c1.43-2.49 2.94-5 4.49-7.4l1.2.77c-1.53 2.41-3 4.88-4.45 7.34zm321.2-6.12c-1.51-2.42-3.1-4.82-4.72-7.15l1.18-.82c1.63 2.35 3.23 4.77 4.76 7.21zm-312-8.34l-1.17-.83c1.65-2.35 3.38-4.69 5.14-6.95l1.13.88c-1.7 2.25-3.42 4.57-5.06 6.9zm302.2-5.74c-1.73-2.27-3.53-4.52-5.36-6.69l1.1-.93c1.84 2.2 3.66 4.47 5.4 6.75zM664 166.49l-1.1-.93c1.86-2.18 3.8-4.35 5.76-6.46l1 1c-1.86 2.07-3.78 4.22-5.66 6.39zm280.67-5.32c-1.93-2.1-3.93-4.18-6-6.18l1-1c2 2 4 4.11 6 6.23zm-269-7.22l-1-1c2.06-2 4.18-4 6.32-5.9l1 1.07c-2.11 1.88-4.21 3.88-6.25 5.88zm256.81-4.87c-2.12-1.91-4.3-3.8-6.49-5.62l.92-1.1c2.2 1.82 4.4 3.73 6.53 5.66zm-244-6.55l-.91-1.11c2.22-1.81 4.52-3.6 6.82-5.3l.86 1.15c-2.25 1.73-4.52 3.46-6.72 5.26zm230.8-4.38c-2.28-1.72-4.63-3.41-7-5l.8-1.19c2.37 1.62 4.73 3.32 7 5.05zm-217-5.83l-.8-1.19c2.38-1.59 4.82-3.16 7.27-4.65l.75 1.23c-2.42 1.47-4.85 3.03-7.21 4.61zm202.87-3.86c-2.43-1.51-4.92-3-7.4-4.36l.69-1.25c2.51 1.4 5 2.87 7.46 4.38zm-188.23-5l-.69-1.25c2.51-1.38 5.09-2.71 7.66-4l.63 1.29c-2.55 1.24-5.11 2.57-7.6 3.93zm173.23-3.32c-2.56-1.27-5.17-2.5-7.78-3.66l.58-1.31c2.63 1.16 5.27 2.4 7.84 3.68zM732.3 115.9l-.57-1.31c2.63-1.14 5.31-2.23 8-3.25l.51 1.34a182.98 182.98 0 00-7.94 3.22zm142.14-2.75c-2.65-1-5.38-2-8.08-2.92l.45-1.36c2.73.91 5.47 1.91 8.15 2.94zm-126.13-3.33l-.45-1.36c2.73-.89 5.52-1.74 8.28-2.5l.38 1.38c-2.74.76-5.52 1.6-8.21 2.48zm109.86-2.13c-2.74-.78-5.53-1.51-8.3-2.16l.33-1.4c2.79.66 5.6 1.39 8.36 2.18zm-93.34-2.45l-.31-1.4c2.79-.64 5.64-1.22 8.46-1.73l.26 1.41c-2.8.48-5.63 1.08-8.41 1.72zm76.65-1.48c-2.8-.53-5.65-1-8.47-1.39l.2-1.42c2.85.4 5.71.87 8.53 1.39zm-59.77-1.57l-.19-1.42c2.84-.38 5.73-.7 8.59-1l.12 1.43c-2.83.3-5.7.62-8.52.99zm42.79-.82c-2.83-.27-5.71-.47-8.56-.61l.07-1.43c2.87.14 5.77.34 8.62.61zm-25.71-.67l-.06-1.43c2.64-.11 5.33-.17 8-.17h.65v1.44h-.65c-2.65 0-5.32.05-7.94.16z"/><circle class="cls-2" cx="176.56" cy="216.21" r="172.25" transform="rotate(-45 176.556 216.208)"/><path class="cls-3" d="M188.76 390.62c-2 0-4 0-6-.1v-1.43c2.84.09 5.73.11 8.58.07v1.44zm11.3-.34l-.09-1.43c2.84-.17 5.72-.4 8.55-.7l.15 1.43c-2.85.3-5.75.54-8.61.7zm-25.91-.22a189.6 189.6 0 01-8.6-.86l.18-1.42c2.82.35 5.69.63 8.53.85zm43.09-1.58l-.21-1.42c2.82-.43 5.66-.92 8.44-1.48l.28 1.41c-2.8.56-5.67 1.06-8.51 1.49zM157 388c-2.83-.48-5.68-1-8.49-1.64l.31-1.4c2.78.6 5.61 1.15 8.42 1.62zm77.19-2.85l-.35-1.39c2.77-.68 5.56-1.44 8.28-2.25l.41 1.38a197.1 197.1 0 01-8.34 2.26zm-94.08-.82c-2.77-.74-5.56-1.55-8.29-2.41l.43-1.37c2.71.86 5.48 1.66 8.23 2.39zm110.64-4.09l-.47-1.36c2.69-.93 5.39-1.94 8-3l.53 1.33c-2.66 1.07-5.39 2.09-8.1 3zm-127.13-1.13c-2.7-1-5.41-2.06-8.06-3.17l.56-1.33c2.63 1.11 5.32 2.17 8 3.16zm143.16-5.28l-.59-1.31c2.58-1.17 5.17-2.43 7.71-3.72l.65 1.28c-2.56 1.3-5.17 2.56-7.77 3.75zm-159.12-1.43c-2.59-1.24-5.19-2.55-7.73-3.91l.68-1.26c2.52 1.34 5.1 2.64 7.66 3.87zm174.48-6.42l-.71-1.25c2.47-1.41 4.94-2.9 7.34-4.41l.77 1.21c-2.42 1.47-4.91 2.98-7.4 4.41zM92.39 364.2c-2.46-1.47-4.93-3-7.33-4.59l.79-1.2c2.38 1.57 4.83 3.1 7.28 4.56zm204.33-7.49l-.82-1.18c2.33-1.63 4.66-3.33 6.91-5.07l.88 1.14c-2.27 1.75-4.62 3.47-6.97 5.11zM78 354.69c-2.32-1.69-4.63-3.45-6.88-5.24l.9-1.13c2.23 1.79 4.52 3.53 6.82 5.2zm232.47-8.51l-.93-1.09c2.17-1.84 4.33-3.75 6.43-5.68l1 1c-2.19 2-4.37 3.93-6.55 5.77zm-246-2.28c-2.16-1.89-4.3-3.86-6.37-5.84l1-1c2.06 2 4.18 3.92 6.32 5.8zm258.66-9.45l-1-1c2-2 4-4.12 5.88-6.24l1.07 1c-1.92 2.13-3.91 4.25-5.93 6.29zM52 331.93c-2-2.08-3.93-4.23-5.81-6.39l1.08-.94c1.87 2.14 3.81 4.28 5.77 6.34zm282.7-10.32l-1.11-.91c1.81-2.2 3.59-4.47 5.3-6.75l1.14.86c-1.74 2.29-3.54 4.58-5.36 6.8zm-294-2.72c-1.78-2.25-3.53-4.57-5.21-6.9l1.17-.83c1.66 2.3 3.4 4.61 5.16 6.84zM345 307.76l-1.18-.8c1.6-2.36 3.17-4.78 4.66-7.21l1.22.75c-1.48 2.5-3.06 4.89-4.7 7.26zm-314.44-2.89c-1.56-2.4-3.09-4.87-4.56-7.33l1.24-.73c1.44 2.45 3 4.9 4.51 7.28zM354.08 293l-1.26-.69c1.38-2.5 2.72-5.06 4-7.61l1.29.63c-1.29 2.6-2.64 5.18-4.03 7.67zM21.8 290c-1.34-2.53-2.63-5.12-3.86-7.71l1.3-.61c1.22 2.57 2.5 5.14 3.83 7.65zm339.94-12.5l-1.31-.57c1.14-2.61 2.24-5.29 3.26-7.95l1.34.51c-1 2.69-2.13 5.38-3.29 8zm-347.29-3.09c-1.11-2.64-2.16-5.34-3.14-8l1.35-.49c1 2.66 2 5.34 3.11 8zM368 261.33l-1.36-.45c.89-2.7 1.74-5.46 2.51-8.2l1.38.39c-.77 2.76-1.63 5.55-2.53 8.26zM8.55 258.19c-.86-2.74-1.66-5.53-2.39-8.31l1.39-.36c.72 2.75 1.52 5.53 2.37 8.24zm364.08-13.49l-1.4-.32c.64-2.77 1.23-5.6 1.75-8.4l1.41.26c-.52 2.82-1.11 5.67-1.76 8.46zM4.16 241.47c-.59-2.8-1.14-5.66-1.61-8.49l1.45-.23c.47 2.81 1 5.64 1.6 8.42zm371.6-13.76l-1.43-.2c.39-2.81.72-5.68 1-8.52l1.43.13c-.26 2.86-.58 5.75-1 8.59zM1.34 224.43c-.34-2.84-.62-5.74-.83-8.6l1.43-.11c.21 2.85.48 5.72.82 8.54zm376-13.93l-1.44-.07c.13-2.84.2-5.72.2-8.57h1.43c0 2.87-.06 5.77-.19 8.64zM.07 207.2c0-1.76-.07-3.56-.07-5.34v-3.31h1.43v3.28c0 1.77 0 3.55.08 5.3zm376-7.34c0-2.85-.13-5.73-.29-8.58l1.44-.08c.16 2.87.25 5.78.28 8.64zM1.8 190l-1.43-.09c.18-2.87.43-5.77.74-8.61l1.42.15c-.3 2.84-.53 5.71-.73 8.55zm373.31-7.28c-.28-2.83-.64-5.69-1.06-8.51l1.42-.21c.42 2.84.78 5.73 1.07 8.58zM3.65 173l-1.42-.22c.44-2.84 1-5.7 1.52-8.51l1.41.29c-.57 2.74-1.07 5.58-1.51 8.44zm369-7.19c-.54-2.8-1.16-5.62-1.83-8.37l1.39-.34c.68 2.78 1.3 5.62 1.85 8.44zm-365.6-9.66l-1.39-.34c.7-2.78 1.47-5.59 2.29-8.34l1.38.42c-.82 2.72-1.59 5.51-2.28 8.26zm361.5-7c-.8-2.73-1.68-5.48-2.6-8.17l1.35-.47c.94 2.71 1.82 5.48 2.63 8.24zM12 139.71l-1.35-.48c.95-2.71 2-5.44 3.06-8.1l1.33.54c-1.07 2.64-2.09 5.35-3 8zm351-6.82c-1-2.64-2.17-5.29-3.33-7.88l1.31-.58c1.17 2.6 2.3 5.27 3.36 7.94zm-344.57-9.11l-1.3-.6c1.2-2.61 2.47-5.23 3.79-7.78l1.28.66c-1.31 2.53-2.58 5.13-3.77 7.72zM356 117.29c-1.29-2.53-2.65-5.07-4.05-7.54l1.25-.71c1.41 2.49 2.78 5 4.08 7.6zm-329.69-8.77l-1.24-.72c1.43-2.49 2.94-5 4.49-7.4l1.21.78c-1.54 2.4-3 4.87-4.46 7.34zm321.21-6.13c-1.52-2.41-3.11-4.82-4.73-7.15l1.18-.82c1.63 2.35 3.23 4.77 4.76 7.21zm-312-8.34l-1.17-.83c1.65-2.35 3.38-4.68 5.14-7l1.14.88c-1.72 2.3-3.44 4.62-5.08 6.95zm302.2-5.74c-1.73-2.26-3.53-4.52-5.35-6.69l1.1-.92c1.83 2.19 3.65 4.46 5.39 6.74zM46.07 80.49L45 79.56c1.85-2.18 3.79-4.35 5.75-6.45l1.05 1c-1.97 2.06-3.89 4.22-5.73 6.38zm280.67-5.32c-1.93-2.1-3.93-4.18-5.94-6.18l1-1c2 2 4.05 4.12 6 6.23zM57.77 68l-1-1c2-2 4.17-4 6.31-5.9l1 1.07C61.92 64 59.81 66 57.77 68zm256.81-4.87c-2.12-1.91-4.3-3.8-6.49-5.61l.92-1.11c2.2 1.82 4.4 3.73 6.53 5.66zm-244-6.55l-.91-1.11c2.22-1.81 4.52-3.59 6.82-5.3l.86 1.15C75 53 72.76 54.74 70.56 56.53zm230.8-4.38c-2.28-1.72-4.63-3.4-7-5l.82-1.2c2.36 1.61 4.73 3.31 7 5zm-217-5.82l-.81-1.19c2.38-1.6 4.83-3.17 7.28-4.66l.74 1.23a119.9 119.9 0 00-7.26 4.57zm202.86-3.87c-2.42-1.5-4.91-3-7.4-4.35l.7-1.26c2.5 1.4 5 2.87 7.46 4.39zM99 37.43l-.69-1.26c2.51-1.38 5.09-2.71 7.66-4l.63 1.29A182.12 182.12 0 0099 37.4zm173.19-3.33c-2.55-1.27-5.17-2.5-7.77-3.65l.58-1.32c2.62 1.16 5.26 2.4 7.83 3.69zm-157.86-4.19l-.57-1.32c2.63-1.14 5.32-2.23 8-3.25l.51 1.35c-2.66 1-5.33 2.09-7.94 3.22zm142.15-2.76c-2.66-1-5.38-2-8.09-2.92l.46-1.36c2.72.92 5.47 1.91 8.14 2.95zm-126.14-3.32l-.44-1.37c2.72-.89 5.51-1.73 8.27-2.5l.38 1.38c-2.74.76-5.5 1.6-8.21 2.49zm109.86-2.14c-2.74-.78-5.53-1.51-8.3-2.16l.33-1.4c2.79.66 5.6 1.4 8.36 2.18zm-93.33-2.45l-.32-1.4c2.79-.64 5.64-1.22 8.46-1.73l.26 1.41c-2.8.48-5.63 1.09-8.4 1.72zm76.64-1.48c-2.8-.53-5.64-1-8.46-1.39l.2-1.42c2.84.4 5.71.87 8.52 1.4zm-59.77-1.56l-.19-1.43c2.84-.38 5.73-.7 8.59-.94l.12 1.42c-2.83.25-5.7.57-8.52.95zm42.79-.83c-2.83-.26-5.71-.47-8.56-.61l.07-1.43c2.88.14 5.77.34 8.62.61zm-25.71-.66l-.06-1.44c2.64-.11 5.33-.17 8-.17h.65v1.43h-.64c-2.66.01-5.33.07-7.95.18z"/><path class="cls-1" d="M99.6 99.38h132.29v3.7H99.6z"/><path class="cls-4" d="M64.75 161.35L66 159.4a27.68 27.68 0 00-1.29-3l-.81.66.64-1c-.61-1.21-1.1-2-1.1-2a28 28 0 00-3.36 8.19l1.61 2.5-1.79-1.45a12.37 12.37 0 00-.09 1.48c0 5 1.62 9 3.64 9s3.64-4 3.64-9a15.45 15.45 0 00-.84-4.66z"/><path class="cls-4" d="M73.67 165.68l2.26-.49a27.76 27.76 0 001.23-3.05l-1-.11 1.16-.25c.42-1.29.61-2.17.61-2.17a28 28 0 00-8.21 3.39l-.62 2.91-.25-2.29a11.44 11.44 0 00-1.11 1c-3.53 3.53-5.24 7.54-3.82 9s5.44-.29 9-3.81a15.44 15.44 0 002.71-3.89z"/><path class="cls-5" d="M74.49 185c-5.25.34-11 0-17.07 0v-14a61.73 61.73 0 0017.07 0z"/><path class="cls-1" d="M220.62 189.36h70.95v92.01h-70.95zm-148.18 4.8h3.7v87.21h-3.7z"/><path class="cls-1" d="M38.81 183.08h252.76v7.39H38.81zm31.78 7.39h7.39v7.39h-7.39z"/><path class="cls-5" d="M261.68 194.72l-.42 1.66h-10.34l-.63-1.66h-26.35v17h64.3v-17h-26.56zm0 21.43l-.42 1.66h-10.34l-.63-1.66h-26.35v17h64.3v-17h-26.56zm0 21.43l-.42 1.67h-10.34l-.63-1.67h-26.35v17h64.3v-17h-26.56zm0 21.44l-.42 1.66h-10.34l-.63-1.66h-26.35v16.99h64.3v-16.99h-26.56z"/><path class="cls-1" d="M175.9 181.97h-21.8l.74-9.61h20.32l.74 9.61z"/><path class="cls-1" d="M152.99 180.86h24.39v2.22h-24.39z"/><path class="cls-5" d="M206.76 110.47h-83.33a2.22 2.22 0 00-2.22 2.21v50.81H209v-50.81a2.22 2.22 0 00-2.22-2.21z"/><path class="cls-1" d="M121.21 163.49v8.32a2.22 2.22 0 002.22 2.21h83.33a2.22 2.22 0 002.22-2.21v-8.32z"/><path class="cls-2" d="M125.65 115.08h79.08v44.34h-79.08z"/><path class="cls-5" d="M165.19 166.45a2.22 2.22 0 11-2.22 2.22 2.21 2.21 0 012.22-2.22zm-13.9-38.85h21.32v1.22h-21.32z"/><path class="cls-4" d="M151.29 132.07h32.93v1.22h-32.93zm0 4.2h26.83v1.22h-26.83z"/><path class="cls-5" d="M151.29 140.46h15.67v1.22h-15.67zm0 4.19h23.64v1.22h-23.64zm-9.72-17.48h2.61v2.61h-2.61z"/><path class="cls-4" d="M141.57 131.37h2.61v2.61h-2.61zm0 4.21h2.61v2.61h-2.61z"/><path class="cls-5" d="M141.57 139.79h2.61v2.61h-2.61zm0 4.2h2.61v2.61h-2.61z"/><path class="cls-4" d="M201.06 125.28h-11.19a39.31 39.31 0 010-13.34h11.19a24.1 24.1 0 000 13.34z"/><path class="cls-6" d="M118.45 156.18s-3.08 11.88-4.84 12.87 14.1 2.47 14.1 2.47-.44-11.38.44-12.37-9.7-2.97-9.7-2.97z"/><path class="cls-5" d="M146.82 219.89s28.14-2 31.89 5.45-2.34 45.93-2.34 45.93h-11.88l-.16-30.59s-50.66-11.4-50.66-15.36 33.15-5.43 33.15-5.43z"/><path class="cls-5" d="M176.15 270.1l6.82 2.74s8.2-.69 4.78 5.46a13.56 13.56 0 01-9.56 6.83s-13 4.78-13.65 0 3.46-14.34 3.46-14.34zm-44.96-50.21s28.13-2 31.89 5.45S161 272 161 272h-11.85l-.46-31.32s-35.95-6.59-35.95-10.55c0-1.86-2.45-11.31 1.86-13.31 4.88-2.24 16.59 3.07 16.59 3.07z"/><path class="cls-5" d="M159.08 270.1l6.82 2.74s8.2-.69 4.78 5.46a13.52 13.52 0 01-9.55 6.83s-13 4.78-13.66 0 3.42-14.34 3.42-14.34zM119.1 162.15l-5.1-1.24a13.11 13.11 0 01-13.11-13.09 12.76 12.76 0 01.25-2.61 17.13 17.13 0 0117.1-17.14 17.12 17.12 0 0117.15 17.1 13.61 13.61 0 01-16.29 16.98z"/><path class="cls-6" d="M124.66 138.77a12.59 12.59 0 11-12.58 12.58 12.58 12.58 0 0112.58-12.58z"/><path class="cls-5" d="M100.24 124.87a8.13 8.13 0 11-8.13 8.13 8.13 8.13 0 018.13-8.13z"/><path class="cls-5" d="M107.74 128.63a8.13 8.13 0 00-8.13-8.12 7.82 7.82 0 00-1.6.16 8.12 8.12 0 116.99 14.69 8.38 8.38 0 01-1.87.62 8.14 8.14 0 004.61-7.35zm6.97 4.61l11-2 8.43 5.28A12.78 12.78 0 01140 149l-8.44-2.14-1.89-4.73-2.25 3.68-11.77 15.15-6.6-4.21-5.89-9.23z"/><path class="cls-7" d="M112.31 166.84l14.87 1.62a11 11 0 019.53 8.62l5.78 20.11s2 27.22-2 28.7-9.4-5.94-16.82-4.95-17.08 3.22-17.08 3.22-1.53-41.46-1.73-45.44c-.38-7.97 7.45-11.88 7.45-11.88z"/><path class="cls-8" d="M128.05 183.35s3.1 12.77 4.95 19.23 9.84 8.81 9.84 8.81l.18 19.06L131.55 208z"/><path class="cls-5" d="M91.1 289.28l-1.75-.6 16.92-50.26 2.45.84-17.62 50.02zm64.67 0l1.74-.6-16.92-50.26-2.44.84 17.62 50.02zm-35.76 10.38l1.85.01.58-58.75-2.59-.01.16 58.75z"/><path class="cls-4" d="M86.82 208.89l5.07 20.49a16.26 16.26 0 0011.84 11.87 86.45 86.45 0 0043-.28l7.57-2a10.69 10.69 0 008-9.47 9.36 9.36 0 00-.85-4.67l-.09-.19a12.37 12.37 0 00-10.74-7l-8-.26-29.2-12.93s-10-5.1-18.29-5.67a8.09 8.09 0 00-8.31 10.11z"/><path class="cls-1" d="M235.95 144.46h28.82v39.17h-28.82z"/><path class="cls-2" d="M239.28 148.98h22.17v30.13h-22.17z"/><path class="cls-5" d="M248 156.87h10.74v1.22H248zm-6.02-.68h2.61v2.61h-2.61zm6.02 5.85h10.74v1.22H248zm-6.02-.68h2.61v2.61h-2.61zm6.02 5.85h10.74v1.22H248zm-6.02-.67h2.61v2.61h-2.61zm8.38-20.97a1.11 1.11 0 011.11 1.11 1.11 1.11 0 01-1.11 1.11 1.11 1.11 0 01-1.1-1.11 1.11 1.11 0 011.1-1.11z"/><path class="cls-4" d="M178.12 178.72a4.34 4.34 0 11-4.13 4.33 4.24 4.24 0 014.13-4.33zm0 7a2.67 2.67 0 10-2.54-2.67 2.61 2.61 0 002.54 2.67z"/><path class="cls-4" d="M194 175.39h-15.88v15.4a3.19 3.19 0 003.11 3.26h9.66a3.19 3.19 0 003.11-3.26v-15.4z"/><path class="cls-9" d="M181 175.39v15.41a3.17 3.17 0 003.09 3.25h-1.58a3.18 3.18 0 01-3.1-3.25v-15.41z"/><path class="cls-4" d="M186.25 165c-.18.25-1.86 2.36-2 2.65a1.63 1.63 0 000 1c.11.21.77 1.76.94 2.1a2.09 2.09 0 01-.55 2.47c-.16.21-.05.42.09.3a21 21 0 002-2.82 1.07 1.07 0 000-1.14 16.68 16.68 0 01-.88-2.19c-.25-1-.2-1.19.49-2.2.19-.26.12-.51-.09-.17zm3.14 2c-.13.19-1.29 1.76-1.36 2a1.33 1.33 0 000 .72c.08.15.53 1.32.65 1.57a1.66 1.66 0 01-.37 1.84c-.12.16 0 .32 0 .23a15.24 15.24 0 001.42-2.11.86.86 0 000-.85 14.52 14.52 0 01-.6-1.64c-.18-.72-.14-.88.34-1.64.11-.12.06-.36-.08-.12zm-6.77 0c-.12.19-1.29 1.76-1.35 2a1.33 1.33 0 000 .72c.07.15.53 1.32.65 1.57a1.64 1.64 0 01-.38 1.84c-.12.16 0 .32.06.23a15.19 15.19 0 001.41-2.11.83.83 0 000-.85 12.8 12.8 0 01-.6-1.64c-.18-.72-.15-.88.33-1.64.08-.12.03-.36-.12-.12z"/><path class="cls-6" d="M156.79 191.06l7.82-8.06s10.94-5.83 12.16 2.72c1.45 10.16-11.43 6-11.43 6l-9.8 4.53z"/><path class="cls-6" d="M168.21 182s9.48-4.86 8.62-1.49-7.36 5.23-7.36 5.23z"/><path class="cls-7" d="M123.84 171.05l4.95-2.48s10.39 1.49 12.37 8.42c1 3.38 6.4 17.44 6.4 17.44l11.79-7.62 7.08 6.53s-10 11.25-16.33 16.33c-5.9 4.72-15.24-1.45-15.24-1.45z"/><path class="cls-1" d="M684.61 377.1c-33.1 4.49-64.68 6.14-93.9 3.37a224.93 224.93 0 01-30.81-5.29c-18.58-4.39-41.38-4.39-66.44-2.05a190.6 190.6 0 00-44.73 9.48c-19.42 6.73-40.69 6.14-63.25.52a115.53 115.53 0 01-26.55-10.58c-16.49-8.86-36-5.65-57.28 4.55V171.41c19.86-8.65 39.2-10 57.93-2.76a122.18 122.18 0 0021.1 6.3 166.25 166.25 0 0078.32-3.54c34.44-11.67 70.46-8 106.94 0 40.64 8.58 80.25 9.09 118.63 0z"/><path class="cls-6" d="M623 323.27s-30.23-5.56-26.4 6.25 29.07 4.17 29.07 4.17z"/><path class="cls-2" d="M684.61 377.1c-33.1 4.49-64.68 6.14-93.9 3.37a224.93 224.93 0 01-30.81-5.29c-18.58-4.39-41.38-4.39-66.44-2.05a190.6 190.6 0 00-44.73 9.48c-19.42 6.73-40.69 6.14-63.25.52a115.53 115.53 0 01-26.55-10.58c-16.49-8.86-36-5.65-57.28 4.55V171.41c19.86-8.65 39.2-10 57.93-2.76a122.18 122.18 0 0021.1 6.3 166.25 166.25 0 0078.32-3.54c34.44-11.67 70.46-8 106.94 0 40.64 8.58 80.25 9.09 118.63 0z"/><path class="cls-10" d="M353.92 311.13a14.47 14.47 0 00-10.09-4.13c-8.08 0-13.54 6-13.54 14.16 0 7.86 5.68 13.93 13.6 13.93a14.73 14.73 0 0010-4.29v6.75a20.24 20.24 0 01-10.2 2.78 18.62 18.62 0 01-13.15-5.12 18.23 18.23 0 01-6-14 19.47 19.47 0 016-14.55c3.84-3.62 8.3-4.85 13.43-4.85a17.68 17.68 0 019.92 2.68zm8.08 5.01h5.46v2.12a9.61 9.61 0 012.29-1.95 6.34 6.34 0 013.34-.78 8 8 0 014.29 1.12l-2.23 5a4.94 4.94 0 00-2.78-.84 4.27 4.27 0 00-3.4 1.28c-1.51 1.62-1.51 3.85-1.51 5.41v12.15H362v-23.51zm40.38 18.12a12.35 12.35 0 01-3.95 4.29 12.9 12.9 0 01-6.91 1.78 10.4 10.4 0 01-7.92-3 12.59 12.59 0 01-3.46-9 13.76 13.76 0 013.74-9.64 10.69 10.69 0 017.86-3.18 10.13 10.13 0 017.52 3.06c3 3.13 3.29 7.47 3.29 9.93v.67h-16.83a7.78 7.78 0 002 4.74 5.6 5.6 0 004.18 1.5 5.8 5.8 0 003.74-1.17 8.48 8.48 0 002.17-2.56zm-5.4-9.53a5.71 5.71 0 00-1.67-3.18 5.69 5.69 0 00-7.53.17 6.14 6.14 0 00-1.67 3zm29.59-8.59H432v23.47h-5.46v-2.45a9 9 0 01-7 3.17c-7.24 0-11.36-6-11.36-12.48 0-7.64 5.23-12.32 11.42-12.32a8.56 8.56 0 017 3.35v-2.74zM413.74 328c0 4.07 2.57 7.47 6.53 7.47 3.46 0 6.63-2.51 6.63-7.41 0-5.13-3.17-7.58-6.63-7.58-4 0-6.53 3.34-6.53 7.52m33.17-6.84v18.45h-5.46v-18.45h-2.29v-5.02h2.29v-8.58h5.46v8.58h4.18v5.02h-4.18zm33.79 6.75a12.55 12.55 0 01-25.09 0c0-7.25 5.47-12.38 12.54-12.38s12.55 5.13 12.55 12.38m-5.58 0c0-5.35-3.51-7.52-7-7.52s-7 2.17-7 7.52c0 4.51 2.67 7.47 7 7.47s7-2.95 7-7.47m13.2-11.77h5.47v2.12a9.56 9.56 0 012.28-1.95 6.35 6.35 0 013.35-.78 8 8 0 014.29 1.12l-2.23 5a5 5 0 00-2.79-.84 4.27 4.27 0 00-3.4 1.28c-1.5 1.62-1.5 3.85-1.5 5.41v12.15h-5.47v-23.51zm25.13-15.6l4.91 1.89-6.91 13.77-3.68-1.51 5.68-14.15zm12.32 21.79a4 4 0 00-3.35-2 2.28 2.28 0 00-1.67.62 1.73 1.73 0 00-.5 1.22 1.49 1.49 0 00.78 1.34c.33.23.67.34 1.84.95l2.78 1.39A11.49 11.49 0 01529 328a5.79 5.79 0 011.72 4.35 7.78 7.78 0 01-2.06 5.34 8.38 8.38 0 01-6.58 2.62 8.08 8.08 0 01-5.07-1.5 9.14 9.14 0 01-3-4.29l4.46-2.12a6.26 6.26 0 001.28 2.23 3.37 3.37 0 002.4.89 3.31 3.31 0 002.23-.78 2.8 2.8 0 00.78-1.84 2.54 2.54 0 00-.73-1.78 7.2 7.2 0 00-2.34-1.45l-2-.95a11.31 11.31 0 01-3.23-2 5.09 5.09 0 01-1.67-4 7.35 7.35 0 012-5 7.58 7.58 0 015.74-2.23 7.38 7.38 0 014.35 1.23 8 8 0 012.67 2.9zm66.59-11.2a14.49 14.49 0 00-10.09-4.13c-8.08 0-13.54 6-13.54 14.16 0 7.86 5.68 13.93 13.6 13.93a14.75 14.75 0 0010-4.29v6.75a20.24 20.24 0 01-10.2 2.78 18.6 18.6 0 01-13.13-5.12 18.23 18.23 0 01-6-14 19.43 19.43 0 016-14.55c3.84-3.62 8.3-4.85 13.43-4.85a17.68 17.68 0 019.92 2.68v6.69zm23.57 5.01h5.46v23.47h-5.46v-2.45a9 9 0 01-7 3.17c-7.24 0-11.37-6-11.37-12.48 0-7.64 5.24-12.32 11.43-12.32a8.56 8.56 0 017 3.35v-2.74zM603.11 328c0 4.07 2.56 7.47 6.52 7.47 3.46 0 6.63-2.51 6.63-7.41 0-5.13-3.18-7.58-6.63-7.58-4 0-6.52 3.34-6.52 7.52m33.37-6.84v18.45H631v-18.45h-2.34v-5H631V308c0-3.61 1-5.9 2.29-7.35a7.34 7.34 0 015.57-2.29 8.83 8.83 0 013.52.67v5.41a4.73 4.73 0 00-2.62-.84 3.14 3.14 0 00-2.4.9 3.83 3.83 0 00-.89 2.78v8.87h5.91v5zm31.52 13.1a12.47 12.47 0 01-4 4.29 12.85 12.85 0 01-6.91 1.78 10.42 10.42 0 01-7.92-3 12.58 12.58 0 01-3.45-9 13.75 13.75 0 013.73-9.64 10.7 10.7 0 017.86-3.18 10.13 10.13 0 017.52 3.06c3 3.13 3.29 7.47 3.29 9.93v.67h-16.84a7.79 7.79 0 002 4.74 5.58 5.58 0 004.18 1.5 5.77 5.77 0 003.73-1.17 8.52 8.52 0 002.18-2.56zm-5.41-9.53a5.64 5.64 0 00-1.67-3.18 5.69 5.69 0 00-7.53.17 6.14 6.14 0 00-1.67 3z"/><path class="cls-4" d="M450.19 263.94a17.72 17.72 0 0012.22-2.14v-5.9a12.87 12.87 0 01-8.77 3.76 12.05 12.05 0 01-5.75-1.41 10.93 10.93 0 001.45 4.28zm3.4-28.86a12.67 12.67 0 018.82 3.61v-5.85a15.47 15.47 0 00-8.67-2.34c-4.49 0-8.39 1.07-11.76 4.24a17 17 0 00-5.21 12.73 16.1 16.1 0 002.83 9.53v-.27a20.37 20.37 0 011-6.51l1.14-3.41c.26-6.81 4.99-11.73 11.85-11.73zm48.59-53.52c-.66.94-6.85 8.66-7.18 9.73a5.82 5.82 0 00.1 3.53c.39.75 2.82 6.45 3.46 7.69 2.06 4.05-.28 6.86-2 9.06-.61.77-.18 1.55.3 1.1a75.89 75.89 0 007.53-10.34 3.93 3.93 0 00-.18-4.19 62.38 62.38 0 01-3.21-8c-1-3.55-.75-4.36 1.79-8.07.43-.68.21-1.62-.61-.51zm11.5 7.44c-.46.71-4.73 6.47-5 7.27a4.76 4.76 0 00.07 2.64c.27.56 1.95 4.82 2.39 5.75 1.43 3-.19 5.12-1.39 6.77-.43.58-.13 1.16.2.82a56.6 56.6 0 005.2-7.72 3.16 3.16 0 00-.12-3.14 47.52 47.52 0 01-2.22-6c-.65-2.65-.51-3.26 1.24-6 .35-.5.17-1.21-.37-.39zm-24.83 0c-.45.71-4.71 6.47-5 7.27a4.67 4.67 0 00.07 2.64c.27.56 1.95 4.82 2.38 5.75 1.44 3-.18 5.12-1.38 6.77-.43.58-.13 1.16.2.82a57.53 57.53 0 005.2-7.72 3.16 3.16 0 00-.12-3.14 47.52 47.52 0 01-2.22-6c-.65-2.65-.51-3.26 1.23-6 .37-.5.18-1.21-.36-.39zm-12.21 78.71c-1.36-3.12-1.93-12-.45-21l.08-.54-7.74 5.47v.11c-.39 6.13-.73 11.41.83 16.79a18.86 18.86 0 009.6 11.64 54.49 54.49 0 003.83-5.89 14.11 14.11 0 01-6.15-6.58z"/><path class="cls-10" d="M466.85 248a12.67 12.67 0 00-8.82-3.61c-7.07 0-11.85 5.22-11.85 12.39 0 6.87 5 12.19 11.89 12.19a12.87 12.87 0 008.78-3.76v5.9a17.76 17.76 0 01-8.92 2.44 16.27 16.27 0 01-11.51-4.55 15.93 15.93 0 01-5.21-12.28 17 17 0 015.21-12.72c3.36-3.17 7.27-4.24 11.75-4.24a15.5 15.5 0 018.68 2.34zM526 228.57l-.06-.16h-.18c-.17 0-17.29 2.58-25.52 2.58-5.73 0-13.8-.24-19.7-1.37-2.92-.56-4.66-1.37-4.66-2.15 0-1.12 1.84-1.91 5.18-2.24 1.77-.18 10-.83 16.12-.94h1.3c7.6 0 19.8 1 19.92 1h.1l5.39-5.05-.48-.06a228.86 228.86 0 00-24.07-1.64h-2.33c-5.8.13-14.1.76-17.37 1.21-4.39.6-9.5 2.93-9.48 7.49 0 3.41 3.12 5.73 9.48 7.08a101.43 101.43 0 0020.07 1.89 158.35 158.35 0 0020.82-1.59c.19.61.39 1.33.6 2.11l5.8-5.6a19.69 19.69 0 00-.93-2.56zm-3.42 37.29c-.81 3.44-4.36 11.19-19.57 12a3.72 3.72 0 01-1.44 1.67c-1.65 1-3.68 1.4-6.86 1.89a23.82 23.82 0 00-5.73 2.1 63.9 63.9 0 0011.42.93h.6c18.8-.14 25.23-10.61 27.38-16.83 2.22-6.4 1.92-13.73 1.5-18.64l-5.88 5.15a49.41 49.41 0 01-1.42 11.73z"/><path class="cls-5" d="M497.66 261.69l6.67 7.33 2.79-2.41-6.81-7.48-2.65 2.56zm10.87 3.69l46.84-40.6a2.13 2.13 0 00-.07-3l-6.07-6.68a2.14 2.14 0 00-3-.35l-44.59 43.07zm-6.53 9.21a14.46 14.46 0 01.88-4.24l-2.22-2.44-2.23-2.45-2.23-2.46s-1 .64-4.3.48c-1.43-.07-2.86-.15-3.74 1s-1.5 2.54-2.05 5.68c-1 5.71-9.17 15.1-9.17 15.1l.6.71 7.18-6.53a1.2 1.2 0 01.35-1.42 1.24 1.24 0 011.67 1.84 1.19 1.19 0 01-1.44.2l-7.17 6.53.69.75s10.53-6.76 15.64-7.55c3.19-.5 4.91-.82 6.25-1.66s1.14-2.13 1.29-3.54z"/><path class="cls-5" d="M679.63 172.51v198.61c-33.1 4.49-64.68 6.13-93.91 3.37a226.32 226.32 0 01-30.8-5.29c-18.58-4.4-41.39-4.4-66.45-2.06a190.43 190.43 0 00-44.72 9.49c-19.42 6.72-40.7 6.14-63.25.51a115 115 0 01-26.56-10.57c-15.19-8.17-32.95-6.08-52.29 2.28v8.25c21.27-10.2 40.79-13.41 57.28-4.55a115.53 115.53 0 0026.55 10.58c22.56 5.62 43.83 6.21 63.25-.52a190.6 190.6 0 0144.73-9.48c25.06-2.34 47.86-2.34 66.44 2.05a224.93 224.93 0 0030.81 5.29c29.22 2.77 60.8 1.12 93.9-3.37V171.41c-1.61.39-3.32.74-4.98 1.1z"/><path transform="rotate(-30 443.295 147.66)" fill="#ff6584" d="M433.46 137.8h19.73v19.74h-19.73z"/><path class="cls-3" transform="rotate(-30 382.042 235.708)" d="M372.13 225.83h19.73v19.73h-19.73z"/><path transform="rotate(-30 613.503 211.448)" fill="#d0cde1" d="M603.67 201.59h19.73v19.73h-19.73z"/><path class="cls-1" d="M727.32 282.75l-1.52-.94-.43-.28a14.47 14.47 0 001.46-28.19l.07 6-3.27-6.49a14.47 14.47 0 00-15.13 13.78v.83a17.33 17.33 0 01-2.86-4.23c-1.39-3.09-1.41-6.59-1.3-10.86.21-8.43.58-16.94 1.05-25.41a14.46 14.46 0 0012.85-13.7v-1.63c0-.42-.07-.84-.14-1.25a1.38 1.38 0 000-.2c-.06-.35-.13-.69-.21-1 0-.13-.07-.25-.1-.38-.1-.37-.22-.72-.34-1.09 0-.12-.1-.24-.14-.35-.11-.27-.22-.53-.34-.78s-.12-.28-.19-.41a.47.47 0 00-.05-.1 14.46 14.46 0 00-17-7.34l.1 7.76-3.31-6.49a14.39 14.39 0 00-6.9 15.59 2.81 2.81 0 00.08.31c0 .19.09.38.14.57s.15.48.23.72l.18.53c.1.26.22.51.33.76s.12.29.19.43a11.72 11.72 0 00.6 1.1c.07.13.16.24.24.36s.31.49.48.71.22.29.33.42l.48.59c.12.14.24.27.37.4s.36.37.55.55a4.26 4.26 0 00.38.35c.21.19.43.37.66.55l.34.27c.34.24.69.48 1.06.72l.21.12c.3.18.62.35.93.5l.42.19.8.34.48.17q.4.13.81.24l.48.13c.3.07.6.12.91.18h.05c-.19 3.58-.37 7.15-.53 10.73a14.45 14.45 0 00-19.33-6.67q-.39.18-.75.39l2.56 7-5.3-5.02a14.39 14.39 0 00-4.68 10 14.11 14.11 0 00.37 4 14.46 14.46 0 0026.6 3.94v1.09c-.1 3.76-.22 8.43 1.66 12.61a25.61 25.61 0 005.32 7.18c1.31 1.34 2.67 2.64 4.06 3.9a14.68 14.68 0 005.23 4.35q3.44 2.64 7.12 5l1.53.95c1.38.85 2.79 1.73 4.18 2.64l-.73-.06a14.49 14.49 0 00-14.25 9.43l9 7.35-9.94-2.3A14.48 14.48 0 00728 317.7a14.29 14.29 0 006.26-1.44l-.67.84-1.32 1.65c-5.88 7.45-7.52 14.52-4.61 19.92l3.55-1.92c-2.84-5.25 1.43-12 4.22-15.5l1.3-1.63c3.76-4.67 8-10 7.91-16.45-.18-9.79-9.64-15.68-17.32-20.42zm195.49 10.85l1.9-1.18c.18-.11.35-.24.54-.34a18.06 18.06 0 01-15-16.95 17.72 17.72 0 011.56-8.22 18.07 18.07 0 0111.6-10l-.09 7.44 4.08-8.09h.05a18.06 18.06 0 0118.88 17.2v1a21.4 21.4 0 003.57-5.27c1.73-3.87 1.76-8.22 1.63-13.54-.27-10.52-.73-21.13-1.32-31.71a18 18 0 01-16-17.08v-1.64a2.61 2.61 0 010-.4c0-.53.08-1.05.16-1.56v-.24q.12-.66.27-1.29l.12-.48c.13-.46.27-.92.43-1.36 0-.15.12-.29.17-.44.13-.33.27-.66.42-1s.15-.34.24-.5l.06-.13a18 18 0 0121.2-9.16l-.12 9.68 4-8a18 18 0 018.61 19.45c0 .13-.07.25-.1.38s-.12.49-.18.71-.18.6-.28.89-.15.45-.25.67-.26.63-.4.94-.15.37-.24.54c-.23.47-.48.93-.74 1.37l-.3.46c-.19.3-.39.59-.6.88s-.27.35-.41.52-.39.5-.61.74l-.45.5c-.22.24-.45.46-.69.68s-.31.3-.48.44-.54.46-.83.68c-.14.11-.27.23-.42.34-.43.31-.87.61-1.32.89l-.27.15c-.38.22-.76.43-1.16.63-.17.08-.35.15-.52.24-.33.14-.66.29-1 .41l-.59.22-1 .31-.61.16c-.37.08-.74.16-1.12.22h-.08q.38 6.69.67 13.39a18 18 0 0124.21-8.27c.32.16.63.32.94.5l-3.18 8.74 6.56-6.31a18 18 0 015.88 12.46 17.66 17.66 0 01-.46 5 18 18 0 01-33.2 4.92v1.36c.12 4.69.28 10.52-2.06 15.73a31.57 31.57 0 01-6.65 9q-2.46 2.5-5.08 4.85a18.09 18.09 0 01-6.53 5.43q-4.29 3.3-8.88 6.19l-1.91 1.18c-1.72 1.07-3.48 2.16-5.21 3.3.31 0 .61-.07.92-.08a18.06 18.06 0 0117.76 11.75l-11.25 9.1 12.41-2.87a18.07 18.07 0 01-25.89 16.26l.84 1c-5.12-1.33-.7-3.87-.16-3.19 7.34 9.3-20.57-31.55-24.21-24.83l-4.41-2.39c3.53-6.55 14.73 26.66 11.24 22.25-.53-.67 4.89 5.65 4.35 5-4.69-5.83-.73-6.08-.6-14.18.21-12.2 12.06-19.54 21.59-25.45z"/><path d="M825.32 328.74c68.63 0 124.27 3 124.27 6.65S894 342 825.32 342s-124.26-3-124.26-6.65 55.64-6.61 124.26-6.61z" fill="#f5f5f5"/><path class="cls-8" d="M825.08 328c61.42 0 111.21 2.38 111.21 5.32s-49.79 5.32-111.21 5.32-111.2-2.39-111.2-5.32 49.79-5.32 111.2-5.32z"/><path class="cls-5" d="M931 204.17V332a1.74 1.74 0 01-1.74 1.74H721.42a1.74 1.74 0 01-1.74-1.74V204.17a1.74 1.74 0 011.73-1.75h207.81a1.75 1.75 0 011.75 1.74z"/><path class="cls-1" d="M931 203.59v3.91H719.68v-3.91a1.16 1.16 0 011.16-1.17h209a1.16 1.16 0 011.16 1.17z"/><path class="cls-5" d="M723.54 203.63a1.21 1.21 0 11-1.2 1.21 1.21 1.21 0 011.2-1.21zm3.39 0a1.21 1.21 0 11-1.21 1.21 1.21 1.21 0 011.21-1.21zm3.38 0a1.21 1.21 0 11-1.21 1.21 1.21 1.21 0 011.21-1.21z"/><path d="M793.17 220.19h64.31v3.38h-64.31zm-53.43 34.33h49.56v58.02h-49.56zm60.69 0h49.56v58.02h-49.56zm60.68 0h49.56v58.02h-49.56z" style="isolation:isolate" opacity=".2" fill="#e6e6e6"/><path class="cls-6" d="M762.31 284c-.15.88-1 1.42-1.83 1.77a5 5 0 00-2.25 1.33 3.06 3.06 0 00.24 3.36 11.65 11.65 0 002.95 2.82 5.36 5.36 0 001.6.93 5.16 5.16 0 001.36.15 24.89 24.89 0 004.39-.4c1.86-.34 3.85-1 4.83-2.63a7.79 7.79 0 00.68-4.52 5.54 5.54 0 01-2.4-1 4.32 4.32 0 01-2.12-2.18c-.3-1 .18-2.33-.53-3.14a2.75 2.75 0 00-2-.64h-3c-.68 0-2.2-.28-2.76.17-1.05.79 1.02 2.89.84 3.98z"/><path class="cls-9" d="M762.31 284c-.15.88-1 1.42-1.83 1.77a5 5 0 00-2.25 1.33 3.06 3.06 0 00.24 3.36 11.65 11.65 0 002.95 2.82 5.36 5.36 0 001.6.93 5.16 5.16 0 001.36.15 24.89 24.89 0 004.39-.4c1.86-.34 3.85-1 4.83-2.63a7.79 7.79 0 00.68-4.52 5.54 5.54 0 01-2.4-1 4.32 4.32 0 01-2.12-2.18c-.3-1 .18-2.33-.53-3.14a2.75 2.75 0 00-2-.64h-3c-.68 0-2.2-.28-2.76.17-1.05.79 1.02 2.89.84 3.98z"/><circle class="cls-6" cx="765.64" cy="275.66" r="8.05"/><path class="cls-15" d="M780.5 293.63a2.89 2.89 0 01-.4 1.21 1.46 1.46 0 01-.21.28 6 6 0 01-1.49 1c-1.45.89-3.07 2-3.34 3.72a13.79 13.79 0 01-.37 1.54c-.34 1.15-.78 2.28-1 3.43a7.82 7.82 0 00-.21 2 4.48 4.48 0 000 .64 10.53 10.53 0 002 4.49l.33.44.07.1h-23.09c0-.15.08-.3.11-.44s0-.05 0-.07c.23-.92.43-1.85.57-2.78a17.58 17.58 0 00.21-2.51 2.27 2.27 0 01.77-1.93l.12-.44a13.85 13.85 0 000-6.68c0-.14-.08-.27-.11-.41l-.06-.18c-.2-.65-.37-1.3-.51-2a6.51 6.51 0 00-.59-2.32 6 6 0 00-1.81-1.54 4.77 4.77 0 01-.85-.77 1.9 1.9 0 01-.46-1.12 2.19 2.19 0 010-.36 2.83 2.83 0 01.73-1.32 8.1 8.1 0 015.93-2.32h1a2.79 2.79 0 011.14.25 1.86 1.86 0 01.57.47 2.8 2.8 0 01.48.92 4.56 4.56 0 01.2.81 6.5 6.5 0 00.62 2.53c.82 1.35 2.7 1.6 4.25 1.3a9.57 9.57 0 006.58-4.83 9.42 9.42 0 01.49-.88 2 2 0 01.33-.39 13.55 13.55 0 015.89 2.66 6.64 6.64 0 011.4 1.45 5.78 5.78 0 01.71 4.05z"/><path class="cls-6" d="M781.23 308.23a6.88 6.88 0 01-.89 1.9 3.5 3.5 0 01-4.17 1.91h-.63l-3.12-.19a18.64 18.64 0 01-2.47-.26c-.21 0-.43-.1-.64-.16a18.47 18.47 0 00-3.65-.87h-1.19a6 6 0 01-.73 0 11.36 11.36 0 00-1.19-.21 5 5 0 00-2.83 1.14l-.24.15a11.32 11.32 0 01-2 1h-4.19a1.8 1.8 0 01-.2-.19 1.64 1.64 0 01-.19-.25v-.07a2.16 2.16 0 010-1.86 3.35 3.35 0 01.61-.92 8.57 8.57 0 01.88-.83 12.57 12.57 0 015.59-2.9l.44-.08a19.36 19.36 0 013.14-.1h1l4.12.08h.11a11.51 11.51 0 004.9-.61 5.77 5.77 0 00.55-.29 1 1 0 00.39-.33 1.24 1.24 0 00.11-.63v-9.46a2.07 2.07 0 01.59-1.75c.6-.76 2.07-3.43 3.11-3.48a.81.81 0 01.52.15c.88.59.89 2.82.91 3.58s.06 1.66.11 2.5a84.64 84.64 0 001.21 10.15 7.13 7.13 0 01.04 2.88z"/><path class="cls-9" d="M781.23 308.23a6.88 6.88 0 01-.89 1.9 3.5 3.5 0 01-4.17 1.91h-.63l-3.12-.19a18.64 18.64 0 01-2.47-.26c-.21 0-.43-.1-.64-.16a18.47 18.47 0 00-3.65-.87h-1.19a6 6 0 01-.73 0 11.36 11.36 0 00-1.19-.21 5 5 0 00-2.83 1.14l-.24.15a11.32 11.32 0 01-2 1h-4.19a1.8 1.8 0 01-.2-.19 1.64 1.64 0 01-.19-.25v-.07a2.16 2.16 0 010-1.86 3.35 3.35 0 01.61-.92 8.57 8.57 0 01.88-.83 12.57 12.57 0 015.59-2.9l.44-.08a19.36 19.36 0 013.14-.1h1l4.12.08h.11a11.51 11.51 0 004.9-.61 5.77 5.77 0 00.55-.29 1 1 0 00.39-.33 1.24 1.24 0 00.11-.63v-9.46a2.07 2.07 0 01.59-1.75c.6-.76 2.07-3.43 3.11-3.48a.81.81 0 01.52.15c.88.59.89 2.82.91 3.58s.06 1.66.11 2.5a84.64 84.64 0 001.21 10.15 7.13 7.13 0 01.04 2.88z"/><path class="cls-16" d="M760.33 262.89a2.52 2.52 0 00-1.84.89 4.17 4.17 0 00-.38 1.58 3.51 3.51 0 01-1.35 2.16c-.58.43-1.28.66-1.87 1.06a2 2 0 00-1 1.76c.07.63.56 1.1.8 1.69.43 1.07-.08 2.26-.55 3.32s-.92 2.29-.38 3.31 2 1.48 2.47 2.62c.52 1.37-.82 2.84-.65 4.3a2.88 2.88 0 002.53 2.24 2.06 2.06 0 001.65-.36 2.14 2.14 0 00.6-1.58c.07-2.24-1.2-4.29-1.57-6.5a3.47 3.47 0 01.2-2.16c.21-.41.55-.75.73-1.18.38-.9 0-2 .35-2.87a7.8 7.8 0 01.78-1.1 1.31 1.31 0 00.22-1.27 4.47 4.47 0 011.64 1.86c.52-.11.5-1.22 1-1.06.14 0 .23.2.32.31a1.43 1.43 0 001.52.41 3 3 0 001.34-1l.87 1.08a1 1 0 01.95-.6 2.31 2.31 0 011.13.38c1.64 1 2.88 3 2.25 4.82a21.55 21.55 0 01-1.2 2.14 2 2 0 00.13 2.29c.12.13.28.22.38.35.43.51.16 1.28.29 1.92.23 1.18 1.62 1.65 2.79 1.93a2.53 2.53 0 002.38-.28c.63-.66.34-1.74 0-2.57a3.1 3.1 0 01-.41-2.6c.41-.81 1.61-1.09 2-1.94.55-1.08-.42-2.26-.81-3.41-.53-1.57.06-3.33-.37-4.94a6.93 6.93 0 00-1.22-2.23 14.41 14.41 0 00-4.72-4.31 9.19 9.19 0 00-5.6-.86c-1.81.26-3.61.14-5.4.4z"/><path class="cls-15" d="M774.79 297.31a.56.56 0 01-.27-.38q-.81-2.26-1.51-4.56a1.76 1.76 0 01-.12-.85 1.64 1.64 0 01.65-.88 9.8 9.8 0 012.65-1.55c.7-.28 1.72-.76 2.42-.32.86.55-.06 1.94-.38 2.66a27 27 0 01-1.45 2.9c-.16.29-1.78 3.07-1.99 2.98z"/><path class="cls-6" d="M776.18 312a1.54 1.54 0 01-.23.32l-.09.09a.48.48 0 01-.11.09h-4.2a10.63 10.63 0 01-2-1l-.25-.15a4.92 4.92 0 00-2.83-1.13c-.4 0-.79.14-1.19.2a5.81 5.81 0 01-.72 0h-1.2a17.88 17.88 0 00-3.64.88c-.21.05-.43.11-.65.15a17 17 0 01-2.46.26l-3.67.22h-.08a4.58 4.58 0 01-3.15-.6 4.42 4.42 0 01-1-1.3 6.52 6.52 0 01-.89-1.91 7 7 0 01.14-3 85.31 85.31 0 001.31-12.66c0-.75 0-3 .92-3.58a.79.79 0 01.33-.13h.18c1 0 2.51 2.71 3.11 3.47a2.08 2.08 0 01.59 1.76v9.49a1.17 1.17 0 00.12.63.79.79 0 00.12.15 1.51 1.51 0 00.26.18c1.61.95 3.58.94 5.45.9h.11l4.13-.08h1a19.36 19.36 0 013.14.1l.44.07a11.3 11.3 0 014.42 2c.41.28.8.59 1.18.9a5.11 5.11 0 011.49 1.75 2.24 2.24 0 01-.08 1.93z"/><path class="cls-15" d="M754.5 297.31a.6.6 0 00.28-.38c.53-1.51 1-3 1.5-4.56a1.76 1.76 0 00.12-.85 1.64 1.64 0 00-.65-.88 9.65 9.65 0 00-2.65-1.55c-.69-.28-1.72-.76-2.41-.32-.86.55 0 1.94.37 2.66a27 27 0 001.45 2.9c.16.29 1.77 3.07 1.99 2.98z"/><path class="cls-16" d="M885.16 268.77c1.61-.39 2.85 2.26 4.47 2 .89-.18 1.57-1.23 2.47-1.15s1.46 1.49 2 2.51a4.65 4.65 0 004.52 2.63 3.2 3.2 0 00.17-2.78 9.77 9.77 0 01-.73-2.78c0-1.3.7-2.73.06-3.78-.5-.81-1.51-.88-2.25-1.38a8.88 8.88 0 01-1.48-1.57 4.83 4.83 0 00-3-1.58 9 9 0 00-2.86.31l-4.41 1a1.2 1.2 0 00-.69.32 2.26 2.26 0 00-.35.9c-.42 1.37-1.74 2-2.81 2.78s-2.09 2.26-1.49 3.54c.33.73 1.12 1.18 1.2 2a2.77 2.77 0 01-.88 1.87c-1.82 2.28 2.26 3.47 3.24 1.92 1.06-1.82.52-6.2 2.82-6.76z"/><path class="cls-6" d="M884.16 282.74a10.85 10.85 0 00-.84 1.31 3.79 3.79 0 00-.13 2.26 9.49 9.49 0 00.82 2.08 11.87 11.87 0 001.43 2.42 3.3 3.3 0 002.1 1.32 4.21 4.21 0 002.43-.83 2.65 2.65 0 00.88-.73 3.94 3.94 0 00.43-1l.66-2a7.23 7.23 0 00.38-1.54 7 7 0 00-.38-2.45l-1.21-4.22a1.54 1.54 0 00-.29-.65 1 1 0 00-.45-.24 10.46 10.46 0 00-2.34-.48c-.58-.05-1.92-.32-2.43.1s-.27 1.39-.33 2a6.06 6.06 0 01-.73 2.65z"/><path class="cls-9" d="M884.16 282.74a10.85 10.85 0 00-.84 1.31 3.79 3.79 0 00-.13 2.26 9.49 9.49 0 00.82 2.08 11.87 11.87 0 001.43 2.42 3.3 3.3 0 002.1 1.32 4.21 4.21 0 002.43-.83 2.65 2.65 0 00.88-.73 3.94 3.94 0 00.43-1l.66-2a7.23 7.23 0 00.38-1.54 7 7 0 00-.38-2.45l-1.21-4.22a1.54 1.54 0 00-.29-.65 1 1 0 00-.45-.24 10.46 10.46 0 00-2.34-.48c-.58-.05-1.92-.32-2.43.1s-.27 1.39-.33 2a6.06 6.06 0 01-.73 2.65z"/><circle class="cls-6" cx="888.43" cy="274.54" r="7.48" transform="rotate(-.77 893.325 276.12)"/><path class="cls-16" d="M903.07 291.77a13.34 13.34 0 01-1.42 5.31c-.74 1.7-1.67 3.37-2.38 5.11-.06.14-.12.28-.17.42q-1.85 4.77-3.27 9.69l-.07.24H875c1-3.62 1.76-7.25-.51-9.75l-.21-.24c-1.48-1.79-2.15-4.24-3.92-5.76a3 3 0 01-.92-.93c-.14-.29 0-.78 0-1.1s.66-1.24.69-1.52c.18-1.57 0-2.74 1-4a16.46 16.46 0 012.62-2.07 4.35 4.35 0 012.52-1.15c1.73-.39 3.64-.45 5-1.53a5.67 5.67 0 011-.72h.09a1 1 0 011 .11 1.39 1.39 0 01.35.73c.26.94.52 1.88.77 2.81a2.85 2.85 0 00.59 1.27c.68.71 2 .63 2.52 1.45.32.5 1.16-.08 1.52-.55a20.58 20.58 0 002.29-3.61 5.64 5.64 0 01.85-1.41 1.86 1.86 0 01.93-.56 1.19 1.19 0 01.53 0 2.49 2.49 0 011.26.94 28.41 28.41 0 007.44 5.91 1.19 1.19 0 01.54.45.86.86 0 01.09.39.66.66 0 01.03.07zM886 268.39c1.25-.27 2.21 1.52 3.47 1.31.69-.12 1.23-.81 1.92-.77s1.14 1 1.55 1.68a3.72 3.72 0 003.5 1.77 1.88 1.88 0 00.13-1.87 5.76 5.76 0 01-.56-1.87c0-.87.54-1.83 0-2.54-.38-.54-1.17-.59-1.75-.92a7.13 7.13 0 01-1.14-1.06 4 4 0 00-2.34-1.06 7.58 7.58 0 00-2.22.21l-3.43.64a1 1 0 00-.54.21 1.36 1.36 0 00-.27.6c-.33.93-1.35 1.35-2.18 1.87s-1.62 1.52-1.17 2.38c.27.49.88.79.94 1.35s-.35.89-.69 1.26c-1.41 1.53 1.76 2.33 2.53 1.29s.43-4.11 2.25-4.48z"/><path class="cls-16" d="M906.21 312.54h-5.65c.09-2.31-.85-4.66-1-7a16.82 16.82 0 00-.14-2.66c-.05-.23-.11-.45-.18-.67-.15-.45-.32-.89-.46-1.34a15.5 15.5 0 01-.41-4.66l.09-5.19c0-.45-.14-1.11.27-1.3.92-.42 1.88.42 2.72 1 .51.34 1.09.6 1.59 1a3 3 0 01.75.75 4.28 4.28 0 01.5 1.3q1 3.92 1.79 7.91a26 26 0 01.48 3.51c.18 2.39-.34 4.89-.35 7.35zm-35.12-2.69a4.32 4.32 0 00-.46 1.85 2.64 2.64 0 00.19.84h-5.12a18.41 18.41 0 01-.58-2.65c-.24-1.75.5-3 .73-4.79a26.73 26.73 0 011-4.69 35.88 35.88 0 011.65-4.56c.19-.36.36-.77.56-1.14.43-.79 2.07-5.87 3.17-5.33 2.76 1.32 2.86 10.46 2.09 13.17a14 14 0 01-.81 2q-1.3 2.65-2.42 5.3z"/><path class="cls-3" d="M828.3 264a2.8 2.8 0 011.48 1.25 10.83 10.83 0 01.42 1.7c.36 1.17 1.46 1.94 2.13 3a8.1 8.1 0 011 4.81 16.93 16.93 0 00.14 5c.19.78.53 1.53.66 2.33.17 1 0 2 .28 2.94a7.53 7.53 0 001.24 2.36l2.15 3.15a25.72 25.72 0 01-2.84-.85 5.11 5.11 0 001.53 2.32l-1.58-2.01a4.53 4.53 0 00-1.16-1.11 6.37 6.37 0 00-1.89-.51 4.41 4.41 0 01-3.08-2c-.8-1.48-.27-3.34-.74-5a18.06 18.06 0 00-1.7-3.26c-1.27-2.47-1.19-5.39-1.59-8.14a26.1 26.1 0 01-.44-3.51c0-.88.09-2.53 1-3s2.26.16 2.99.53z"/><path class="cls-6" d="M827.05 283.78c.11 1.26.38 2.75 1.52 3.28a7.87 7.87 0 002.12.3 4.4 4.4 0 013 2.45 10.67 10.67 0 011 3.9c.18 1.68.24 3.51-.68 4.93a5.71 5.71 0 01-3.36 2.2 9.4 9.4 0 01-7.83-1.45 17.64 17.64 0 01-2.88-2.85c-1.92-2.23-3.84-4.67-4.24-7.59a1 1 0 01.3-.95 1 1 0 01.62-.12h1.84a1.71 1.71 0 001.31-.35 1.59 1.59 0 00.28-1.21c0-1.77-.09-3.55-.14-5.33a.79.79 0 01.12-.54.75.75 0 01.43-.18 28.28 28.28 0 003.06-.28c.94-.25 2.42-1.34 3.12-.22.53.98.36 2.94.41 4.01z"/><path class="cls-9" d="M827.05 283.78c.11 1.26.38 2.75 1.52 3.28a7.87 7.87 0 002.12.3 4.4 4.4 0 013 2.45 10.67 10.67 0 011 3.9c.18 1.68.24 3.51-.68 4.93a5.71 5.71 0 01-3.36 2.2 9.4 9.4 0 01-7.83-1.45 17.64 17.64 0 01-2.88-2.85c-1.92-2.23-3.84-4.67-4.24-7.59a1 1 0 01.3-.95 1 1 0 01.62-.12h1.84a1.71 1.71 0 001.31-.35 1.59 1.59 0 00.28-1.21c0-1.77-.09-3.55-.14-5.33a.79.79 0 01.12-.54.75.75 0 01.43-.18 28.28 28.28 0 003.06-.28c.94-.25 2.42-1.34 3.12-.22.53.98.36 2.94.41 4.01z"/><path class="cls-6" d="M824 267.27a8.05 8.05 0 11-8.05 8.05 8.06 8.06 0 018.05-8.05z"/><path class="cls-4" d="M838.05 306.48a5.85 5.85 0 01-.2.85 18.58 18.58 0 01-.77 1.91c-.11.26-.22.52-.31.78s-.13.42-.18.64-.12.5-.16.75-.11.76-.15 1.13H818a11.77 11.77 0 00-.1-2.78 18.24 18.24 0 00-1.14-3.68 68.65 68.65 0 01-3.19-9.17 18.21 18.21 0 01-.44-6.2v-.37c0-.31.1-.62.17-.93a5.16 5.16 0 011.17-2.36 2.85 2.85 0 013.28-.76 3.35 3.35 0 011.36 1.62c.2.42.37.87.55 1.3a13.34 13.34 0 002.78 4.14 7.6 7.6 0 00.71.68c.24.21.45.39.69.57a5.18 5.18 0 002.72 1.38h3.4a3.21 3.21 0 003-1.29 3.92 3.92 0 00.25-2.28c-.06-.61-.11-1.21-.17-1.82v-.09l-.12-1.31-.06-.64-.05-.46c.2 0 .41-.05.61-.06a4.47 4.47 0 012.64.39 3.47 3.47 0 011.5 2 7.56 7.56 0 01.38 1.82c.27 2.74-.16 5.51 0 8.26.06 1.95.46 4.02.11 5.98z"/><path class="cls-6" d="M842.24 312.54h-5.55c0-.62-.08-1.25-.1-1.88v-4.82a8 8 0 003.56 1 6.58 6.58 0 011.21 1.91 10.53 10.53 0 01.42 1.19 17.2 17.2 0 01.46 2.6z"/><path class="cls-4" d="M841.75 308.77a25.5 25.5 0 00-6.21.82 13.35 13.35 0 010-4l.9-9.24c.06-.68-.07-7 1.26-5.85.48.41 1.1 4.08 1.25 4.67.23.89.41 1.79.58 2.7.33 1.85.55 3.72.87 5.58.1.55.87 5.32 1.35 5.32z"/><path class="cls-3" d="M827 265.08a1.39 1.39 0 00-.17-.72 1.17 1.17 0 00-.86-.45c-1.16-.18-2.44.27-3.49-.25-.55-.27-1-.83-1.52-1.14-1.31-.74-3 0-4.12 1a12 12 0 00-3.86 5.88c-.52 1.78-.72 3.86-2.2 5a8.28 8.28 0 00-1.84 1.34 3.57 3.57 0 00-.49 1.67 11 11 0 00.08 4.05c.28 1 .79 1.86 1.11 2.82a7.52 7.52 0 01-2 7.81 2.42 2.42 0 001.8.31 1.52 1.52 0 01-.26.8c1.89-.06 3.52-1.9 5.37-1.5 1.4.31 2.19 1.76 3.24 2.75a4.88 4.88 0 005.15 1.05 3.73 3.73 0 002-4.61c-.83-1.94-3.35-2.72-4.23-4.65-.68-1.49-.17-3.23-.32-4.86a23.27 23.27 0 00-1.11-4.06 5 5 0 01.28-4.09c.81-1.25 2.37-1.74 3.79-2.21 3.17-1.08 3.79-2.7 3.65-5.94z"/><path class="cls-6" d="M823.37 292.73a5.42 5.42 0 000-3c-.66-1.75-2.81-2.29-4.3-3.41a5.88 5.88 0 01-1.91-2.55c-.27-.71-.3-1.69.36-2.05a1.7 1.7 0 01.83-.15 10.46 10.46 0 016.22 2.81 8.47 8.47 0 012.52 3.1 9.92 9.92 0 01.59 2.8l.37 3.14a51.8 51.8 0 01.41 5.43 23.33 23.33 0 01-.19 3.12 4.76 4.76 0 01-.66 2.09c-.81 1.12-2.35 1.37-3.73 1.41a6.7 6.7 0 01-1.55-.1c-2.29-.5-4-3.7-2.3-5.69.73-.84 1.85-.86 2.27-2a36 36 0 001.07-4.95z"/><path class="cls-4" d="M821.51 293.28l1.81 3a1.36 1.36 0 01.22.51 1.56 1.56 0 01-.47 1c-1.55 2.13-1.16 5.05-.69 7.64a13.86 13.86 0 01-9.54-11.23c-.23-1.54-.59-4.09.78-5.09 3.3-2.44 6.38 1.64 7.89 4.17z"/><path class="cls-3" d="M830.69 287.36a7.92 7.92 0 01-2.12-.3c-1.14-.53-1.41-2-1.52-3.28v-.38a10.43 10.43 0 011.33-1.16 6.73 6.73 0 011.37-.61l1.27-.45a6.4 6.4 0 01.28 1c.14.85 0 1.74.24 2.57a6.67 6.67 0 001.08 2.06l1.88 2.75c-.34-.08-.68-.17-1-.27a4.28 4.28 0 00-2.81-1.93z"/><path class="cls-17" d="M709.91 335.55c.72-1.33-.1-3-1-4.15s-2.08-2.42-2.06-3.94c0-2.17 2.35-3.46 4.19-4.61a20.37 20.37 0 003.77-3 5.44 5.44 0 001.15-1.54 6.39 6.39 0 00.35-2.75c-.08-3.11-.24-6.21-.46-9.31"/><path class="cls-4" d="M719.32 306.05a3.43 3.43 0 00-1.7-2.78l-.76 1.51v-1.82a3.25 3.25 0 00-1.12-.14 3.38 3.38 0 103.55 3.23zM713.26 329a3.37 3.37 0 11.17-2.74l-2.12 1.74 2.33-.54a3.35 3.35 0 01-.38 1.54zm-1.67-6.57a3.39 3.39 0 01-1.08-6.66v1.4l.77-1.52a3.39 3.39 0 013.56 3.21 3.25 3.25 0 01-.15 1.16 3.38 3.38 0 01-3.1 2.41zm8.24-5.43a3.39 3.39 0 111.5-6.35l-.6 1.64 1.23-1.18a3.41 3.41 0 011.1 2.34 3.63 3.63 0 01-.09.93 3.39 3.39 0 01-3.14 2.62z"/><path class="cls-9" d="M718.86 307c-.79.08-1.55.32-2.33.37a2.51 2.51 0 01-2.15-.75 11.67 11.67 0 01-.63-1.1 2.45 2.45 0 00-.85-.81 3.39 3.39 0 006.1 2.89 3.32 3.32 0 00.23-.67 2.43 2.43 0 00-.37.07zm.97 10a3.38 3.38 0 01-3.23-4.84 2.59 2.59 0 01.68.68 11.58 11.58 0 00.67 1.13 2.76 2.76 0 002.25.78c.82 0 1.61-.27 2.42-.34h.35a3.4 3.4 0 01-3.14 2.59zm-8.24 5.43a3.38 3.38 0 01-3.55-3.21 3.27 3.27 0 01.3-1.57 2.78 2.78 0 01.72.69c.26.37.43.8.73 1.15a3.16 3.16 0 002.4.84c.86 0 1.65-.23 2.48-.29a3.39 3.39 0 01-3.08 2.39zm1.67 6.57a3.39 3.39 0 01-6.18-2.77 3.33 3.33 0 01.74.66c.33.4.54.84.91 1.21a4.25 4.25 0 002.81 1 16.37 16.37 0 001.72-.1z"/><path class="cls-4" d="M704.79 334s2.68-.08 3.49-.66 4.11-1.26 4.31-.34 4 4.6 1 4.61-7-.47-7.83-1-.97-2.61-.97-2.61z"/><path d="M713.65 337.31c-3 0-7-.48-7.83-1-.61-.37-.86-1.71-.94-2.33h-.09s.17 2.16 1 2.66 4.81 1 7.83 1c.87 0 1.17-.32 1.16-.78-.15.27-.48.44-1.13.45z" style="isolation:isolate" opacity=".2" fill="#8b8fbc"/><path class="cls-17" d="M933.72 332.26c1.27-2.37-.18-5.27-1.85-7.39s-3.7-4.31-3.66-7c.07-3.87 4.17-6.16 7.45-8.21a36.19 36.19 0 006.7-5.38 9.69 9.69 0 002-2.75 11.18 11.18 0 00.62-4.89q-.21-8.28-.82-16.55"/><path class="cls-4" d="M950.45 279.78a6 6 0 00-3-4.94l-1.35 2.67v-3.24a6 6 0 104.08 7.51 6.13 6.13 0 00.24-2zm-10.76 40.85a6 6 0 11.29-4.85l-3.77 3.06 4.14-1a5.84 5.84 0 01-.66 2.79zm-2.97-11.72a6 6 0 01-1.92-11.84v2.49l1.37-2.71a6 6 0 111.18 12h-.61zm14.64-9.75a6 6 0 112.64-11.29l-1 2.92 2.2-2.1a6 6 0 012 4.16 5.78 5.78 0 01-.16 1.66 6 6 0 01-5.68 4.65z"/><path class="cls-9" d="M949.64 281.39c-1.39.15-2.75.59-4.15.67a4.49 4.49 0 01-3.82-1.33 16.57 16.57 0 01-1.11-2 4.43 4.43 0 00-1.52-1.43 6 6 0 0010.73 5.58 6.37 6.37 0 00.55-1.57zm1.72 17.77a6 6 0 01-5.74-8.61 4.64 4.64 0 011.21 1.21 16.88 16.88 0 001.21 2 4.89 4.89 0 004 1.4c1.45-.06 2.86-.48 4.31-.61h.61a6 6 0 01-5.6 4.61zm-14.64 9.75a6 6 0 01-5.81-8.49 5 5 0 011.28 1.22 19.66 19.66 0 001.31 2 5.63 5.63 0 004.27 1.5c1.5 0 2.93-.4 4.42-.52a6 6 0 01-5.47 4.29z"/><path class="cls-9" d="M939.69 320.63a17.25 17.25 0 10-9.68-3.74 25.06 25.06 0 001.61 2.15 7.55 7.55 0 005 1.75 24.19 24.19 0 003.07-.16z"/><path class="cls-4" d="M924.61 329.53s4.77-.15 6.2-1.17 7.33-2.24 7.69-.61 7.16 8.16 1.78 8.2-12.5-.83-13.93-1.71-1.74-4.71-1.74-4.71z"/><path class="cls-8" d="M940.37 335.39c-5.38 0-12.49-.84-13.93-1.71-1.09-.67-1.52-3.05-1.67-4.15h-.16s.3 3.84 1.74 4.71 8.55 1.76 13.93 1.76c1.55 0 2.09-.56 2.06-1.38-.22.45-.81.76-1.97.77z"/><path d="M826.91 67.92a14.29 14.29 0 11-14.29 14.29 14.29 14.29 0 0114.29-14.29zM128.38 364.44a19.1 19.1 0 11-19.1 19.1 19.1 19.1 0 0119.1-19.1zm97.14 45.92a19.1 19.1 0 11-19.1 19.1 19.1 19.1 0 0119.1-19.1zm529.91-388a10.29 10.29 0 11-10.29 10.29 10.29 10.29 0 0110.29-10.29zM873.65 26a23.95 23.95 0 11-23.95 24 23.95 23.95 0 0123.95-24zm62.6 57.78a25 25 0 11-25 25 24.94 24.94 0 0125-25zM72.5 399.39a32 32 0 11-32 32 32 32 0 0132-32z" style="isolation:isolate" opacity=".1" fill="#373737"/></g></g></svg>