<svg xmlns="http://www.w3.org/2000/svg" viewBox="0 0 756 400"><defs><style>.cls-1{fill:#fff}.cls-2{fill:#e6e6e6}.cls-3{fill:#ccc}.cls-4{fill:#373737}.cls-5{fill:#8b8fbc}.cls-6{fill:#ffb8b8}.cls-7{fill:#575a89}</style></defs><g id="レイヤー_2" data-name="レイヤー 2"><path class="cls-1" d="M0 0h756v400H0z" id="レイヤー_2-2" data-name="レイヤー 2"/><g id="レイヤー_1-2" data-name="レイヤー 1"><path class="cls-2" d="M55.26 100.23c-5.52.35-11.54 0-17.94 0V85.57a64.17 64.17 0 0017.94 0z"/><path class="cls-2" d="M15.44 100.15h151.31v6.74H15.44zM46.31 64a13.49 13.49 0 11-13.49 13.48A13.49 13.49 0 0146.31 64z"/><circle class="cls-1" cx="46.31" cy="77.48" r="10.79" transform="rotate(-45 46.312 77.477)"/><path class="cls-2" d="M46.31 74.78a2.7 2.7 0 11-2.7 2.7 2.7 2.7 0 012.7-2.7z"/><path class="cls-2" d="M44.96 76.81h10.79v1.35H44.96z"/><path class="cls-2" d="M45.64 68.04h1.35v10.79h-1.35zm61.47-3.9h8.92v35.32h-8.92z"/><path class="cls-3" d="M107.11 69.72h8.92v4.09h-8.92zm0 17.84h8.92v4.09h-8.92z"/><path class="cls-2" d="M93.36 64.14h8.92v35.32h-8.92z"/><path class="cls-3" d="M93.36 69.72h8.92v4.09h-8.92zm0 17.84h8.92v4.09h-8.92z"/><path class="cls-2" transform="rotate(-26.34 127.575 81.824)" d="M123.09 64.15h8.93v35.32h-8.93z"/><path class="cls-3" transform="rotate(-26.34 123.127 72.805)" d="M118.66 70.77h8.92v4.09h-8.92z"/><path class="cls-3" transform="rotate(-26.34 131.013 88.804)" d="M126.56 86.76h8.92v4.09h-8.92z"/><path class="cls-4" d="M703.05 360.39c-18.79 1.2-39.27-.07-61.06 0v-49.88c19.2 3 39.67 2.68 61.06 0z"/><path class="cls-4" d="M674.67 314.99h-5.16l1.72-100.81h1.72l1.72 100.81zm23.22.68h-5.16l1.72-100.8h1.72l1.72 100.8zm-43.86 0h-5.16l1.72-100.8h1.72l1.72 100.8z"/><path class="cls-2" d="M679 149.68l8.33-12.87a190.65 190.65 0 00-8.55-20l-5.38 4.35 4.26-6.59c-4.06-8-7.26-13-7.26-13s-16.71 26.32-22.29 54.2l10.69 16.52-11.83-9.56a78.26 78.26 0 00-.65 9.79c0 33 10.78 59.78 24.08 59.78s24.08-26.77 24.08-59.78c0-10.23-2.31-20.94-5.51-30.84z"/><path class="cls-5" d="M702.19 151.4l8.33-12.88a193.48 193.48 0 00-8.54-20l-5.39 4.35 4.27-6.59c-4.07-8-7.27-13-7.27-13s-16.7 26.32-22.29 54.2L682 174l-11.83-9.56a78.26 78.26 0 00-.65 9.79c0 33 10.78 59.77 24.08 59.77s24.08-26.76 24.08-59.77c0-10.23-2.31-20.94-5.51-30.84z"/><path class="cls-5" d="M658.33 151.4l8.33-12.88a191.4 191.4 0 00-8.55-20l-5.38 4.35 4.26-6.59c-4.06-8-7.26-13-7.26-13s-16.71 26.32-22.29 54.2L638.13 174l-11.84-9.56a78.25 78.25 0 00-.64 9.79c0 33 10.78 59.77 24.08 59.77s24.08-26.76 24.08-59.77c0-10.23-2.31-20.94-5.51-30.84z"/><path class="cls-2" d="M222.58 33.91h241.43v6.74H222.58z"/><path class="cls-5" d="M159 147l2.3-3.55a52.62 52.62 0 00-2.36-5.52l-1.49 1.2 1.18-1.82c-1.12-2.21-2-3.6-2-3.6a51.13 51.13 0 00-6.15 14.95l3 4.56-3.26-2.63a20.18 20.18 0 00-.18 2.7c0 9.1 3 16.48 6.64 16.48s6.64-7.38 6.64-16.48a28.33 28.33 0 00-1.52-8.51z"/><path class="cls-5" d="M175.26 154.89l4.14-.88a52.64 52.64 0 002.24-5.57l-1.9-.2 2.11-.46c.77-2.35 1.13-4 1.13-4a51.11 51.11 0 00-14.92 6.23l-1.14 5.3-.44-4.17a23 23 0 00-2 1.78c-6.43 6.44-9.55 13.77-7 16.36s9.92-.52 16.36-7a28.56 28.56 0 004.94-7.09z"/><path class="cls-4" d="M176.78 190.13c-9.6.61-20 0-31.16 0v-25.45a112.84 112.84 0 0031.16 0z"/><path class="cls-2" d="M443.44 198.12h129.48v167.92H443.44zm-270.42 8.76h6.74v159.15h-6.74z"/><path class="cls-2" d="M111.65 186.65h461.27v13.49H111.65z"/><path class="cls-2" d="M169.65 200.14h13.49v13.49h-13.49z"/><path class="cls-4" d="M518.38 207.9l-.76 3.03h-18.88l-1.14-3.03h-48.09v31.02h117.34V207.9h-48.47zm0 39.11l-.76 3.03h-18.88l-1.14-3.03h-48.09v31.02h117.34v-31.02h-48.47zm0 39.11l-.76 3.04h-18.88l-1.14-3.04h-48.09v31.02h117.34v-31.02h-48.47zm0 39.12l-.76 3.03h-18.88l-1.14-3.03h-48.09v31.02h117.34v-31.02h-48.47z"/><path class="cls-2" d="M361.84 184.63h-39.78l1.34-17.53h37.1l1.34 17.53z"/><path class="cls-2" d="M320.03 182.61h44.51v4.05h-44.51z"/><path class="cls-4" d="M418.15 54.14H266.08a4 4 0 00-4 4v92.73H422.2V58.18a4 4 0 00-4.05-4z"/><path class="cls-2" d="M262 150.91v15.18a4 4 0 004 4h152.15a4 4 0 004.05-4v-15.18z"/><path class="cls-1" d="M270.13 62.57h144.32v80.93H270.13z"/><path class="cls-4" d="M342.29 156.31a4 4 0 11-4.05 4 4 4 0 014.05-4zm-25.36-70.9h38.91v2.23h-38.91z"/><path class="cls-5" d="M316.93 93.56h60.09v2.23h-60.09zm0 7.67h48.97v2.23h-48.97z"/><path class="cls-4" d="M316.93 108.88h28.59v2.23h-28.59zm0 7.65h43.15v2.23h-43.15zm-17.74-31.91h4.76v4.76h-4.76z"/><path class="cls-5" d="M299.19 92.29h4.76v4.77h-4.76zm0 7.68h4.76v4.77h-4.76z"/><path class="cls-4" d="M299.19 107.65h4.76v4.77h-4.76zm0 7.67h4.76v4.76h-4.76z"/><path class="cls-5" d="M407.76 81.18h-20.42a71.56 71.56 0 010-24.34h20.42a43.88 43.88 0 000 24.34z"/><path class="cls-6" d="M257 137.57s-5.63 21.67-8.84 23.48 25.72 4.52 25.72 4.52-.8-20.78.81-22.58-17.69-5.42-17.69-5.42z"/><path class="cls-4" d="M308.76 253.84s51.35-3.61 58.2 9.93-4.27 83.83-4.27 83.83H341l-.3-55.83s-92.44-20.8-92.44-28 60.5-9.93 60.5-9.93z"/><path class="cls-4" d="M362.29 345.47l12.46 5s14.95-1.25 8.72 10A24.66 24.66 0 01366 372.88s-23.67 8.73-24.92 0 6.23-26.16 6.23-26.16zm-82.05-91.63s51.34-3.61 58.19 9.93-3.73 85.15-3.73 85.15H313l-.83-57.15s-65.62-12-65.62-19.25c0-3.4-4.47-20.65 3.41-24.28 8.91-4.1 30.28 5.6 30.28 5.6z"/><path class="cls-4" d="M331.14 345.47l12.46 5s14.95-1.25 8.72 10a24.64 24.64 0 01-17.44 12.46s-23.68 8.73-24.92 0 6.23-26.16 6.23-26.16zm-72.96-197.02l-9.29-2.26A23.9 23.9 0 01225 122.31a23.08 23.08 0 01.47-4.76 31.25 31.25 0 0131.21-31.29 31.25 31.25 0 0131.28 31.21 24.83 24.83 0 01-29.78 30.98z"/><circle class="cls-6" cx="268.32" cy="128.76" r="22.96" transform="rotate(-22.17 268.342 128.762)"/><path class="cls-4" d="M223.76 80.42a14.84 14.84 0 11-14.83 14.83 14.83 14.83 0 0114.83-14.83z"/><path class="cls-4" d="M237.44 87.28a14.82 14.82 0 00-14.84-14.81 15 15 0 00-2.91.29 14.82 14.82 0 119.25 27.94 14.82 14.82 0 008.5-13.42zm12.72 8.41l20-3.68 15.38 9.64a23.34 23.34 0 0110.74 22.76l-15.4-3.9-3.45-8.65-4.1 6.73-21.48 27.64-12.06-7.68L229 121.71z"/><path class="cls-7" d="M245.78 157l27.14 3a20 20 0 0117.4 15.74l10.55 36.7s3.61 49.67-3.62 52.38-17.15-10.84-30.7-9-31.16 5.87-31.16 5.87-2.79-75.66-3.16-82.93c-.73-14.61 13.55-21.76 13.55-21.76z"/><path d="M274.52 187.16s5.66 23.29 9 35.08 18 16.09 18 16.09l.33 34.77-20.95-40.93z" style="isolation:isolate" opacity=".2"/><path class="cls-4" d="M207.07 380.47l-3.19-1.1 30.88-91.71 4.47 1.53-32.16 91.28zm118.02 0l3.19-1.1-30.88-91.71-4.46 1.53 32.15 91.28zm-65.24 18.94l3.37.01 1.05-107.21-4.73-.02.31 107.22z"/><path class="cls-5" d="M199.27 233.76l9.25 37.39a29.67 29.67 0 0021.62 21.66 157.74 157.74 0 0078.5-.5l13.81-3.64a19.49 19.49 0 0014.63-17.29 17 17 0 00-1.54-8.52 3.54 3.54 0 00-.16-.34 22.58 22.58 0 00-19.6-12.68l-14.63-.47-53.28-23.6s-18.32-9.31-33.38-10.35a14.76 14.76 0 00-15.22 18.34z"/><path class="cls-2" d="M471.43 116.18h52.6v71.48h-52.6z"/><path class="cls-1" d="M477.5 124.43h40.46v54.99H477.5z"/><path class="cls-4" d="M493.42 138.82h19.6v2.23h-19.6zm-10.99-1.24h4.76v4.77h-4.76zm10.99 10.68h19.6v2.23h-19.6zm-10.99-1.24h4.76v4.77h-4.76zm10.99 10.68h19.6v2.23h-19.6zm-10.99-1.24h4.76v4.77h-4.76zm15.3-38.26a2 2 0 012 2 2 2 0 01-2 2 2 2 0 01-2-2 2 2 0 012-2z"/><path class="cls-5" d="M365.89 178.7a7.92 7.92 0 11-7.54 7.91 7.73 7.73 0 017.54-7.91zm0 12.77a4.87 4.87 0 10-4.64-4.86 4.75 4.75 0 004.64 4.86z"/><path class="cls-5" d="M394.87 172.61h-29v28.11a5.82 5.82 0 005.68 6h17.62a5.83 5.83 0 005.68-6v-28.11z"/><path d="M371.1 172.61v28.14a5.79 5.79 0 005.65 5.93h-2.89a5.79 5.79 0 01-5.65-5.93v-28.14z" style="isolation:isolate" opacity=".1"/><path class="cls-5" d="M380.72 153.59c-.32.46-3.4 4.3-3.57 4.83a2.88 2.88 0 00.06 1.76c.19.37 1.4 3.21 1.71 3.82 1 2-.13 3.42-1 4.51-.3.39-.09.78.15.55a38.29 38.29 0 003.75-5.14 2 2 0 00-.09-2.09 30.19 30.19 0 01-1.6-4c-.47-1.76-.37-2.16.89-4 .22-.33.09-.83-.3-.24zm5.73 3.7c-.23.35-2.35 3.22-2.47 3.62a2.3 2.3 0 000 1.31c.13.28 1 2.4 1.18 2.86.71 1.51-.09 2.55-.69 3.37-.21.29-.06.58.1.41a28.33 28.33 0 002.63-3.86 1.57 1.57 0 00-.06-1.56 23.17 23.17 0 01-1.1-3c-.33-1.31-.26-1.61.61-3 .15-.21.06-.56-.2-.15zm-12.35 0c-.23.35-2.35 3.22-2.47 3.62a2.39 2.39 0 000 1.31c.13.28 1 2.4 1.19 2.86.71 1.51-.1 2.55-.7 3.37-.21.29-.06.58.11.41a29.29 29.29 0 002.59-3.84 1.57 1.57 0 00-.07-1.56 24.76 24.76 0 01-1.1-3c-.32-1.31-.26-1.61.61-3 .2-.23.11-.58-.16-.17z"/><path class="cls-6" d="M327 201.22l14.28-14.71s20-10.64 22.18 5c2.65 18.55-20.85 10.93-20.85 10.93l-17.89 8.28z"/><path class="cls-6" d="M347.81 184.63s17.3-8.86 15.72-2.72-13.44 9.54-13.44 9.54z"/><path class="cls-7" d="M266.83 164.7l9-4.52s19 2.71 22.57 15.36c1.77 6.17 11.68 31.83 11.68 31.83l21.53-13.91 12.91 11.92s-18.21 20.53-29.8 29.8c-10.76 8.61-27.82-2.65-27.82-2.65z"/><path class="cls-5" d="M101.44 321.07c0 16.43-9.77 22.17-21.82 22.17h-.84c-.56 0-1.11 0-1.66-.07-10.87-.77-19.33-6.81-19.33-22.09 0-15.81 20.21-35.77 21.74-37.25l.09-.08s21.82 20.88 21.82 37.32z"/><path d="M78.82 340.73l8-11.15L78.8 342v1.28c-.56 0-1.11 0-1.66-.07l.86-16.49v-.16l.08-1.55-8-12.41 8 11.25v.32l.65-12.42-6.83-12.82 6.95 10.64.68-25.75-.11 20.31 6.83-8.05-6.86 9.8-.18 11.12 6.38-10.68-6.41 12.31-.1 6.19L88.35 310l-9.3 17z" fill="#f2f2f2"/><path class="cls-4" d="M102.43 360.9c-14.6.64-30.51 0-47.44 0v-26.45a250.44 250.44 0 0047.44 0z"/></g></g></svg>