<svg xmlns="http://www.w3.org/2000/svg" viewBox="0 0 259 231"><path d="M29.1 179.72a38.92 38.92 0 007.16.66 38.51 38.51 0 0019.35-5.29V162.3c-4 3.81-10.57 8.14-19 8.14a26.07 26.07 0 01-12.45-3.05 23.65 23.65 0 003.13 9.28zm7.37-62.56c4 0 11.31.74 19.14 7.82V112.3c-6.13-3.92-12.37-5.08-18.82-5.08-9.73 0-18.18 2.33-25.48 9.2C5.39 122 0 131 0 144a35 35 0 006.14 20.71v-.59A44.32 44.32 0 018.34 150l2.47-7.4c.6-14.8 10.8-25.44 25.66-25.44zM141.82 1.12c-1.42 2-14.84 18.77-15.56 21.08s-.62 6 .22 7.66 6.12 14 7.49 16.67c4.48 8.79-.59 14.87-4.37 19.65-1.33 1.67-.4 3.36.65 2.38C133 66 144.9 49.91 146.58 46.15s1.41-5.68-.39-9.09a132.05 132.05 0 01-7-17.4c-2.06-7.68-1.62-9.43 3.88-17.49 1.01-1.42.43-3.47-1.25-1.05zm24.93 16.15c-1 1.52-10.24 14-10.74 15.76a10.24 10.24 0 00.15 5.72c.58 1.22 4.23 10.45 5.17 12.46 3.1 6.57-.4 11.12-3 14.69-.92 1.25-.28 2.51.45 1.78 1.89-1.93 10.11-13.94 11.27-16.75s1-4.25-.27-6.79a105.54 105.54 0 01-4.8-13c-1.42-5.74-1.12-7 2.68-13.07.66-1.07.26-2.6-.91-.8zm-53.81 0c-1 1.52-10.24 14-10.75 15.76a10.14 10.14 0 00.16 5.72c.58 1.22 4.22 10.45 5.17 12.46 3.1 6.57-.4 11.12-3 14.69-.91 1.25-.27 2.51.45 1.78 1.89-1.93 10.12-13.94 11.28-16.75s1-4.25-.27-6.79a103.94 103.94 0 01-4.8-13c-1.43-5.74-1.12-7 2.67-13.07.65-1.07.25-2.6-.91-.8zM86.45 187.9c-3-6.77-4.18-26.1-1-45.54l.19-1.17-16.77 11.87v.24c-.85 13.28-1.58 24.74 1.8 36.39 3.21 11.07 10.18 19.48 20.81 25.24a117.38 117.38 0 008.31-12.77 30.49 30.49 0 01-13.34-14.26z" fill="#8b8fbc"/><path d="M65.23 145.1c-7.82-7.08-15.12-7.82-19.14-7.82-15.32 0-25.68 11.31-25.68 26.85 0 14.91 10.78 26.43 25.79 26.43 8.46 0 15-4.33 19-8.14v12.79a38.46 38.46 0 01-19.35 5.29 35.35 35.35 0 01-25-9.73c-8.24-7.72-11.31-16.7-11.31-26.64 0-13 5.39-22 11.31-27.59 7.3-6.87 15.76-9.2 25.48-9.2 6.45 0 12.69 1.16 18.82 5.08zM193.42 103l-.15-.35-.37.06c-.38.06-37.5 5.61-55.34 5.61-12.43 0-29.93-.52-42.72-3-6.32-1.22-10.09-3-10.09-4.67 0-2.41 4-4.13 11.21-4.85 3.85-.38 21.64-1.8 35-2h2.84c16.46 0 42.92 2.19 43.19 2.21h.21l11.68-10.94-1.1-.07c-.28 0-28.5-3.56-52.16-3.56-1.75 0-3.45 0-5.06.06-12.56.25-30.56 1.61-37.67 2.59-9.51 1.3-20.59 6.34-20.55 16.24 0 7.4 6.75 12.42 20.55 15.35a219.74 219.74 0 0043.51 4.09 345 345 0 0045.14-3.44c.41 1.32.86 2.88 1.31 4.58l12.57-12.15a44.63 44.63 0 00-2-5.76zm-7.35 80.89c-1.77 7.45-9.45 24.25-42.44 26a8.1 8.1 0 01-3.12 3.6c-3.59 2.27-8 3-14.88 4.1-3.19.49-7.7 2.29-12.42 4.56a138.87 138.87 0 0024.76 2h1.39c40.74-.3 54.69-23 59.37-36.49 4.81-13.87 4.15-29.75 3.25-40.4l-12.9 11.18a107.85 107.85 0 01-3.01 25.45z" fill="#333"/><path d="M132.04 174.84l14.46 15.9 6.03-5.23-14.75-16.21-5.74 5.54zm23.56 8l101.56-88c1.74-1.59 1.67-4.49-.15-6.49l-13.18-14.49c-1.82-2-4.7-2.34-6.44-.76l-96.68 93.37zm-14.18 19.98c.71-6.75 1.9-9.2 1.9-9.2l-4.8-5.28-4.85-5.34-4.8-5.28s-2.17 1.38-9.33 1c-3.1-.16-6.2-.33-8.12 2.19s-3.23 5.51-4.42 12.31C104.83 205.64 87.1 226 87.1 226l1.31 1.52L104 213.39a2.59 2.59 0 01.76-3.07 2.69 2.69 0 113.62 4 2.57 2.57 0 01-3.12.45L89.68 228.9l1.51 1.61s22.82-14.65 33.9-16.37c6.91-1.07 10.65-1.76 13.54-3.59 2.59-1.64 2.48-4.75 2.79-7.73z" fill="#373737"/></svg>