<svg xmlns="http://www.w3.org/2000/svg" viewBox="0 0 745 346"><defs><style>.logo-1{fill:#333}</style></defs><path class="logo-1" d="M63.57 282c-9-8.1-17.28-9-21.88-9-17.52 0-29.36 12.94-29.36 30.7 0 17 12.32 30.21 29.48 30.21 9.67 0 17.17-4.95 21.76-9.3v14.62a44 44 0 01-22.12 6 40.34 40.34 0 01-28.52-11.12C3.5 325.42 0 315.15 0 303.79c0-14.86 6.16-25.14 12.93-31.54 8.34-7.86 18-10.51 29.13-10.51 7.37 0 14.5 1.32 21.51 5.8zM81 292.91h11.83v4.6a20.43 20.43 0 015-4.23 13.66 13.66 0 017.25-1.7 17.58 17.58 0 019.3 2.42l-4.83 10.76a10.75 10.75 0 00-6-1.82c-2.54 0-5.08.37-7.37 2.79-3.27 3.5-3.27 8.33-3.27 11.72v26.34H81zm87.64 39.28a26.69 26.69 0 01-8.58 9.31c-4.11 2.65-9.54 3.86-15 3.86-6.77 0-12.33-1.69-17.16-6.52s-7.5-11.85-7.5-19.46a29.83 29.83 0 018.1-20.91 23.18 23.18 0 0117-6.89 21.89 21.89 0 0116.31 6.65c6.53 6.77 7.13 16.2 7.13 21.51v1.45h-36.43a16.81 16.81 0 004.35 10.28c2.78 2.77 6.16 3.26 9.06 3.26a12.49 12.49 0 008.1-2.54 18.38 18.38 0 004.71-5.56zm-11.72-20.66a12.21 12.21 0 00-3.63-6.89A12.35 12.35 0 00137 305a13.4 13.4 0 00-3.63 6.53zm64.15-18.62h11.84v50.88h-11.84v-5.32a19.52 19.52 0 01-15.23 6.89c-15.71 0-24.65-13.05-24.65-27.07 0-16.55 11.36-26.71 24.77-26.71a18.54 18.54 0 0115.11 7.26zm-27.79 25.62c0 8.83 5.55 16.2 14.13 16.2 7.5 0 14.39-5.44 14.39-16.08 0-11.11-6.89-16.43-14.39-16.43-8.58 0-14.13 7.25-14.13 16.31m71.9-14.74v40h-11.84v-40h-4.96v-10.88h4.96V274.3h11.84v18.61h9.06v10.88h-9.06zm73.25 14.62c0 15.59-11.84 26.95-27.19 26.95s-27.19-11.36-27.19-26.95 11.85-26.83 27.19-26.83 27.19 11.12 27.19 26.83m-12.08.12c0-11.6-7.61-16.31-15.11-16.31s-15.1 4.71-15.1 16.31c0 9.79 5.8 16.2 15.1 16.2s15.11-6.41 15.11-16.2M355 292.91h11.84v4.6a20.24 20.24 0 015-4.23 13.66 13.66 0 017.25-1.7 17.58 17.58 0 019.3 2.42l-4.83 10.76a10.77 10.77 0 00-6-1.82c-2.54 0-5.08.37-7.38 2.79-3.26 3.5-3.26 8.33-3.26 11.72v26.34H355zm54.46-33.83l10.63 4.11-14.98 29.85-7.98-3.27 12.33-30.69zm26.7 47.25a8.54 8.54 0 00-7.25-4.35 5 5 0 00-3.63 1.33 3.84 3.84 0 00-1.09 2.66 3.26 3.26 0 001.7 2.9c.72.48 1.45.72 4 2.05l6 3a24.58 24.58 0 017.13 4.71 12.56 12.56 0 013.74 9.43 16.89 16.89 0 01-4.47 11.6c-4 4.35-8.94 5.68-14.26 5.68a17.53 17.53 0 01-11-3.26 19.84 19.84 0 01-6.52-9.31l9.67-4.59A13.37 13.37 0 00423 333a7.25 7.25 0 005.19 1.93 7.12 7.12 0 004.84-1.69 6 6 0 001.69-4 5.48 5.48 0 00-1.57-3.87 15.62 15.62 0 00-5.08-3.14l-4.35-2a25.42 25.42 0 01-7-4.35 11.09 11.09 0 01-3.62-8.58 15.89 15.89 0 014.23-10.88c2.29-2.42 6.16-4.84 12.44-4.84a16 16 0 019.43 2.66 17.45 17.45 0 015.8 6.29zM580.54 282c-8.94-8.1-17.28-9-21.87-9-17.53 0-29.37 12.94-29.37 30.7 0 17 12.33 30.21 29.49 30.21 9.67 0 17.16-4.95 21.75-9.3v14.62a44 44 0 01-22.11 6 40.37 40.37 0 01-28.53-11.12c-9.42-8.82-12.93-19.09-12.93-30.45 0-14.86 6.17-25.14 12.93-31.54 8.34-7.86 18-10.51 29.13-10.51 7.37 0 14.5 1.32 21.51 5.8zm51.1 10.91h11.85v50.88h-11.85v-5.32a19.5 19.5 0 01-15.22 6.89c-15.71 0-24.66-13.05-24.66-27.07 0-16.55 11.36-26.71 24.78-26.71a18.54 18.54 0 0115.1 7.26zm-27.79 25.62c0 8.83 5.56 16.2 14.14 16.2 7.49 0 14.38-5.44 14.38-16.08 0-11.11-6.89-16.43-14.38-16.43-8.58 0-14.14 7.25-14.14 16.31m72.35-14.74v40h-11.85v-40h-5.07v-10.88h5.07v-17.64c0-7.86 2.06-12.81 5-15.95a15.91 15.91 0 0112.08-5 19.1 19.1 0 017.62 1.45v11.73a10.26 10.26 0 00-5.68-1.82 6.86 6.86 0 00-5.2 1.94c-.6.6-1.93 2.41-1.93 6v19.21H689v10.88zm68.23 28.4a26.69 26.69 0 01-8.58 9.31c-4.11 2.65-9.54 3.86-15 3.86-6.77 0-12.33-1.69-17.16-6.52s-7.5-11.85-7.5-19.46a29.83 29.83 0 018.1-20.91 23.18 23.18 0 0117-6.89 21.89 21.89 0 0116.31 6.65c6.53 6.77 7.14 16.2 7.14 21.51v1.45H708.3a16.81 16.81 0 004.35 10.28c2.78 2.77 6.16 3.26 9.06 3.26a12.49 12.49 0 008.1-2.54 18.38 18.38 0 004.71-5.56zm-11.72-20.66a12.21 12.21 0 00-3.63-6.89 12.35 12.35 0 00-16.31.36 13.4 13.4 0 00-3.63 6.53z"/><path d="M272.29 179.72a38.92 38.92 0 007.16.66 38.51 38.51 0 0019.35-5.29V162.3c-4 3.81-10.58 8.14-19 8.14a26.14 26.14 0 01-12.46-3.05 23.66 23.66 0 003.14 9.28zm7.37-62.56c4 0 11.31.74 19.14 7.82V112.3c-6.14-3.92-12.37-5.08-18.82-5.08-9.73 0-18.19 2.33-25.48 9.2C248.58 122 243.19 131 243.19 144a35 35 0 006.14 20.71v-.59a44.6 44.6 0 012.19-14.12l2.48-7.4c.6-14.8 10.79-25.44 25.66-25.44zM385 1.12c-1.42 2-14.83 18.77-15.56 21.08s-.61 6 .23 7.66 6.11 14 7.48 16.67c4.49 8.79-.58 14.87-4.36 19.65-1.33 1.67-.4 3.36.64 2.38 2.74-2.57 14.65-18.65 16.34-22.41s1.4-5.68-.4-9.09a133.4 133.4 0 01-6.95-17.4c-2.06-7.68-1.62-9.43 3.88-17.49.97-1.42.39-3.47-1.3-1.05zm24.94 16.15c-1 1.52-10.24 14-10.74 15.76a10.15 10.15 0 00.15 5.72c.58 1.22 4.23 10.45 5.17 12.46 3.1 6.57-.4 11.12-3 14.69-.92 1.25-.28 2.51.44 1.78 1.9-1.93 10.12-13.94 11.28-16.75s1-4.25-.27-6.79a105.54 105.54 0 01-4.8-13c-1.42-5.74-1.12-7 2.67-13.07.67-1.07.27-2.6-.9-.8zm-53.81 0c-1 1.52-10.24 14-10.75 15.76a10.14 10.14 0 00.16 5.72c.58 1.22 4.22 10.45 5.17 12.46 3.1 6.57-.4 11.12-3 14.69-.91 1.25-.27 2.51.45 1.78 1.89-1.93 10.11-13.94 11.28-16.75s1-4.25-.28-6.79a105.54 105.54 0 01-4.8-13c-1.42-5.74-1.11-7 2.68-13.07.65-1.07.25-2.6-.91-.8zM329.64 187.9c-3-6.77-4.18-26.1-1-45.54l.2-1.17-16.79 11.87v.24c-.85 13.28-1.58 24.74 1.8 36.39 3.21 11.07 10.18 19.48 20.8 25.24a116 116 0 008.35-12.77 30.49 30.49 0 01-13.36-14.26z" fill="#8b8fbc"/><path class="logo-1" d="M308.42 145.1c-7.83-7.08-15.12-7.82-19.14-7.82-15.33 0-25.69 11.31-25.69 26.85 0 14.91 10.79 26.43 25.8 26.43 8.46 0 15-4.33 19-8.14v12.79a38.51 38.51 0 01-19.35 5.29 35.35 35.35 0 01-24.95-9.73c-8.24-7.72-11.31-16.7-11.31-26.64 0-13 5.39-22 11.31-27.59 7.3-6.87 15.75-9.2 25.48-9.2 6.45 0 12.69 1.16 18.82 5.08zM436.61 103l-.15-.35-.38.06c-.37.06-37.49 5.61-55.33 5.61-12.43 0-29.93-.52-42.72-3-6.32-1.22-10.1-3-10.1-4.67 0-2.41 4-4.13 11.22-4.85 3.85-.38 21.64-1.8 35-2h2.84c16.46 0 42.92 2.19 43.18 2.21h.22L432 85.09l-1-.09c-.28 0-28.5-3.56-52.16-3.56-1.75 0-3.45 0-5.06.06-12.59.29-30.59 1.65-37.68 2.63-9.5 1.3-20.59 6.34-20.54 16.24 0 7.4 6.75 12.42 20.55 15.35a219.74 219.74 0 0043.51 4.09 345 345 0 0045.14-3.44c.41 1.32.85 2.88 1.3 4.58l12.58-12.15a44.63 44.63 0 00-2.03-5.8zm-7.35 80.89c-1.78 7.45-9.45 24.25-42.44 26a8.06 8.06 0 01-3.13 3.6c-3.58 2.27-8 3-14.87 4.1-3.19.49-7.7 2.29-12.42 4.56a138.87 138.87 0 0024.76 2h1.39c40.74-.3 54.68-23 59.37-36.49 4.81-13.87 4.15-29.75 3.25-40.4l-12.9 11.18a107.85 107.85 0 01-3.01 25.45z"/><path d="M375.23 174.84l14.45 15.9 6.04-5.23-14.76-16.21-5.73 5.54zm23.56 8l101.55-88c1.74-1.59 1.68-4.49-.14-6.49L487 73.86c-1.82-2-4.71-2.34-6.45-.76l-96.68 93.37zm-14.18 19.98c.7-6.75 1.9-9.2 1.9-9.2l-4.81-5.28-4.84-5.34-4.81-5.28s-2.16 1.38-9.32 1c-3.1-.16-6.2-.33-8.12 2.19s-3.23 5.51-4.43 12.31C348 205.64 330.29 226 330.29 226l1.31 1.52 15.55-14.16a2.61 2.61 0 01.76-3.07 2.69 2.69 0 113.63 4 2.57 2.57 0 01-3.12.45l-15.55 14.16 1.51 1.61s22.81-14.65 33.9-16.37c6.91-1.07 10.65-1.76 13.54-3.59 2.59-1.64 2.48-4.75 2.79-7.73z" fill="#373737"/></svg>